<svg width="3911" height="1020" viewBox="0 0 3911 1020" fill="none" xmlns="http://www.w3.org/2000/svg">
<g clip-path="url(#clip0)">
<path d="M0 -353.858H3901V-160.858C3901 -160.858 3862.93 -92.9713 3836.65 52.4751C3820.8 140.142 3789.19 189.387 3758.55 237.13C3738.35 268.597 3718.57 299.411 3704 340.142C3682 401.642 3659.17 518.385 3681.95 600.746C3687.18 619.642 3683.95 637.249 3674 657.142C3655.5 694.142 3601 790.83 3459.5 773.142C3439.97 770.701 3419 762.198 3395.34 752.607C3331.81 726.845 3248.92 693.233 3122.5 748.142C3051.14 779.135 3008.74 821.263 2972.61 857.171C2953.1 876.548 2935.42 894.114 2916 907.142C2880.51 930.948 2834.15 951.822 2757.79 957H0V-353.858Z" fill="url(#paint0_radial)"/>
<path d="M2787.88 885.816L2787 884.285L2790.29 882.387L2784.18 871.804L2781.57 873.312L2780.88 872.119C2781.47 871.617 2781.96 871.145 2782.34 870.703C2782.73 870.237 2783.05 869.771 2783.31 869.306L2784.72 868.487L2792.13 881.321L2795.11 879.605L2795.99 881.136L2787.88 885.816Z" fill="#DAD1E9"/>
<path d="M3727.78 206.889L3726.89 205.357L3730.18 203.459L3724.07 192.877L3721.46 194.385L3720.77 193.191C3721.36 192.69 3721.85 192.218 3722.24 191.775C3722.63 191.309 3722.95 190.843 3723.2 190.378L3724.62 189.559L3732.03 202.393L3735 200.677L3735.88 202.209L3727.78 206.889Z" fill="#DAD1E9"/>
<path d="M1584.78 934.004L1583.89 932.473L1587.18 930.575L1581.07 919.992L1578.46 921.5L1577.77 920.306C1578.36 919.805 1578.85 919.333 1579.24 918.891C1579.63 918.425 1579.95 917.959 1580.2 917.493L1581.62 916.674L1589.03 929.509L1592 927.793L1592.88 929.324L1584.78 934.004Z" fill="#DAD1E9"/>
<path d="M2920.49 870.44L2919.88 868.778L2923.45 867.48L2919.27 855.997L2916.44 857.029L2915.97 855.734C2916.64 855.343 2917.2 854.963 2917.65 854.594C2918.12 854.203 2918.52 853.8 2918.85 853.385L2920.39 852.825L2925.46 866.751L2928.68 865.577L2929.29 867.239L2920.49 870.44Z" fill="#DAD1E9"/>
<path d="M2966.12 839.951L2964.59 839.067L2966.48 835.78L2955.9 829.67L2954.39 832.282L2953.2 831.593C2953.46 830.863 2953.65 830.21 2953.76 829.634C2953.87 829.035 2953.91 828.471 2953.9 827.942L2954.71 826.523L2967.55 833.933L2969.27 830.961L2970.8 831.845L2966.12 839.951Z" fill="#DAD1E9"/>
<path d="M3668.55 459.575L3667.02 458.691L3668.91 455.403L3658.33 449.293L3656.82 451.905L3655.63 451.216C3655.89 450.486 3656.08 449.834 3656.19 449.258C3656.3 448.659 3656.34 448.094 3656.33 447.565L3657.14 446.147L3669.98 453.557L3671.7 450.585L3673.23 451.469L3668.55 459.575Z" fill="#DAD1E9"/>
<path d="M1971.54 906.432L1970.01 905.548L1971.91 902.261L1961.33 896.151L1959.82 898.763L1958.63 898.074C1958.89 897.344 1959.07 896.691 1959.19 896.115C1959.29 895.516 1959.34 894.952 1959.32 894.423L1960.14 893.004L1972.98 900.414L1974.69 897.442L1976.22 898.326L1971.54 906.432Z" fill="#DAD1E9"/>
<path d="M3800.54 144.432L3799.01 143.548L3800.91 140.261L3790.33 134.151L3788.82 136.763L3787.63 136.074C3787.89 135.344 3788.07 134.691 3788.19 134.116C3788.29 133.516 3788.34 132.952 3788.32 132.423L3789.14 131.005L3801.98 138.415L3803.69 135.442L3805.22 136.326L3800.54 144.432Z" fill="#DAD1E9"/>
<path d="M3631.82 336.922L3631.22 335.26L3634.79 333.962L3630.61 322.479L3627.77 323.51L3627.3 322.216C3627.97 321.824 3628.53 321.444 3628.99 321.076C3629.45 320.684 3629.85 320.281 3630.18 319.867L3631.72 319.307L3636.79 333.233L3640.01 332.059L3640.62 333.72L3631.82 336.922Z" fill="#DAD1E9"/>
<path d="M3762.82 177.922L3762.22 176.26L3765.79 174.962L3761.61 163.479L3758.77 164.51L3758.3 163.216C3758.97 162.824 3759.53 162.444 3759.99 162.076C3760.45 161.684 3760.85 161.281 3761.18 160.867L3762.72 160.307L3767.79 174.233L3771.01 173.059L3771.62 174.72L3762.82 177.922Z" fill="#DAD1E9"/>
<path d="M3075.56 740.441L3076.45 738.91L3079.73 740.808L3085.84 730.225L3083.23 728.717L3083.92 727.524C3084.65 727.785 3085.3 727.972 3085.88 728.084C3086.48 728.19 3087.04 728.235 3087.57 728.22L3088.99 729.039L3081.58 741.874L3084.55 743.59L3083.67 745.121L3075.56 740.441Z" fill="#DAD1E9"/>
<path d="M3443.03 519.873L3443.91 518.342L3447.2 520.24L3453.31 509.657L3450.7 508.149L3451.39 506.956C3452.12 507.217 3452.77 507.404 3453.35 507.516C3453.95 507.622 3454.51 507.667 3455.04 507.653L3456.46 508.472L3449.05 521.306L3452.02 523.022L3451.14 524.553L3443.03 519.873Z" fill="#DAD1E9"/>
<path d="M1409.06 935.544L1409.95 934.013L1413.24 935.911L1419.35 925.328L1416.73 923.82L1417.42 922.626C1418.15 922.888 1418.81 923.074 1419.38 923.186C1419.98 923.292 1420.54 923.338 1421.07 923.323L1422.49 924.142L1415.08 936.977L1418.05 938.693L1417.17 940.224L1409.06 935.544Z" fill="#DAD1E9"/>
<path d="M2745.45 938.252L2746.05 936.59L2749.62 937.889L2753.8 926.405L2750.96 925.374L2751.43 924.079C2752.2 924.21 2752.87 924.28 2753.46 924.291C2754.07 924.291 2754.63 924.238 2755.15 924.131L2756.69 924.691L2751.62 938.618L2754.85 939.792L2754.24 941.453L2745.45 938.252Z" fill="#DAD1E9"/>
<path d="M3583.97 763.015L3584.58 761.353L3588.15 762.652L3592.33 751.169L3589.49 750.137L3589.96 748.842C3590.73 748.973 3591.4 749.043 3591.99 749.054C3592.6 749.054 3593.16 749.001 3593.68 748.894L3595.22 749.455L3590.15 763.381L3593.37 764.555L3592.77 766.216L3583.97 763.015Z" fill="#DAD1E9"/>
<path d="M3545.27 617.201V615.433H3549.07V603.213H3546.05V601.835C3546.81 601.696 3547.47 601.531 3548.03 601.341C3548.6 601.133 3549.11 600.89 3549.56 600.613H3551.2V615.433H3554.63V617.201H3545.27Z" fill="#DAD1E9"/>
<path d="M3497.61 469.784L3497.76 468.023L3501.54 468.354L3502.61 456.18L3499.61 455.917L3499.73 454.544C3500.5 454.473 3501.17 454.366 3501.74 454.224C3502.32 454.067 3502.86 453.87 3503.33 453.633L3504.96 453.776L3503.67 468.539L3507.09 468.838L3506.93 470.6L3497.61 469.784Z" fill="#DAD1E9"/>
<path d="M1053.36 911.08L1053.52 909.319L1057.3 909.65L1058.36 897.476L1055.36 897.213L1055.48 895.841C1056.25 895.769 1056.92 895.662 1057.49 895.521C1058.08 895.363 1058.61 895.166 1059.08 894.929L1060.71 895.072L1059.42 909.835L1062.84 910.135L1062.69 911.896L1053.36 911.08Z" fill="#DAD1E9"/>
<path d="M2054.36 902.452L2054.52 900.69L2058.3 901.021L2059.36 888.848L2056.36 888.585L2056.48 887.212C2057.25 887.14 2057.92 887.034 2058.49 886.892C2059.08 886.735 2059.61 886.538 2060.08 886.301L2061.72 886.443L2060.42 901.207L2063.84 901.506L2063.69 903.267L2054.36 902.452Z" fill="#DAD1E9"/>
<path d="M2688.23 883.876C2686.77 884.717 2685.27 884.726 2683.71 883.903C2682.16 883.08 2680.68 881.46 2679.28 879.043C2677.89 876.627 2677.23 874.554 2677.32 872.825C2677.4 871.096 2678.17 869.811 2679.62 868.97C2681.06 868.138 2682.55 868.119 2684.09 868.912C2685.63 869.705 2687.1 871.31 2688.49 873.726C2689.89 876.143 2690.55 878.231 2690.49 879.99C2690.42 881.749 2689.67 883.044 2688.23 883.876ZM2687.37 882.39C2687.79 882.148 2688.1 881.818 2688.3 881.403C2688.51 880.963 2688.59 880.434 2688.56 879.815C2688.53 879.172 2688.36 878.436 2688.06 877.608C2687.76 876.764 2687.3 875.817 2686.69 874.766C2686.09 873.716 2685.5 872.854 2684.93 872.181C2684.36 871.509 2683.82 871.014 2683.29 870.696C2682.77 870.354 2682.28 870.17 2681.8 870.144C2681.34 870.11 2680.9 870.214 2680.48 870.456C2680.06 870.699 2679.74 871.033 2679.53 871.457C2679.31 871.882 2679.22 872.408 2679.24 873.036C2679.27 873.64 2679.43 874.356 2679.73 875.184C2680.03 876.013 2680.48 876.953 2681.09 878.003C2682.3 880.105 2683.44 881.489 2684.5 882.155C2685.57 882.797 2686.53 882.876 2687.37 882.39Z" fill="#DAD1E9"/>
<path d="M2498.21 931.19C2496.53 931.19 2495.22 930.444 2494.28 928.954C2493.34 927.463 2492.88 925.322 2492.88 922.532C2492.88 919.741 2493.34 917.618 2494.28 916.162C2495.22 914.706 2496.53 913.978 2498.21 913.978C2499.87 913.978 2501.17 914.706 2502.11 916.162C2503.04 917.618 2503.51 919.741 2503.51 922.532C2503.51 925.322 2503.04 927.463 2502.11 928.954C2501.17 930.444 2499.87 931.19 2498.21 931.19ZM2498.21 929.474C2498.69 929.474 2499.13 929.344 2499.51 929.084C2499.91 928.806 2500.24 928.39 2500.52 927.836C2500.82 927.264 2501.04 926.544 2501.2 925.678C2501.35 924.794 2501.43 923.745 2501.43 922.532C2501.43 921.318 2501.35 920.278 2501.2 919.412C2501.04 918.545 2500.82 917.843 2500.52 917.306C2500.24 916.751 2499.91 916.344 2499.51 916.084C2499.13 915.824 2498.69 915.694 2498.21 915.694C2497.72 915.694 2497.28 915.824 2496.88 916.084C2496.48 916.344 2496.14 916.751 2495.84 917.306C2495.56 917.843 2495.35 918.545 2495.19 919.412C2495.03 920.278 2494.96 921.318 2494.96 922.532C2494.96 924.958 2495.25 926.726 2495.84 927.836C2496.45 928.928 2497.24 929.474 2498.21 929.474Z" fill="#DAD1E9"/>
<path d="M2910.71 799.867C2909.13 799.292 2908.16 798.144 2907.79 796.423C2907.42 794.702 2907.71 792.531 2908.67 789.908C2909.62 787.286 2910.79 785.451 2912.16 784.403C2913.54 783.355 2915.02 783.118 2916.6 783.693C2918.16 784.262 2919.14 785.391 2919.52 787.079C2919.9 788.768 2919.61 790.923 2918.66 793.545C2917.7 796.168 2916.53 798.019 2915.14 799.1C2913.75 800.18 2912.28 800.436 2910.71 799.867ZM2911.3 798.255C2911.76 798.421 2912.21 798.447 2912.66 798.333C2913.12 798.208 2913.58 797.933 2914.03 797.507C2914.51 797.07 2914.97 796.471 2915.41 795.71C2915.86 794.933 2916.29 793.974 2916.7 792.834C2917.12 791.694 2917.4 790.69 2917.55 789.822C2917.7 788.954 2917.73 788.217 2917.64 787.612C2917.57 786.996 2917.39 786.497 2917.1 786.117C2916.83 785.742 2916.47 785.472 2916.01 785.306C2915.56 785.14 2915.1 785.111 2914.63 785.219C2914.17 785.326 2913.71 785.591 2913.24 786.011C2912.79 786.421 2912.35 787.007 2911.91 787.768C2911.46 788.529 2911.04 789.479 2910.62 790.62C2909.79 792.9 2909.46 794.662 2909.64 795.906C2909.83 797.14 2910.39 797.923 2911.3 798.255Z" fill="#DAD1E9"/>
<path d="M3734.62 120.939C3733.04 120.364 3732.06 119.216 3731.69 117.496C3731.32 115.775 3731.62 113.603 3732.57 110.981C3733.52 108.358 3734.69 106.523 3736.07 105.475C3737.45 104.427 3738.92 104.19 3740.5 104.765C3742.07 105.335 3743.04 106.463 3743.42 108.152C3743.8 109.84 3743.52 111.995 3742.56 114.618C3741.61 117.24 3740.44 119.092 3739.05 120.172C3737.66 121.253 3736.18 121.509 3734.62 120.939ZM3735.2 119.327C3735.66 119.493 3736.11 119.519 3736.56 119.405C3737.03 119.281 3737.49 119.005 3737.94 118.579C3738.41 118.142 3738.87 117.544 3739.31 116.782C3739.76 116.005 3740.19 115.046 3740.61 113.906C3741.02 112.766 3741.31 111.762 3741.46 110.894C3741.6 110.027 3741.63 109.29 3741.54 108.684C3741.47 108.068 3741.29 107.57 3741.01 107.189C3740.74 106.814 3740.37 106.544 3739.92 106.378C3739.46 106.212 3739 106.183 3738.54 106.291C3738.07 106.399 3737.61 106.663 3737.14 107.084C3736.7 107.494 3736.25 108.079 3735.81 108.84C3735.37 109.601 3734.94 110.552 3734.52 111.692C3733.69 113.972 3733.37 115.734 3733.54 116.978C3733.74 118.212 3734.29 118.995 3735.2 119.327Z" fill="#DAD1E9"/>
<path d="M2833.9 925.398C2832.45 924.557 2831.69 923.257 2831.62 921.498C2831.55 919.739 2832.22 917.652 2833.61 915.235C2835.01 912.818 2836.48 911.213 2838.02 910.42C2839.55 909.627 2841.05 909.651 2842.51 910.492C2843.95 911.324 2844.71 912.604 2844.79 914.333C2844.88 916.062 2844.22 918.135 2842.82 920.552C2841.43 922.969 2839.95 924.588 2838.4 925.411C2836.84 926.234 2835.34 926.23 2833.9 925.398ZM2834.76 923.912C2835.18 924.154 2835.62 924.258 2836.08 924.224C2836.56 924.183 2837.07 923.992 2837.58 923.65C2838.12 923.302 2838.68 922.792 2839.25 922.119C2839.82 921.432 2840.42 920.562 2841.02 919.512C2841.63 918.461 2842.08 917.521 2842.38 916.693C2842.68 915.864 2842.83 915.144 2842.85 914.531C2842.88 913.912 2842.8 913.39 2842.58 912.966C2842.38 912.55 2842.07 912.22 2841.65 911.978C2841.23 911.735 2840.78 911.627 2840.31 911.653C2839.83 911.678 2839.33 911.858 2838.79 912.191C2838.29 912.518 2837.75 913.017 2837.18 913.69C2836.61 914.362 2836.02 915.224 2835.42 916.275C2834.2 918.376 2833.57 920.055 2833.53 921.31C2833.51 922.559 2833.92 923.426 2834.76 923.912Z" fill="#DAD1E9"/>
<path d="M3516.8 399.688C3515.34 398.848 3514.58 397.548 3514.52 395.789C3514.45 394.03 3515.12 391.942 3516.51 389.525C3517.91 387.108 3519.37 385.503 3520.91 384.711C3522.45 383.918 3523.95 383.941 3525.4 384.782C3526.84 385.614 3527.61 386.895 3527.69 388.624C3527.77 390.352 3527.12 392.425 3525.72 394.842C3524.32 397.259 3522.85 398.879 3521.29 399.702C3519.74 400.525 3518.24 400.52 3516.8 399.688ZM3517.66 398.202C3518.08 398.445 3518.52 398.549 3518.98 398.514C3519.46 398.473 3519.96 398.282 3520.48 397.941C3521.02 397.592 3521.57 397.082 3522.14 396.41C3522.72 395.722 3523.31 394.853 3523.92 393.802C3524.53 392.751 3524.98 391.812 3525.28 390.983C3525.57 390.155 3525.73 389.434 3525.74 388.821C3525.78 388.202 3525.69 387.68 3525.48 387.256C3525.28 386.84 3524.97 386.511 3524.55 386.268C3524.13 386.026 3523.68 385.917 3523.2 385.943C3522.73 385.969 3522.22 386.148 3521.69 386.481C3521.18 386.808 3520.64 387.308 3520.07 387.98C3519.51 388.653 3518.92 389.514 3518.31 390.565C3517.1 392.667 3516.47 394.345 3516.43 395.601C3516.4 396.85 3516.81 397.717 3517.66 398.202Z" fill="#DAD1E9"/>
<path d="M3797.41 90.6625C3795.95 89.8219 3795.19 88.5221 3795.12 86.7631C3795.06 85.0041 3795.72 82.9163 3797.12 80.4995C3798.51 78.0827 3799.98 76.4778 3801.52 75.6849C3803.06 74.892 3804.56 74.9158 3806.01 75.7565C3807.45 76.5885 3808.22 77.869 3808.3 79.5979C3808.38 81.3268 3807.72 83.3997 3806.33 85.8165C3804.93 88.2333 3803.46 89.8531 3801.9 90.6761C3800.35 91.4991 3798.85 91.4945 3797.41 90.6625ZM3798.26 89.1764C3798.68 89.4191 3799.12 89.5232 3799.59 89.4887C3800.07 89.4478 3800.57 89.2566 3801.09 88.9149C3801.63 88.5668 3802.18 88.0566 3802.75 87.384C3803.33 86.6964 3803.92 85.8273 3804.53 84.7765C3805.13 83.7257 3805.59 82.786 3805.88 81.9575C3806.18 81.1289 3806.34 80.4083 3806.35 79.7956C3806.39 79.1766 3806.3 78.6549 3806.09 78.2304C3805.88 77.8145 3805.57 77.4853 3805.15 77.2426C3804.73 76.9999 3804.29 76.8915 3803.81 76.9174C3803.34 76.9432 3802.83 77.1226 3802.3 77.4556C3801.79 77.7823 3801.25 78.2819 3800.68 78.9545C3800.11 79.627 3799.53 80.4887 3798.92 81.5395C3797.71 83.641 3797.08 85.3195 3797.03 86.5749C3797.01 87.8239 3797.42 88.6911 3798.26 89.1764Z" fill="#DAD1E9"/>
<path d="M3146.88 675.479C3145.3 674.904 3144.33 673.756 3143.96 672.035C3143.59 670.314 3143.88 668.142 3144.83 665.52C3145.79 662.898 3146.95 661.062 3148.33 660.014C3149.71 658.966 3151.19 658.73 3152.77 659.305C3154.33 659.874 3155.3 661.003 3155.69 662.691C3156.07 664.379 3155.78 666.535 3154.83 669.157C3153.87 671.779 3152.7 673.631 3151.31 674.712C3149.92 675.792 3148.44 676.048 3146.88 675.479ZM3147.47 673.866C3147.92 674.032 3148.38 674.058 3148.82 673.944C3149.29 673.82 3149.75 673.545 3150.2 673.119C3150.67 672.682 3151.13 672.083 3151.58 671.322C3152.02 670.545 3152.46 669.586 3152.87 668.446C3153.29 667.306 3153.57 666.302 3153.72 665.434C3153.87 664.566 3153.9 663.829 3153.8 663.224C3153.73 662.608 3153.55 662.109 3153.27 661.728C3153 661.354 3152.64 661.083 3152.18 660.917C3151.72 660.751 3151.26 660.722 3150.8 660.83C3150.34 660.938 3149.87 661.203 3149.41 661.623C3148.96 662.033 3148.52 662.619 3148.07 663.38C3147.63 664.141 3147.2 665.091 3146.79 666.231C3145.96 668.512 3145.63 670.274 3145.8 671.518C3146 672.752 3146.56 673.534 3147.47 673.866Z" fill="#DAD1E9"/>
<path d="M3674.52 339.581C3672.94 339.005 3671.96 337.858 3671.59 336.137C3671.22 334.416 3671.51 332.244 3672.47 329.622C3673.42 326.999 3674.59 325.164 3675.97 324.116C3677.34 323.068 3678.82 322.832 3680.4 323.407C3681.97 323.976 3682.94 325.104 3683.32 326.793C3683.7 328.481 3683.42 330.636 3682.46 333.259C3681.51 335.881 3680.33 337.733 3678.95 338.813C3677.56 339.894 3676.08 340.15 3674.52 339.581ZM3675.1 337.968C3675.56 338.134 3676.01 338.16 3676.46 338.046C3676.93 337.922 3677.39 337.647 3677.84 337.22C3678.31 336.784 3678.77 336.185 3679.21 335.424C3679.66 334.646 3680.09 333.688 3680.51 332.547C3680.92 331.407 3681.2 330.403 3681.35 329.535C3681.5 328.668 3681.53 327.931 3681.44 327.325C3681.37 326.709 3681.19 326.211 3680.9 325.83C3680.63 325.455 3680.27 325.185 3679.82 325.019C3679.36 324.853 3678.9 324.824 3678.44 324.932C3677.97 325.04 3677.51 325.304 3677.04 325.725C3676.6 326.135 3676.15 326.72 3675.71 327.481C3675.27 328.242 3674.84 329.193 3674.42 330.333C3673.59 332.613 3673.27 334.376 3673.44 335.62C3673.64 336.853 3674.19 337.636 3675.1 337.968Z" fill="#DAD1E9"/>
<path d="M2461.27 872.248C2459.69 871.673 2458.72 870.525 2458.35 868.804C2457.98 867.083 2458.27 864.912 2459.22 862.289C2460.18 859.667 2461.34 857.832 2462.72 856.784C2464.1 855.736 2465.58 855.499 2467.16 856.074C2468.72 856.643 2469.69 857.772 2470.08 859.46C2470.46 861.149 2470.17 863.304 2469.22 865.926C2468.26 868.549 2467.09 870.4 2465.7 871.481C2464.31 872.562 2462.83 872.817 2461.27 872.248ZM2461.86 870.636C2462.31 870.802 2462.77 870.828 2463.21 870.714C2463.68 870.59 2464.14 870.314 2464.59 869.888C2465.06 869.451 2465.52 868.852 2465.97 868.091C2466.41 867.314 2466.85 866.355 2467.26 865.215C2467.68 864.075 2467.96 863.071 2468.11 862.203C2468.26 861.335 2468.29 860.599 2468.19 859.993C2468.12 859.377 2467.94 858.879 2467.66 858.498C2467.39 858.123 2467.03 857.853 2466.57 857.687C2466.11 857.521 2465.65 857.492 2465.19 857.6C2464.73 857.708 2464.26 857.972 2463.8 858.392C2463.35 858.802 2462.91 859.388 2462.47 860.149C2462.02 860.91 2461.59 861.861 2461.18 863.001C2460.35 865.281 2460.02 867.043 2460.19 868.287C2460.39 869.521 2460.95 870.304 2461.86 870.636Z" fill="#DAD1E9"/>
<path d="M3036.65 793.748C3034.97 793.748 3033.66 793.003 3032.72 791.512C3031.79 790.021 3031.32 787.881 3031.32 785.09C3031.32 782.299 3031.79 780.176 3032.72 778.72C3033.66 777.264 3034.97 776.536 3036.65 776.536C3038.31 776.536 3039.61 777.264 3040.55 778.72C3041.48 780.176 3041.95 782.299 3041.95 785.09C3041.95 787.881 3041.48 790.021 3040.55 791.512C3039.61 793.003 3038.31 793.748 3036.65 793.748ZM3036.65 792.032C3037.13 792.032 3037.57 791.902 3037.95 791.642C3038.35 791.365 3038.69 790.949 3038.96 790.394C3039.26 789.822 3039.48 789.103 3039.64 788.236C3039.79 787.352 3039.87 786.303 3039.87 785.09C3039.87 783.877 3039.79 782.837 3039.64 781.97C3039.48 781.103 3039.26 780.401 3038.96 779.864C3038.69 779.309 3038.35 778.902 3037.95 778.642C3037.57 778.382 3037.13 778.252 3036.65 778.252C3036.16 778.252 3035.72 778.382 3035.32 778.642C3034.92 778.902 3034.58 779.309 3034.28 779.864C3034.01 780.401 3033.79 781.103 3033.63 781.97C3033.48 782.837 3033.4 783.877 3033.4 785.09C3033.4 787.517 3033.69 789.285 3034.28 790.394C3034.89 791.486 3035.68 792.032 3036.65 792.032Z" fill="#DAD1E9"/>
<path d="M3821.31 13.312C3819.63 13.312 3818.32 12.5667 3817.39 11.076C3816.45 9.58533 3815.98 7.44467 3815.98 4.654C3815.98 1.86333 3816.45 -0.260001 3817.39 -1.716C3818.32 -3.172 3819.63 -3.9 3821.31 -3.9C3822.98 -3.9 3824.28 -3.172 3825.21 -1.716C3826.15 -0.260001 3826.62 1.86333 3826.62 4.654C3826.62 7.44467 3826.15 9.58533 3825.21 11.076C3824.28 12.5667 3822.98 13.312 3821.31 13.312ZM3821.31 11.596C3821.8 11.596 3822.23 11.466 3822.61 11.206C3823.01 10.9287 3823.35 10.5127 3823.63 9.958C3823.92 9.386 3824.15 8.66667 3824.3 7.8C3824.46 6.916 3824.54 5.86733 3824.54 4.654C3824.54 3.44067 3824.46 2.40067 3824.3 1.534C3824.15 0.667333 3823.92 -0.0346673 3823.63 -0.572C3823.35 -1.12667 3823.01 -1.534 3822.61 -1.794C3822.23 -2.054 3821.8 -2.184 3821.31 -2.184C3820.83 -2.184 3820.39 -2.054 3819.99 -1.794C3819.59 -1.534 3819.24 -1.12667 3818.95 -0.572C3818.67 -0.0346673 3818.45 0.667333 3818.3 1.534C3818.14 2.40067 3818.06 3.44067 3818.06 4.654C3818.06 7.08067 3818.36 8.84867 3818.95 9.958C3819.55 11.05 3820.34 11.596 3821.31 11.596Z" fill="#DAD1E9"/>
<path d="M3422.76 704.206C3421.31 705.047 3419.8 705.056 3418.25 704.233C3416.69 703.41 3415.22 701.79 3413.82 699.373C3412.42 696.957 3411.77 694.884 3411.85 693.155C3411.93 691.426 3412.7 690.141 3414.16 689.3C3415.6 688.468 3417.09 688.449 3418.63 689.242C3420.17 690.035 3421.63 691.64 3423.03 694.056C3424.42 696.473 3425.09 698.561 3425.02 700.32C3424.96 702.079 3424.21 703.374 3422.76 704.206ZM3421.91 702.72C3422.33 702.478 3422.64 702.148 3422.84 701.733C3423.04 701.293 3423.13 700.764 3423.09 700.145C3423.06 699.502 3422.9 698.766 3422.6 697.938C3422.29 697.094 3421.83 696.147 3421.23 695.096C3420.62 694.046 3420.03 693.184 3419.47 692.511C3418.9 691.839 3418.35 691.344 3417.83 691.026C3417.31 690.684 3416.81 690.5 3416.34 690.474C3415.88 690.44 3415.44 690.544 3415.02 690.787C3414.6 691.029 3414.28 691.363 3414.06 691.787C3413.85 692.212 3413.75 692.738 3413.77 693.366C3413.8 693.97 3413.97 694.686 3414.26 695.514C3414.56 696.343 3415.01 697.283 3415.62 698.333C3416.83 700.435 3417.97 701.819 3419.04 702.485C3420.11 703.127 3421.07 703.206 3421.91 702.72Z" fill="#DAD1E9"/>
<path d="M3480.02 631.536C3478.57 632.376 3477.06 632.385 3475.51 631.562C3473.95 630.739 3472.47 629.119 3471.08 626.703C3469.68 624.286 3469.03 622.213 3469.11 620.484C3469.19 618.755 3469.96 617.47 3471.42 616.63C3472.86 615.798 3474.35 615.778 3475.89 616.571C3477.43 617.364 3478.89 618.969 3480.29 621.386C3481.68 623.802 3482.35 625.89 3482.28 627.649C3482.22 629.408 3481.46 630.704 3480.02 631.536ZM3479.17 630.049C3479.59 629.807 3479.9 629.478 3480.1 629.062C3480.3 628.622 3480.39 628.093 3480.35 627.474C3480.32 626.831 3480.16 626.096 3479.86 625.267C3479.55 624.423 3479.09 623.476 3478.49 622.426C3477.88 621.375 3477.29 620.513 3476.72 619.841C3476.16 619.168 3475.61 618.673 3475.09 618.355C3474.57 618.013 3474.07 617.829 3473.6 617.803C3473.14 617.769 3472.7 617.873 3472.28 618.116C3471.86 618.358 3471.54 618.692 3471.32 619.116C3471.11 619.541 3471.01 620.067 3471.03 620.695C3471.06 621.299 3471.22 622.015 3471.52 622.844C3471.82 623.672 3472.27 624.612 3472.88 625.663C3474.09 627.764 3475.23 629.148 3476.3 629.814C3477.37 630.456 3478.33 630.535 3479.17 630.049Z" fill="#DAD1E9"/>
<path d="M3598.19 674.832C3596.52 675.008 3595.14 674.403 3594.05 673.018C3592.97 671.634 3592.28 669.554 3591.99 666.778C3591.69 664.003 3591.94 661.842 3592.72 660.297C3593.5 658.751 3594.72 657.89 3596.39 657.714C3598.05 657.54 3599.42 658.128 3600.5 659.479C3601.58 660.829 3602.27 662.891 3602.56 665.667C3602.85 668.442 3602.61 670.62 3601.84 672.2C3601.06 673.781 3599.85 674.658 3598.19 674.832ZM3598.01 673.125C3598.5 673.075 3598.91 672.9 3599.26 672.601C3599.63 672.284 3599.92 671.835 3600.14 671.254C3600.38 670.655 3600.52 669.916 3600.59 669.037C3600.65 668.142 3600.62 667.091 3600.49 665.884C3600.37 664.678 3600.18 663.651 3599.93 662.806C3599.69 661.96 3599.39 661.286 3599.04 660.782C3598.71 660.259 3598.33 659.89 3597.91 659.673C3597.5 659.454 3597.05 659.37 3596.57 659.421C3596.09 659.471 3595.66 659.647 3595.29 659.947C3594.92 660.247 3594.62 660.689 3594.39 661.271C3594.17 661.835 3594.03 662.555 3593.96 663.434C3593.9 664.312 3593.93 665.354 3594.05 666.561C3594.31 668.974 3594.79 670.702 3595.49 671.744C3596.21 672.766 3597.05 673.227 3598.01 673.125Z" fill="#DAD1E9"/>
<path d="M3343.14 671.974C3341.56 671.399 3340.59 670.251 3340.22 668.531C3339.85 666.81 3340.14 664.638 3341.1 662.016C3342.05 659.393 3343.22 657.558 3344.6 656.51C3345.97 655.462 3347.45 655.225 3349.03 655.8C3350.6 656.37 3351.57 657.498 3351.95 659.187C3352.33 660.875 3352.04 663.03 3351.09 665.653C3350.14 668.275 3348.96 670.127 3347.57 671.207C3346.19 672.288 3344.71 672.544 3343.14 671.974ZM3343.73 670.362C3344.19 670.528 3344.64 670.554 3345.09 670.44C3345.56 670.316 3346.02 670.041 3346.47 669.614C3346.94 669.177 3347.4 668.579 3347.84 667.818C3348.29 667.04 3348.72 666.081 3349.14 664.941C3349.55 663.801 3349.83 662.797 3349.98 661.929C3350.13 661.062 3350.16 660.325 3350.07 659.719C3350 659.103 3349.82 658.605 3349.53 658.224C3349.26 657.849 3348.9 657.579 3348.44 657.413C3347.99 657.247 3347.53 657.218 3347.07 657.326C3346.6 657.434 3346.14 657.698 3345.67 658.119C3345.23 658.529 3344.78 659.114 3344.34 659.875C3343.9 660.636 3343.47 661.587 3343.05 662.727C3342.22 665.007 3341.89 666.77 3342.07 668.014C3342.27 669.247 3342.82 670.03 3343.73 670.362Z" fill="#DAD1E9"/>
<path d="M3588.02 696.738C3586.44 696.163 3585.47 695.015 3585.1 693.294C3584.73 691.573 3585.02 689.401 3585.97 686.779C3586.93 684.156 3588.09 682.321 3589.47 681.273C3590.85 680.225 3592.33 679.989 3593.91 680.564C3595.47 681.133 3596.44 682.262 3596.83 683.95C3597.21 685.638 3596.92 687.793 3595.97 690.416C3595.01 693.038 3593.84 694.89 3592.45 695.97C3591.06 697.051 3589.58 697.307 3588.02 696.738ZM3588.61 695.125C3589.06 695.291 3589.52 695.317 3589.96 695.203C3590.43 695.079 3590.89 694.804 3591.34 694.377C3591.81 693.941 3592.27 693.342 3592.72 692.581C3593.16 691.803 3593.6 690.845 3594.01 689.704C3594.43 688.564 3594.71 687.56 3594.86 686.693C3595.01 685.825 3595.04 685.088 3594.94 684.482C3594.87 683.866 3594.69 683.368 3594.41 682.987C3594.14 682.613 3593.78 682.342 3593.32 682.176C3592.86 682.01 3592.4 681.981 3591.94 682.089C3591.48 682.197 3591.01 682.461 3590.55 682.882C3590.1 683.292 3589.66 683.877 3589.22 684.638C3588.77 685.399 3588.34 686.35 3587.93 687.49C3587.1 689.771 3586.77 691.533 3586.94 692.777C3587.14 694.01 3587.7 694.793 3588.61 695.125Z" fill="#DAD1E9"/>
<path d="M3251.85 698.594C3250.2 698.886 3248.78 698.379 3247.6 697.073C3246.42 695.768 3245.59 693.741 3245.1 690.993C3244.62 688.244 3244.71 686.072 3245.38 684.476C3246.05 682.879 3247.21 681.935 3248.87 681.643C3250.5 681.354 3251.91 681.845 3253.09 683.117C3254.26 684.388 3255.09 686.398 3255.57 689.146C3256.06 691.894 3255.97 694.084 3255.31 695.714C3254.64 697.345 3253.49 698.305 3251.85 698.594ZM3251.56 696.904C3252.03 696.819 3252.44 696.616 3252.77 696.294C3253.11 695.952 3253.37 695.483 3253.55 694.889C3253.74 694.274 3253.84 693.527 3253.84 692.646C3253.84 691.748 3253.74 690.702 3253.53 689.507C3253.32 688.312 3253.06 687.302 3252.75 686.475C3252.45 685.649 3252.11 684.997 3251.72 684.519C3251.35 684.021 3250.95 683.678 3250.51 683.491C3250.09 683.302 3249.64 683.249 3249.16 683.333C3248.69 683.417 3248.27 683.622 3247.93 683.947C3247.58 684.273 3247.31 684.734 3247.11 685.331C3246.93 685.909 3246.84 686.638 3246.84 687.518C3246.84 688.399 3246.94 689.437 3247.15 690.631C3247.57 693.021 3248.17 694.711 3248.94 695.701C3249.73 696.671 3250.6 697.072 3251.56 696.904Z" fill="#DAD1E9"/>
<path d="M3486.22 583.168C3484.57 583.46 3483.15 582.953 3481.97 581.647C3480.79 580.342 3479.96 578.315 3479.47 575.567C3478.99 572.819 3479.08 570.646 3479.75 569.05C3480.42 567.453 3481.58 566.509 3483.24 566.217C3484.87 565.928 3486.28 566.419 3487.46 567.691C3488.63 568.962 3489.46 570.972 3489.94 573.72C3490.43 576.468 3490.34 578.658 3489.68 580.288C3489.01 581.919 3487.86 582.879 3486.22 583.168ZM3485.93 581.478C3486.4 581.393 3486.81 581.19 3487.14 580.868C3487.48 580.526 3487.74 580.057 3487.92 579.463C3488.11 578.848 3488.21 578.101 3488.21 577.22C3488.21 576.323 3488.11 575.276 3487.9 574.081C3487.69 572.886 3487.43 571.876 3487.12 571.049C3486.82 570.223 3486.48 569.571 3486.09 569.093C3485.72 568.595 3485.32 568.252 3484.88 568.065C3484.46 567.876 3484.01 567.823 3483.53 567.907C3483.06 567.991 3482.64 568.196 3482.3 568.521C3481.95 568.847 3481.68 569.308 3481.48 569.905C3481.3 570.483 3481.21 571.212 3481.21 572.092C3481.21 572.973 3481.31 574.011 3481.52 575.206C3481.94 577.595 3482.54 579.285 3483.31 580.276C3484.1 581.246 3484.97 581.646 3485.93 581.478Z" fill="#DAD1E9"/>
<path d="M2610.82 942.82C2609.24 943.395 2607.76 943.143 2606.37 942.062C2604.98 940.981 2603.81 939.13 2602.85 936.508C2601.9 933.885 2601.61 931.73 2601.99 930.041C2602.38 928.353 2603.36 927.221 2604.94 926.646C2606.5 926.077 2607.97 926.317 2609.35 927.365C2610.73 928.413 2611.89 930.248 2612.85 932.87C2613.8 935.493 2614.09 937.664 2613.72 939.385C2613.35 941.106 2612.39 942.251 2610.82 942.82ZM2610.24 941.208C2610.69 941.042 2611.05 940.772 2611.32 940.397C2611.6 940 2611.78 939.493 2611.85 938.877C2611.93 938.239 2611.9 937.486 2611.75 936.618C2611.59 935.734 2611.31 934.722 2610.89 933.582C2610.48 932.442 2610.05 931.491 2609.6 930.73C2609.16 929.969 2608.71 929.386 2608.25 928.982C2607.8 928.556 2607.34 928.289 2606.88 928.181C2606.43 928.067 2605.98 928.093 2605.52 928.259C2605.07 928.425 2604.7 928.698 2604.41 929.079C2604.12 929.46 2603.94 929.961 2603.85 930.583C2603.77 931.183 2603.81 931.916 2603.96 932.784C2604.11 933.652 2604.39 934.656 2604.81 935.796C2605.64 938.076 2606.52 939.637 2607.45 940.478C2608.4 941.297 2609.32 941.54 2610.24 941.208Z" fill="#DAD1E9"/>
<path d="M3553.45 522.253C3551.87 522.828 3550.38 522.575 3548.99 521.495C3547.6 520.414 3546.43 518.562 3545.48 515.94C3544.52 513.318 3544.24 511.162 3544.62 509.474C3545 507.786 3545.98 506.654 3547.56 506.079C3549.12 505.51 3550.6 505.749 3551.97 506.797C3553.35 507.845 3554.52 509.681 3555.47 512.303C3556.43 514.925 3556.72 517.097 3556.35 518.818C3555.98 520.539 3555.01 521.684 3553.45 522.253ZM3552.86 520.64C3553.32 520.474 3553.68 520.204 3553.95 519.829C3554.23 519.432 3554.4 518.926 3554.48 518.31C3554.56 517.671 3554.52 516.918 3554.37 516.051C3554.22 515.167 3553.93 514.155 3553.52 513.014C3553.1 511.874 3552.67 510.924 3552.23 510.163C3551.79 509.402 3551.33 508.819 3550.87 508.415C3550.42 507.988 3549.97 507.721 3549.5 507.613C3549.06 507.499 3548.6 507.525 3548.15 507.691C3547.69 507.857 3547.32 508.131 3547.04 508.511C3546.75 508.892 3546.56 509.393 3546.48 510.015C3546.4 510.615 3546.44 511.349 3546.59 512.217C3546.74 513.084 3547.02 514.088 3547.43 515.229C3548.26 517.509 3549.14 519.07 3550.08 519.91C3551.02 520.729 3551.95 520.972 3552.86 520.64Z" fill="#DAD1E9"/>
<path d="M2593.48 885.767L2592.34 884.413L2595.25 881.973L2587.4 872.612L2585.09 874.55L2584.2 873.495C2584.69 872.898 2585.09 872.349 2585.4 871.846C2585.7 871.319 2585.94 870.805 2586.1 870.302L2587.36 869.25L2596.88 880.602L2599.51 878.396L2600.65 879.751L2593.48 885.767Z" fill="#DAD1E9"/>
<path d="M3652.29 275.256L3651.15 273.902L3654.06 271.462L3646.21 262.101L3643.9 264.039L3643.01 262.984C3643.5 262.387 3643.9 261.838 3644.21 261.335C3644.51 260.808 3644.75 260.293 3644.91 259.791L3646.17 258.738L3655.69 270.091L3658.32 267.885L3659.46 269.24L3652.29 275.256Z" fill="#DAD1E9"/>
<path d="M2721.4 847.598L2720.51 846.067L2723.8 844.169L2717.69 833.586L2715.08 835.094L2714.39 833.901C2714.98 833.399 2715.47 832.927 2715.86 832.485C2716.25 832.019 2716.57 831.553 2716.82 831.087L2718.24 830.268L2725.65 843.103L2728.62 841.387L2729.5 842.918L2721.4 847.598Z" fill="#DAD1E9"/>
<path d="M2761.04 809.65L2759.38 809.046L2760.68 805.478L2749.19 801.299L2748.16 804.133L2746.87 803.662C2747 802.898 2747.07 802.222 2747.08 801.636C2747.08 801.027 2747.03 800.464 2746.92 799.946L2747.48 798.406L2761.41 803.475L2762.58 800.25L2764.24 800.855L2761.04 809.65Z" fill="#DAD1E9"/>
<path d="M3279.02 633.277L3279.63 631.616L3283.19 632.914L3287.37 621.431L3284.54 620.399L3285.01 619.104C3285.77 619.235 3286.45 619.306 3287.03 619.316C3287.64 619.316 3288.21 619.263 3288.73 619.157L3290.26 619.717L3285.2 633.643L3288.42 634.817L3287.82 636.478L3279.02 633.277Z" fill="#DAD1E9"/>
<path d="M3535.13 431.62L3535.73 429.959L3539.3 431.257L3543.48 419.774L3540.64 418.742L3541.12 417.448C3541.88 417.578 3542.56 417.649 3543.14 417.659C3543.75 417.659 3544.31 417.606 3544.83 417.5L3546.37 418.06L3541.3 431.986L3544.53 433.16L3543.92 434.821L3535.13 431.62Z" fill="#DAD1E9"/>
<path d="M2321.88 934.288L2322.49 932.626L2326.05 933.925L2330.23 922.442L2327.4 921.41L2327.87 920.115C2328.64 920.246 2329.31 920.316 2329.9 920.327C2330.51 920.327 2331.07 920.274 2331.59 920.167L2333.13 920.728L2328.06 934.654L2331.28 935.828L2330.68 937.489L2321.88 934.288Z" fill="#DAD1E9"/>
<path d="M2550.79 924.775L2551.1 923.034L2554.84 923.693L2556.96 911.659L2553.99 911.135L2554.23 909.778C2555 909.774 2555.68 909.726 2556.26 909.635C2556.86 909.529 2557.4 909.379 2557.9 909.184L2559.51 909.469L2556.94 924.064L2560.32 924.66L2560.01 926.401L2550.79 924.775Z" fill="#DAD1E9"/>
<path d="M3716.15 646.593L3716.46 644.852L3720.2 645.511L3722.32 633.477L3719.35 632.953L3719.59 631.596C3720.36 631.592 3721.04 631.544 3721.62 631.453C3722.22 631.347 3722.76 631.197 3723.26 631.002L3724.87 631.287L3722.3 645.882L3725.68 646.478L3725.37 648.219L3716.15 646.593Z" fill="#DAD1E9"/>
<path d="M3632.72 509.715L3632.41 507.974L3636.15 507.315L3634.02 495.28L3631.05 495.804L3630.82 494.447C3631.54 494.178 3632.16 493.901 3632.68 493.617C3633.2 493.313 3633.66 492.985 3634.06 492.634L3635.67 492.35L3638.25 506.944L3641.63 506.348L3641.93 508.09L3632.72 509.715Z" fill="#DAD1E9"/>
<path d="M1895.5 926.573L1895.19 924.831L1898.93 924.172L1896.81 912.138L1893.84 912.662L1893.6 911.305C1894.33 911.036 1894.95 910.759 1895.46 910.475C1895.99 910.171 1896.45 909.843 1896.85 909.492L1898.46 909.207L1901.03 923.802L1904.41 923.206L1904.72 924.947L1895.5 926.573Z" fill="#DAD1E9"/>
<path d="M3580.18 372.814L3580.02 371.053L3583.81 370.722L3582.74 358.549L3579.74 358.812L3579.62 357.439C3580.36 357.234 3581.01 357.013 3581.54 356.774C3582.09 356.517 3582.58 356.231 3583.01 355.916L3584.64 355.773L3585.93 370.536L3589.35 370.237L3589.5 371.999L3580.18 372.814Z" fill="#DAD1E9"/>
<path d="M2366.93 905.482L2366.78 903.721L2370.56 903.39L2369.5 891.216L2366.49 891.479L2366.37 890.107C2367.12 889.902 2367.76 889.68 2368.3 889.442C2368.85 889.185 2369.34 888.899 2369.76 888.583L2371.39 888.441L2372.68 903.204L2376.1 902.905L2376.26 904.666L2366.93 905.482Z" fill="#DAD1E9"/>
<path d="M3219.39 656.912C3218.1 657.993 3216.62 658.263 3214.94 657.723C3213.27 657.183 3211.53 655.844 3209.74 653.706C3207.94 651.568 3206.94 649.641 3206.72 647.924C3206.5 646.207 3207.03 644.808 3208.32 643.727C3209.6 642.657 3211.06 642.379 3212.71 642.893C3214.37 643.407 3216.09 644.733 3217.88 646.87C3219.68 649.008 3220.7 650.949 3220.94 652.692C3221.18 654.436 3220.66 655.843 3219.39 656.912ZM3218.28 655.598C3218.66 655.286 3218.9 654.907 3219.03 654.463C3219.16 653.994 3219.15 653.459 3219 652.855C3218.86 652.228 3218.57 651.532 3218.13 650.768C3217.69 649.99 3217.07 649.137 3216.29 648.207C3215.51 647.278 3214.78 646.531 3214.11 645.968C3213.43 645.404 3212.81 645.011 3212.23 644.789C3211.67 644.542 3211.14 644.448 3210.67 644.505C3210.21 644.551 3209.8 644.73 3209.43 645.041C3209.05 645.353 3208.8 645.737 3208.66 646.193C3208.52 646.648 3208.52 647.183 3208.65 647.797C3208.78 648.387 3209.07 649.064 3209.51 649.828C3209.94 650.592 3210.55 651.439 3211.33 652.369C3212.89 654.228 3214.25 655.393 3215.42 655.864C3216.58 656.31 3217.54 656.222 3218.28 655.598Z" fill="#DAD1E9"/>
<path d="M3789.94 36.4525C3788.28 36.1605 3787.12 35.1993 3786.46 33.5687C3785.79 31.9381 3785.71 29.7487 3786.19 27.0005C3786.67 24.2522 3787.5 22.2424 3788.68 20.971C3789.85 19.6997 3791.27 19.21 3792.92 19.502C3794.56 19.7909 3795.72 20.7336 3796.39 22.33C3797.05 23.9264 3797.15 26.0988 3796.66 28.847C3796.18 31.5953 3795.35 33.6222 3794.16 34.9277C3792.98 36.2332 3791.57 36.7414 3789.94 36.4525ZM3790.23 34.7625C3790.71 34.8468 3791.16 34.794 3791.58 34.6042C3792.02 34.4003 3792.43 34.0493 3792.8 33.5513C3793.19 33.0391 3793.53 32.3698 3793.84 31.5434C3794.14 30.6999 3794.4 29.6808 3794.61 28.4859C3794.82 27.291 3794.93 26.2532 3794.93 25.3726C3794.92 24.492 3794.82 23.7616 3794.63 23.1812C3794.45 22.5868 3794.19 22.127 3793.84 21.8017C3793.51 21.4794 3793.1 21.2762 3792.63 21.1919C3792.15 21.1076 3791.69 21.1589 3791.25 21.3457C3790.82 21.5325 3790.4 21.8735 3790.02 22.3686C3789.65 22.8496 3789.31 23.5033 3789.01 24.3297C3788.71 25.1561 3788.45 26.1668 3788.24 27.3617C3787.82 29.7515 3787.8 31.5438 3788.19 32.7386C3788.6 33.9193 3789.28 34.594 3790.23 34.7625Z" fill="#DAD1E9"/>
<path d="M2635.67 936.757C2634.09 936.182 2633.11 935.034 2632.74 933.313C2632.37 931.592 2632.67 929.421 2633.62 926.798C2634.58 924.176 2635.74 922.341 2637.12 921.293C2638.5 920.245 2639.98 920.008 2641.56 920.583C2643.12 921.152 2644.09 922.281 2644.47 923.969C2644.86 925.658 2644.57 927.813 2643.61 930.435C2642.66 933.058 2641.49 934.909 2640.1 935.99C2638.71 937.071 2637.23 937.326 2635.67 936.757ZM2636.26 935.145C2636.71 935.311 2637.16 935.337 2637.61 935.223C2638.08 935.099 2638.54 934.823 2638.99 934.397C2639.46 933.96 2639.92 933.361 2640.36 932.6C2640.81 931.823 2641.24 930.864 2641.66 929.724C2642.07 928.584 2642.36 927.58 2642.51 926.712C2642.66 925.844 2642.68 925.108 2642.59 924.502C2642.52 923.886 2642.34 923.387 2642.06 923.007C2641.79 922.632 2641.42 922.362 2640.97 922.196C2640.51 922.03 2640.05 922.001 2639.59 922.109C2639.13 922.217 2638.66 922.481 2638.19 922.901C2637.75 923.311 2637.31 923.897 2636.86 924.658C2636.42 925.419 2635.99 926.37 2635.58 927.51C2634.75 929.79 2634.42 931.552 2634.59 932.796C2634.79 934.03 2635.34 934.813 2636.26 935.145Z" fill="#DAD1E9"/>
<path d="M3587.07 323.082C3585.49 322.507 3584.51 321.359 3584.14 319.638C3583.77 317.917 3584.07 315.745 3585.02 313.123C3585.97 310.501 3587.14 308.665 3588.52 307.617C3589.9 306.569 3591.37 306.333 3592.95 306.908C3594.52 307.477 3595.49 308.606 3595.87 310.294C3596.25 311.982 3595.97 314.138 3595.01 316.76C3594.06 319.382 3592.89 321.234 3591.5 322.314C3590.11 323.395 3588.63 323.651 3587.07 323.082ZM3587.65 321.469C3588.11 321.635 3588.56 321.661 3589.01 321.547C3589.48 321.423 3589.94 321.148 3590.39 320.721C3590.86 320.285 3591.32 319.686 3591.76 318.925C3592.21 318.147 3592.64 317.189 3593.06 316.049C3593.47 314.908 3593.76 313.904 3593.91 313.037C3594.06 312.169 3594.08 311.432 3593.99 310.827C3593.92 310.21 3593.74 309.712 3593.46 309.331C3593.19 308.957 3592.82 308.686 3592.37 308.52C3591.91 308.354 3591.45 308.325 3590.99 308.433C3590.52 308.541 3590.06 308.805 3589.59 309.226C3589.15 309.636 3588.7 310.221 3588.26 310.983C3587.82 311.744 3587.39 312.694 3586.97 313.834C3586.14 316.115 3585.82 317.877 3585.99 319.121C3586.19 320.354 3586.74 321.137 3587.65 321.469Z" fill="#DAD1E9"/>
<path d="M3688.24 245.917C3689.82 246.492 3691.31 246.239 3692.7 245.159C3694.09 244.078 3695.26 242.227 3696.21 239.604C3697.17 236.982 3697.46 234.827 3697.07 233.138C3696.69 231.45 3695.71 230.318 3694.13 229.743C3692.57 229.174 3691.1 229.414 3689.72 230.462C3688.34 231.51 3687.18 233.345 3686.22 235.967C3685.27 238.59 3684.97 240.761 3685.34 242.482C3685.71 244.203 3686.68 245.348 3688.24 245.917ZM3688.83 244.305C3688.38 244.139 3688.01 243.868 3687.74 243.494C3687.46 243.097 3687.29 242.59 3687.22 241.974C3687.14 241.336 3687.17 240.583 3687.32 239.715C3687.48 238.831 3687.76 237.819 3688.18 236.679C3688.59 235.539 3689.02 234.588 3689.46 233.827C3689.91 233.066 3690.36 232.483 3690.82 232.079C3691.27 231.653 3691.73 231.386 3692.19 231.278C3692.64 231.164 3693.09 231.19 3693.54 231.356C3694 231.522 3694.37 231.795 3694.66 232.176C3694.94 232.556 3695.13 233.058 3695.22 233.68C3695.29 234.28 3695.26 235.013 3695.11 235.881C3694.96 236.749 3694.67 237.753 3694.26 238.893C3693.43 241.173 3692.55 242.734 3691.61 243.575C3690.67 244.393 3689.74 244.637 3688.83 244.305Z" fill="#DAD1E9"/>
<path d="M3305.94 678.179C3304.28 677.887 3303.12 676.926 3302.46 675.295C3301.8 673.665 3301.71 671.475 3302.19 668.727C3302.68 665.979 3303.51 663.969 3304.68 662.697C3305.86 661.426 3307.27 660.936 3308.93 661.228C3310.57 661.517 3311.72 662.46 3312.39 664.056C3313.06 665.653 3313.15 667.825 3312.66 670.573C3312.18 673.322 3311.35 675.349 3310.17 676.654C3308.99 677.96 3307.58 678.468 3305.94 678.179ZM3306.24 676.489C3306.71 676.573 3307.16 676.52 3307.58 676.331C3308.02 676.127 3308.43 675.776 3308.8 675.278C3309.19 674.766 3309.54 674.096 3309.84 673.27C3310.15 672.426 3310.41 671.407 3310.62 670.212C3310.83 669.017 3310.93 667.98 3310.93 667.099C3310.92 666.218 3310.82 665.488 3310.63 664.908C3310.45 664.313 3310.19 663.853 3309.84 663.528C3309.51 663.206 3309.11 663.003 3308.63 662.918C3308.15 662.834 3307.69 662.885 3307.26 663.072C3306.82 663.259 3306.41 663.6 3306.02 664.095C3305.65 664.576 3305.32 665.23 3305.01 666.056C3304.71 666.883 3304.45 667.893 3304.24 669.088C3303.82 671.478 3303.8 673.27 3304.19 674.465C3304.6 675.646 3305.28 676.32 3306.24 676.489Z" fill="#DAD1E9"/>
<path d="M3690.58 181.473C3688.93 181.181 3687.77 180.22 3687.1 178.589C3686.44 176.958 3686.35 174.769 3686.84 172.021C3687.32 169.272 3688.15 167.263 3689.32 165.991C3690.5 164.72 3691.91 164.23 3693.57 164.522C3695.21 164.811 3696.36 165.754 3697.03 167.35C3697.7 168.947 3697.79 171.119 3697.31 173.867C3696.82 176.616 3695.99 178.642 3694.81 179.948C3693.63 181.253 3692.22 181.762 3690.58 181.473ZM3690.88 179.783C3691.36 179.867 3691.81 179.814 3692.23 179.624C3692.67 179.421 3693.07 179.07 3693.44 178.572C3693.83 178.059 3694.18 177.39 3694.48 176.564C3694.79 175.72 3695.05 174.701 3695.26 173.506C3695.47 172.311 3695.57 171.273 3695.57 170.393C3695.57 169.512 3695.47 168.782 3695.27 168.201C3695.09 167.607 3694.83 167.147 3694.48 166.822C3694.15 166.5 3693.75 166.296 3693.27 166.212C3692.79 166.128 3692.34 166.179 3691.9 166.366C3691.46 166.553 3691.05 166.894 3690.66 167.389C3690.3 167.87 3689.96 168.524 3689.66 169.35C3689.35 170.176 3689.1 171.187 3688.88 172.382C3688.46 174.772 3688.45 176.564 3688.83 177.759C3689.24 178.94 3689.92 179.614 3690.88 179.783Z" fill="#DAD1E9"/>
<path d="M2856.94 859.582C2855.29 859.874 2853.87 859.367 2852.69 858.062C2851.51 856.756 2850.67 854.729 2850.19 851.981C2849.71 849.233 2849.8 847.06 2850.47 845.464C2851.14 843.868 2852.3 842.923 2853.95 842.631C2855.59 842.342 2857 842.834 2858.17 844.105C2859.35 845.376 2860.18 847.386 2860.66 850.134C2861.15 852.883 2861.06 855.072 2860.4 856.703C2859.73 858.333 2858.58 859.293 2856.94 859.582ZM2856.64 857.892C2857.12 857.808 2857.53 857.604 2857.86 857.282C2858.2 856.94 2858.46 856.471 2858.64 855.877C2858.83 855.263 2858.93 854.515 2858.93 853.634C2858.93 852.737 2858.82 851.69 2858.61 850.496C2858.4 849.301 2858.15 848.29 2857.84 847.464C2857.54 846.637 2857.19 845.985 2856.81 845.507C2856.44 845.009 2856.04 844.666 2855.6 844.48C2855.18 844.29 2854.73 844.237 2854.25 844.321C2853.77 844.406 2853.36 844.61 2853.01 844.936C2852.67 845.261 2852.4 845.722 2852.2 846.32C2852.02 846.897 2851.93 847.626 2851.93 848.507C2851.92 849.387 2852.03 850.425 2852.24 851.62C2852.66 854.01 2853.26 855.7 2854.03 856.69C2854.82 857.66 2855.69 858.061 2856.64 857.892Z" fill="#DAD1E9"/>
<path d="M3675.1 302.914C3673.44 303.206 3672.02 302.699 3670.84 301.394C3669.66 300.089 3668.83 298.062 3668.34 295.313C3667.86 292.565 3667.95 290.393 3668.62 288.796C3669.29 287.2 3670.45 286.256 3672.11 285.964C3673.75 285.675 3675.15 286.166 3676.33 287.437C3677.5 288.709 3678.33 290.719 3678.82 293.467C3679.3 296.215 3679.21 298.404 3678.55 300.035C3677.89 301.666 3676.73 302.625 3675.1 302.914ZM3674.8 301.224C3675.28 301.14 3675.68 300.937 3676.01 300.615C3676.36 300.272 3676.62 299.804 3676.79 299.209C3676.98 298.595 3677.08 297.847 3677.08 296.967C3677.08 296.069 3676.98 295.023 3676.77 293.828C3676.56 292.633 3676.3 291.622 3676 290.796C3675.69 289.97 3675.35 289.317 3674.96 288.839C3674.59 288.341 3674.19 287.999 3673.75 287.812C3673.33 287.622 3672.88 287.569 3672.41 287.654C3671.93 287.738 3671.51 287.943 3671.17 288.268C3670.82 288.593 3670.55 289.055 3670.36 289.652C3670.18 290.229 3670.08 290.958 3670.08 291.839C3670.08 292.72 3670.18 293.757 3670.39 294.952C3670.81 297.342 3671.41 299.032 3672.18 300.022C3672.97 300.992 3673.84 301.393 3674.8 301.224Z" fill="#DAD1E9"/>
<path d="M3478.85 675.221C3477.56 676.301 3476.08 676.572 3474.4 676.031C3472.73 675.491 3470.99 674.152 3469.2 672.014C3467.41 669.877 3466.4 667.949 3466.18 666.232C3465.96 664.515 3466.5 663.116 3467.78 662.036C3469.06 660.966 3470.52 660.688 3472.18 661.202C3473.83 661.715 3475.55 663.041 3477.35 665.179C3479.14 667.317 3480.16 669.257 3480.4 671.001C3480.64 672.745 3480.12 674.151 3478.85 675.221ZM3477.75 673.906C3478.12 673.594 3478.37 673.216 3478.49 672.772C3478.62 672.303 3478.61 671.767 3478.47 671.164C3478.32 670.536 3478.03 669.841 3477.6 669.076C3477.15 668.299 3476.53 667.445 3475.75 666.516C3474.97 665.586 3474.24 664.84 3473.57 664.276C3472.89 663.713 3472.27 663.32 3471.7 663.098C3471.13 662.851 3470.61 662.756 3470.13 662.813C3469.68 662.859 3469.26 663.038 3468.89 663.35C3468.52 663.662 3468.26 664.046 3468.12 664.501C3467.98 664.957 3467.98 665.491 3468.11 666.106C3468.24 666.696 3468.53 667.373 3468.97 668.137C3469.4 668.901 3470.01 669.748 3470.79 670.677C3472.35 672.536 3473.72 673.701 3474.88 674.172C3476.05 674.619 3477 674.53 3477.75 673.906Z" fill="#DAD1E9"/>
<path d="M3590.95 535.162C3589.66 536.243 3588.18 536.513 3586.5 535.973C3584.83 535.433 3583.09 534.094 3581.3 531.956C3579.51 529.818 3578.5 527.891 3578.28 526.174C3578.06 524.457 3578.6 523.058 3579.89 521.977C3581.16 520.907 3582.62 520.63 3584.28 521.143C3585.93 521.657 3587.65 522.983 3589.45 525.12C3591.24 527.258 3592.26 529.199 3592.5 530.942C3592.74 532.686 3592.22 534.093 3590.95 535.162ZM3589.85 533.848C3590.22 533.536 3590.47 533.158 3590.59 532.713C3590.72 532.245 3590.71 531.709 3590.57 531.106C3590.42 530.478 3590.13 529.782 3589.7 529.018C3589.25 528.24 3588.63 527.387 3587.85 526.457C3587.07 525.528 3586.35 524.781 3585.67 524.218C3584.99 523.654 3584.37 523.261 3583.8 523.039C3583.23 522.792 3582.71 522.698 3582.23 522.755C3581.78 522.801 3581.36 522.98 3580.99 523.292C3580.62 523.604 3580.36 523.987 3580.22 524.443C3580.09 524.898 3580.08 525.433 3580.21 526.047C3580.35 526.637 3580.63 527.314 3581.07 528.078C3581.51 528.843 3582.11 529.689 3582.89 530.619C3584.45 532.478 3585.82 533.643 3586.98 534.114C3588.15 534.56 3589.1 534.472 3589.85 533.848Z" fill="#DAD1E9"/>
<path d="M3672.48 646.447C3670.86 646.91 3669.4 646.555 3668.09 645.38C3666.78 644.205 3665.74 642.276 3664.97 639.593C3664.2 636.911 3664.06 634.741 3664.56 633.083C3665.06 631.426 3666.12 630.365 3667.73 629.902C3669.33 629.443 3670.78 629.784 3672.09 630.926C3673.39 632.068 3674.42 633.98 3675.19 636.662C3675.96 639.345 3676.1 641.532 3675.61 643.222C3675.12 644.913 3674.08 645.988 3672.48 646.447ZM3672.01 644.797C3672.47 644.664 3672.85 644.419 3673.15 644.064C3673.45 643.688 3673.66 643.195 3673.78 642.585C3673.9 641.954 3673.92 641.2 3673.83 640.324C3673.74 639.431 3673.53 638.402 3673.19 637.236C3672.86 636.069 3672.5 635.091 3672.11 634.301C3671.72 633.511 3671.31 632.898 3670.88 632.463C3670.46 632.006 3670.02 631.708 3669.56 631.568C3669.13 631.423 3668.67 631.417 3668.21 631.551C3667.74 631.685 3667.35 631.932 3667.04 632.292C3666.73 632.651 3666.51 633.138 3666.38 633.753C3666.26 634.346 3666.24 635.08 3666.33 635.956C3666.42 636.833 3666.63 637.854 3666.97 639.02C3667.64 641.353 3668.41 642.971 3669.28 643.875C3670.16 644.757 3671.07 645.065 3672.01 644.797Z" fill="#DAD1E9"/>
<path d="M3515.94 725.179C3514.28 724.887 3513.12 723.926 3512.46 722.295C3511.8 720.665 3511.71 718.475 3512.19 715.727C3512.68 712.979 3513.51 710.969 3514.68 709.697C3515.86 708.426 3517.27 707.936 3518.93 708.228C3520.57 708.517 3521.72 709.46 3522.39 711.056C3523.06 712.653 3523.15 714.825 3522.67 717.573C3522.18 720.322 3521.35 722.349 3520.17 723.654C3518.99 724.96 3517.58 725.468 3515.94 725.179ZM3516.24 723.489C3516.71 723.573 3517.16 723.52 3517.58 723.331C3518.03 723.127 3518.43 722.776 3518.8 722.278C3519.19 721.766 3519.54 721.096 3519.84 720.27C3520.15 719.426 3520.41 718.407 3520.62 717.212C3520.83 716.017 3520.93 714.98 3520.93 714.099C3520.93 713.218 3520.83 712.488 3520.63 711.908C3520.45 711.313 3520.19 710.853 3519.84 710.528C3519.51 710.206 3519.11 710.003 3518.63 709.918C3518.15 709.834 3517.69 709.885 3517.26 710.072C3516.82 710.259 3516.41 710.6 3516.02 711.095C3515.65 711.576 3515.32 712.23 3515.01 713.056C3514.71 713.883 3514.45 714.893 3514.24 716.088C3513.82 718.478 3513.8 720.27 3514.19 721.465C3514.6 722.646 3515.28 723.32 3516.24 723.489Z" fill="#DAD1E9"/>
<path d="M3708.63 580.62C3706.97 580.328 3705.81 579.367 3705.15 577.736C3704.49 576.106 3704.4 573.916 3704.88 571.168C3705.37 568.42 3706.2 566.41 3707.37 565.139C3708.54 563.867 3709.96 563.378 3711.62 563.67C3713.25 563.959 3714.41 564.901 3715.08 566.498C3715.75 568.094 3715.84 570.266 3715.35 573.015C3714.87 575.763 3714.04 577.79 3712.86 579.095C3711.68 580.401 3710.27 580.909 3708.63 580.62ZM3708.92 578.93C3709.4 579.015 3709.85 578.962 3710.27 578.772C3710.71 578.568 3711.12 578.217 3711.49 577.719C3711.88 577.207 3712.22 576.538 3712.53 575.711C3712.84 574.868 3713.09 573.848 3713.31 572.654C3713.52 571.459 3713.62 570.421 3713.62 569.54C3713.61 568.66 3713.51 567.929 3713.32 567.349C3713.14 566.755 3712.88 566.295 3712.53 565.969C3712.2 565.647 3711.8 565.444 3711.32 565.36C3710.84 565.275 3710.38 565.327 3709.94 565.513C3709.51 565.7 3709.09 566.041 3708.71 566.536C3708.34 567.017 3708.01 567.671 3707.7 568.497C3707.4 569.324 3707.14 570.334 3706.93 571.529C3706.51 573.919 3706.49 575.711 3706.88 576.906C3707.29 578.087 3707.97 578.762 3708.92 578.93Z" fill="#DAD1E9"/>
<path d="M3412.62 637.784C3411.04 638.359 3409.55 638.107 3408.16 637.026C3406.78 635.945 3405.6 634.094 3404.65 631.471C3403.69 628.849 3403.41 626.694 3403.79 625.005C3404.17 623.317 3405.15 622.185 3406.73 621.61C3408.3 621.041 3409.77 621.281 3411.14 622.329C3412.52 623.377 3413.69 625.212 3414.64 627.834C3415.6 630.457 3415.89 632.628 3415.52 634.349C3415.15 636.07 3414.18 637.215 3412.62 637.784ZM3412.03 636.172C3412.49 636.006 3412.85 635.735 3413.12 635.361C3413.4 634.964 3413.58 634.457 3413.65 633.841C3413.73 633.203 3413.69 632.45 3413.54 631.582C3413.39 630.698 3413.1 629.686 3412.69 628.546C3412.27 627.406 3411.84 626.455 3411.4 625.694C3410.96 624.933 3410.51 624.35 3410.04 623.946C3409.59 623.52 3409.14 623.253 3408.67 623.145C3408.23 623.031 3407.78 623.057 3407.32 623.223C3406.86 623.389 3406.49 623.662 3406.21 624.043C3405.92 624.423 3405.73 624.925 3405.65 625.547C3405.57 626.147 3405.61 626.88 3405.76 627.748C3405.91 628.616 3406.19 629.62 3406.6 630.76C3407.43 633.04 3408.32 634.601 3409.25 635.442C3410.19 636.26 3411.12 636.504 3412.03 636.172Z" fill="#DAD1E9"/>
<path d="M3588.66 486.452C3587.08 487.027 3585.59 486.774 3584.2 485.694C3582.81 484.613 3581.64 482.762 3580.69 480.139C3579.73 477.517 3579.45 475.362 3579.83 473.673C3580.21 471.985 3581.19 470.853 3582.77 470.278C3584.33 469.709 3585.8 469.948 3587.18 470.997C3588.56 472.045 3589.72 473.88 3590.68 476.502C3591.63 479.125 3591.93 481.296 3591.56 483.017C3591.19 484.738 3590.22 485.883 3588.66 486.452ZM3588.07 484.84C3588.53 484.674 3588.89 484.403 3589.16 484.028C3589.44 483.632 3589.61 483.125 3589.68 482.509C3589.77 481.871 3589.73 481.118 3589.58 480.25C3589.43 479.366 3589.14 478.354 3588.72 477.214C3588.31 476.073 3587.88 475.123 3587.44 474.362C3586.99 473.601 3586.54 473.018 3586.08 472.614C3585.63 472.188 3585.18 471.92 3584.71 471.812C3584.26 471.699 3583.81 471.725 3583.36 471.891C3582.9 472.057 3582.53 472.33 3582.24 472.711C3581.96 473.091 3581.77 473.593 3581.68 474.215C3581.61 474.814 3581.64 475.548 3581.79 476.416C3581.94 477.284 3582.23 478.288 3582.64 479.428C3583.47 481.708 3584.35 483.269 3585.29 484.11C3586.23 484.928 3587.16 485.172 3588.07 484.84Z" fill="#DAD1E9"/>
<path d="M1777.08 910.703C1775.5 911.278 1774.02 911.025 1772.63 909.945C1771.24 908.864 1770.07 907.013 1769.11 904.39C1768.16 901.768 1767.87 899.612 1768.25 897.924C1768.64 896.236 1769.62 895.104 1771.2 894.529C1772.76 893.96 1774.23 894.199 1775.61 895.248C1776.99 896.296 1778.15 898.131 1779.11 900.753C1780.06 903.376 1780.35 905.547 1779.98 907.268C1779.61 908.989 1778.65 910.134 1777.08 910.703ZM1776.5 909.091C1776.95 908.925 1777.31 908.654 1777.58 908.279C1777.86 907.883 1778.04 907.376 1778.11 906.76C1778.19 906.122 1778.16 905.369 1778.01 904.501C1777.85 903.617 1777.57 902.605 1777.15 901.465C1776.74 900.324 1776.31 899.374 1775.86 898.613C1775.42 897.852 1774.97 897.269 1774.51 896.865C1774.06 896.439 1773.6 896.171 1773.14 896.063C1772.69 895.95 1772.24 895.976 1771.78 896.142C1771.33 896.308 1770.96 896.581 1770.67 896.962C1770.38 897.342 1770.2 897.844 1770.11 898.466C1770.03 899.065 1770.07 899.799 1770.22 900.667C1770.37 901.535 1770.65 902.539 1771.07 903.679C1771.9 905.959 1772.78 907.52 1773.71 908.361C1774.66 909.179 1775.58 909.423 1776.5 909.091Z" fill="#DAD1E9"/>
<path d="M3153.39 728.402C3151.94 729.243 3150.43 729.252 3148.87 728.429C3147.32 727.606 3145.84 725.986 3144.45 723.569C3143.05 721.152 3142.4 719.08 3142.48 717.351C3142.56 715.622 3143.33 714.337 3144.79 713.496C3146.23 712.664 3147.72 712.645 3149.26 713.438C3150.79 714.231 3152.26 715.835 3153.66 718.252C3155.05 720.669 3155.72 722.757 3155.65 724.516C3155.59 726.275 3154.83 727.57 3153.39 728.402ZM3152.53 726.916C3152.95 726.674 3153.27 726.344 3153.47 725.928C3153.67 725.489 3153.76 724.96 3153.72 724.341C3153.69 723.698 3153.52 722.962 3153.23 722.134C3152.92 721.29 3152.46 720.343 3151.86 719.292C3151.25 718.241 3150.66 717.38 3150.09 716.707C3149.52 716.035 3148.98 715.539 3148.45 715.221C3147.94 714.88 3147.44 714.696 3146.97 714.67C3146.51 714.636 3146.06 714.74 3145.64 714.982C3145.22 715.225 3144.91 715.559 3144.69 715.983C3144.48 716.408 3144.38 716.934 3144.4 717.561C3144.43 718.165 3144.59 718.882 3144.89 719.71C3145.19 720.539 3145.64 721.478 3146.25 722.529C3147.46 724.631 3148.6 726.015 3149.67 726.681C3150.74 727.323 3151.69 727.402 3152.53 726.916Z" fill="#DAD1E9"/>
<path d="M3644.28 414.79C3642.82 415.63 3641.32 415.639 3639.76 414.816C3638.21 413.993 3636.73 412.373 3635.34 409.957C3633.94 407.54 3633.28 405.467 3633.37 403.738C3633.45 402.009 3634.22 400.724 3635.67 399.884C3637.12 399.052 3638.61 399.032 3640.14 399.825C3641.68 400.618 3643.15 402.223 3644.55 404.64C3645.94 407.056 3646.61 409.144 3646.54 410.903C3646.47 412.662 3645.72 413.958 3644.28 414.79ZM3643.42 413.304C3643.84 413.061 3644.15 412.732 3644.35 412.316C3644.56 411.876 3644.64 411.347 3644.61 410.728C3644.58 410.085 3644.41 409.35 3644.11 408.521C3643.81 407.678 3643.35 406.73 3642.74 405.68C3642.14 404.629 3641.55 403.767 3640.98 403.095C3640.41 402.422 3639.87 401.927 3639.34 401.609C3638.83 401.267 3638.33 401.083 3637.85 401.057C3637.39 401.023 3636.95 401.127 3636.53 401.37C3636.11 401.612 3635.79 401.946 3635.58 402.37C3635.36 402.795 3635.27 403.321 3635.29 403.949C3635.32 404.553 3635.48 405.269 3635.78 406.098C3636.08 406.926 3636.53 407.866 3637.14 408.917C3638.35 411.018 3639.49 412.402 3640.55 413.068C3641.63 413.71 3642.58 413.789 3643.42 413.304Z" fill="#DAD1E9"/>
<path d="M2431.04 947.457C2429.58 948.298 2428.07 948.307 2426.52 947.484C2424.96 946.661 2423.49 945.041 2422.09 942.624C2420.7 940.207 2420.04 938.135 2420.12 936.406C2420.2 934.677 2420.97 933.392 2422.43 932.551C2423.87 931.719 2425.36 931.7 2426.9 932.493C2428.44 933.286 2429.9 934.89 2431.3 937.307C2432.7 939.724 2433.36 941.812 2433.3 943.571C2433.23 945.33 2432.48 946.625 2431.04 947.457ZM2430.18 945.971C2430.6 945.729 2430.91 945.399 2431.11 944.983C2431.32 944.544 2431.4 944.015 2431.36 943.396C2431.33 942.753 2431.17 942.017 2430.87 941.189C2430.56 940.345 2430.11 939.398 2429.5 938.347C2428.89 937.297 2428.3 936.435 2427.74 935.762C2427.17 935.09 2426.62 934.594 2426.1 934.276C2425.58 933.935 2425.08 933.751 2424.61 933.725C2424.15 933.691 2423.71 933.795 2423.29 934.037C2422.87 934.28 2422.55 934.614 2422.33 935.038C2422.12 935.463 2422.02 935.989 2422.04 936.616C2422.07 937.22 2422.24 937.937 2422.53 938.765C2422.83 939.594 2423.29 940.534 2423.89 941.584C2425.11 943.686 2426.24 945.07 2427.31 945.736C2428.38 946.378 2429.34 946.457 2430.18 945.971Z" fill="#DAD1E9"/>
<path d="M2296.3 948.242L2294.77 947.358L2296.67 944.071L2286.08 937.961L2284.58 940.573L2283.38 939.884C2283.64 939.154 2283.83 938.501 2283.94 937.926C2284.05 937.326 2284.09 936.762 2284.08 936.233L2284.9 934.815L2297.73 942.225L2299.45 939.252L2300.98 940.136L2296.3 948.242Z" fill="#DAD1E9"/>
<path d="M2085.36 928.452L2085.52 926.69L2089.3 927.021L2090.36 914.848L2087.36 914.585L2087.48 913.212C2088.25 913.14 2088.92 913.034 2089.49 912.892C2090.08 912.735 2090.61 912.538 2091.08 912.301L2092.71 912.443L2091.42 927.207L2094.84 927.506L2094.69 929.267L2085.36 928.452Z" fill="#DAD1E9"/>
<path d="M2162.88 920.288L2163.48 918.626L2167.05 919.925L2171.23 908.441L2168.4 907.41L2168.87 906.115C2169.63 906.246 2170.31 906.316 2170.89 906.327C2171.5 906.327 2172.07 906.274 2172.58 906.167L2174.12 906.727L2169.06 920.654L2172.28 921.828L2171.68 923.489L2162.88 920.288Z" fill="#DAD1E9"/>
<path d="M2207.93 861.482L2207.78 859.721L2211.56 859.39L2210.49 847.216L2207.49 847.479L2207.37 846.107C2208.12 845.902 2208.76 845.68 2209.29 845.442C2209.85 845.185 2210.33 844.899 2210.76 844.583L2212.39 844.441L2213.68 859.204L2217.1 858.905L2217.26 860.666L2207.93 861.482Z" fill="#DAD1E9"/>
<path d="M2018.7 933.83C2017.41 934.911 2015.93 935.181 2014.26 934.641C2012.58 934.1 2010.85 932.761 2009.05 930.623C2007.26 928.486 2006.25 926.558 2006.03 924.841C2005.82 923.124 2006.35 921.725 2007.64 920.645C2008.91 919.575 2010.38 919.297 2012.03 919.811C2013.68 920.325 2015.41 921.65 2017.2 923.788C2018.99 925.926 2020.01 927.867 2020.25 929.61C2020.49 931.354 2019.98 932.76 2018.7 933.83ZM2017.6 932.515C2017.97 932.203 2018.22 931.825 2018.34 931.381C2018.47 930.912 2018.46 930.376 2018.32 929.773C2018.18 929.146 2017.89 928.45 2017.45 927.685C2017 926.908 2016.39 926.055 2015.61 925.125C2014.83 924.196 2014.1 923.449 2013.42 922.885C2012.75 922.322 2012.12 921.929 2011.55 921.707C2010.98 921.46 2010.46 921.365 2009.99 921.422C2009.53 921.468 2009.11 921.647 2008.74 921.959C2008.37 922.271 2008.11 922.655 2007.98 923.11C2007.84 923.566 2007.83 924.101 2007.97 924.715C2008.1 925.305 2008.38 925.982 2008.82 926.746C2009.26 927.51 2009.87 928.357 2010.65 929.286C2012.21 931.145 2013.57 932.31 2014.73 932.781C2015.9 933.228 2016.86 933.139 2017.6 932.515Z" fill="#DAD1E9"/>
<path d="M2272.03 903.457C2270.58 904.298 2269.07 904.307 2267.52 903.484C2265.96 902.661 2264.48 901.041 2263.09 898.624C2261.69 896.207 2261.04 894.135 2261.12 892.406C2261.2 890.677 2261.97 889.392 2263.43 888.551C2264.87 887.719 2266.36 887.7 2267.9 888.493C2269.44 889.286 2270.9 890.89 2272.3 893.307C2273.69 895.724 2274.36 897.812 2274.29 899.571C2274.23 901.33 2273.47 902.625 2272.03 903.457ZM2271.18 901.971C2271.6 901.729 2271.91 901.399 2272.11 900.983C2272.31 900.544 2272.4 900.015 2272.36 899.396C2272.33 898.753 2272.16 898.017 2271.87 897.189C2271.56 896.345 2271.1 895.398 2270.5 894.347C2269.89 893.297 2269.3 892.435 2268.73 891.762C2268.17 891.09 2267.62 890.594 2267.1 890.276C2266.58 889.935 2266.08 889.751 2265.61 889.725C2265.15 889.691 2264.71 889.795 2264.29 890.037C2263.86 890.28 2263.55 890.614 2263.33 891.038C2263.12 891.463 2263.02 891.989 2263.04 892.616C2263.07 893.22 2263.23 893.937 2263.53 894.765C2263.83 895.594 2264.28 896.534 2264.89 897.584C2266.1 899.686 2267.24 901.07 2268.31 901.736C2269.38 902.378 2270.33 902.457 2271.18 901.971Z" fill="#DAD1E9"/>
<g filter="url(#filter0_d)">
<path d="M3420.44 763.486C3429.62 763.486 3500.73 784.132 3535.14 774.956C3569.55 765.78 3578.72 778.627 3578.72 778.627C3544.32 785.508 3517.5 812.984 3447.97 795.602C3420.44 788.72 3411.27 763.486 3420.44 763.486Z" fill="#ECA24B"/>
<path fill-rule="evenodd" clip-rule="evenodd" d="M3660.57 494.949V494.949C3660.03 483.672 3659.54 473.636 3666.37 475.152C3678.65 477.882 3698.24 513.097 3717.9 548.422C3731.28 572.466 3744.68 596.561 3755.83 610.496C3769.36 627.41 3806.3 674.727 3824.65 722.901C3843 771.074 3852.18 823.835 3836.12 846.775C3811.45 882.013 3750.78 883.002 3727.44 881.375L3726 890L3725.27 881.208C3724.72 881.162 3724.2 881.114 3723.72 881.067C3707.69 879.501 3712.85 876.481 3724.62 873.892C3714.7 872.98 3707 866.437 3707 858.5C3707 849.94 3715.95 843 3727 843C3738.05 843 3747 849.94 3747 858.5C3747 863.982 3743.33 868.799 3737.79 871.555C3740.49 871.163 3743.26 870.807 3746 870.5C3768.28 868 3816.87 848.911 3813.18 816.954C3808.35 775.119 3794.83 755.016 3705.36 757.31C3646.04 758.832 3609.91 769.432 3581.6 777.739C3567.22 781.959 3554.86 785.587 3542.49 787.132C3505.79 791.72 3469.08 794.014 3455.32 773.368C3450.84 766.64 3468.28 763.2 3489.42 759.031C3511.54 754.671 3537.7 749.512 3547.08 738.959C3553.51 731.726 3549.13 724.386 3544.03 715.856C3540.04 709.169 3535.61 701.751 3535.61 693.079C3535.61 676.663 3543.38 676.752 3558.28 676.924C3566.29 677.016 3576.35 677.132 3588.37 674.728C3598.01 672.801 3594.36 664.679 3590.06 655.074C3586.16 646.382 3581.72 636.476 3586.08 628.848C3592.37 617.834 3619.17 620.85 3639.08 623.091L3639.08 623.091C3648.2 624.117 3655.88 624.981 3659.48 624.26C3664.83 623.191 3661.7 617.136 3656.84 607.722C3651.27 596.943 3643.43 581.761 3643.43 564.617C3643.43 542.67 3648.78 534.65 3653.64 527.379C3655.89 524.01 3658.03 520.802 3659.48 516.444C3661.34 510.871 3660.94 502.623 3660.57 494.949Z" fill="#FFD585"/>
<path d="M3693.19 630.86C3693.19 630.86 3724 645.5 3743.93 666.388" stroke="#ECA24B" stroke-width="2.28971" stroke-linecap="round"/>
<path d="M3624.57 698.545C3647 710.5 3683.48 717.686 3683.48 717.686" stroke="#ECA24B" stroke-width="2.28971" stroke-linecap="round"/>
<path d="M3578.05 749.283C3598 751.5 3616 751 3639.99 749.283" stroke="#ECA24B" stroke-width="2.28971" stroke-linecap="round"/>
<path fill-rule="evenodd" clip-rule="evenodd" d="M3571.16 898.478C3567.37 898.478 3564.29 901.553 3564.29 905.347V930.593H3534.45C3528.13 930.593 3523 935.719 3523 942.042V992.552C3523 998.874 3528.13 1004 3534.45 1004H3800.59C3806.91 1004 3812.04 998.874 3812.04 992.552V942.042C3812.04 935.719 3806.91 930.593 3800.59 930.593H3770.75V905.347C3770.75 901.553 3767.67 898.478 3763.88 898.478H3571.16Z" fill="#DEFFBC"/>
<path d="M3553.11 945.502H3782.55C3788.24 945.502 3792.85 950.115 3792.85 955.806V983.376C3792.85 989.066 3788.24 993.679 3782.55 993.679H3553.11C3547.42 993.679 3542.81 989.066 3542.81 983.376V955.806C3542.81 950.115 3547.42 945.502 3553.11 945.502Z" fill="#64C86E" stroke="#333333" stroke-width="2.28971"/>
<path d="M3564.6 926.006H3771.06V930.594H3564.6V926.006Z" fill="#ADD69E"/>
<rect x="3667" y="883" width="2" height="24" fill="#DEFFBC"/>
<rect x="3572" y="889" width="191" height="6" fill="#34196C"/>
</g>
</g>
<defs>
<filter id="filter0_d" x="3403" y="465" width="455.401" height="557" filterUnits="userSpaceOnUse" color-interpolation-filters="sRGB">
<feFlood flood-opacity="0" result="BackgroundImageFix"/>
<feColorMatrix in="SourceAlpha" type="matrix" values="0 0 0 0 0 0 0 0 0 0 0 0 0 0 0 0 0 0 127 0"/>
<feOffset dy="4"/>
<feGaussianBlur stdDeviation="7"/>
<feColorMatrix type="matrix" values="0 0 0 0 0 0 0 0 0 0 0 0 0 0 0 0 0 0 0.15 0"/>
<feBlend mode="normal" in2="BackgroundImageFix" result="effect1_dropShadow"/>
<feBlend mode="normal" in="SourceGraphic" in2="effect1_dropShadow" result="shape"/>
</filter>
<radialGradient id="paint0_radial" cx="0" cy="0" r="1" gradientUnits="userSpaceOnUse" gradientTransform="translate(1648.5 -798.5) rotate(49.1315) scale(2232.84 3688.09)">
<stop offset="0.624175" stop-color="#1A093E"/>
<stop offset="0.818268" stop-color="#2F1E52"/>
<stop offset="1" stop-color="#4B3676"/>
</radialGradient>
<clipPath id="clip0">
<rect width="3911" height="1020" fill="white"/>
</clipPath>
</defs>
</svg>
