<svg width="325" height="85" viewBox="0 0 325 85" fill="none" xmlns="http://www.w3.org/2000/svg">
<path fill-rule="evenodd" clip-rule="evenodd" d="M227.694 70.7762V28.7762H217.362V33.7402C215.409 31.2762 214.226 30.5683 211.818 29.2803C209.409 28.2762 207.989 27.7762 204.909 27.7762C201.269 27.7762 196.698 29.2163 193.842 31.1203C190.986 32.9682 188.746 35.3602 187.122 38.7762C185.554 42.1362 184.77 45.2403 184.77 49.6083C184.77 53.9763 186.122 58.1162 187.909 61.2762C189.697 64.4362 192.409 67.2762 195.758 68.7603L195.867 68.8086C198.952 70.1762 200.756 70.9762 204.409 70.9762C207.489 70.9762 209.41 70.8042 211.818 69.5162C214.226 68.1722 215.409 67.2762 217.409 65.2762L217.362 70.7762H227.694ZM206.909 60.7762C212.708 60.7762 217.409 55.7171 217.409 49.4762C217.409 43.2354 212.708 38.1762 206.909 38.1762C201.11 38.1762 196.409 43.2354 196.409 49.4762C196.409 55.7171 201.11 60.7762 206.909 60.7762Z" fill="white"/>
<path d="M148.353 48.2523V37.3362H180.209C180.909 44.2523 180.053 49.0442 178.821 53.0202C177.589 56.9962 175.713 60.4962 173.193 63.5202C170.673 66.5442 167.537 68.9242 163.785 70.6602C160.033 72.3962 155.721 73.2643 150.849 73.2643C144.745 73.2643 139.313 71.9763 134.553 69.4003C129.849 66.7683 126.153 63.1282 123.465 58.4802C120.777 53.8322 119.433 48.4562 119.433 42.3522C119.433 36.2482 120.805 30.9002 123.549 26.3082C126.293 21.7162 130.045 18.1602 134.805 15.6402C139.621 13.0642 145.081 11.7762 151.185 11.7762C157.177 11.7762 162.382 13.1143 166.694 15.5783C171.006 17.9863 174.909 21.7523 176.409 24.7523C176.7 25.334 178.409 28.7523 178.409 29.2523L167.909 33.2523L166.809 31.2642C165.297 28.7442 163.253 26.6722 160.677 25.0482C158.157 23.3682 154.993 22.5282 151.185 22.5282C147.657 22.5282 144.437 23.3402 141.525 24.9642C138.613 26.5322 136.289 28.8002 134.553 31.7682C132.873 34.7362 132.033 38.2642 132.033 42.3522C132.033 46.4402 132.873 49.9962 134.553 53.0202C136.233 56.0442 138.501 58.3962 141.357 60.0762C144.269 61.7002 147.545 62.5123 151.185 62.5123C156.001 62.5123 159.781 61.3083 162.525 58.9003C165.325 56.4363 167.909 51.7523 168.609 48.2523H148.353Z" fill="white"/>
<path d="M283.641 70.871H294.364V53.995H298.909L311.007 70.871H324.663L307.909 48.371L323.862 28.9696H309.931L298.909 43.2069H294.364V14.7762H283.641V70.871Z" fill="white"/>
<path d="M265.735 24.6639H276.985V14.7762H265.735V24.6639ZM265.998 70.871H276.721V28.9696H265.998V70.871Z" fill="white"/>
<path d="M250.113 70.6552C253.321 70.6552 258.111 70.6552 258.111 70.6552V60.2069C258.111 60.2069 254.243 60.2069 252.002 60.2069C249.19 60.2069 246.124 57.9764 246.124 53.7577V38.8397H258.111V28.8749H246.124V14.7762H235.402V56.6473C235.402 64.6454 241.543 70.6552 250.113 70.6552Z" fill="white"/>
<path d="M7.4337 56.7762C38.4335 56.7762 28.4331 60.7761 51.4333 42.7762C74.4334 24.7762 69.4336 28.276 96.9341 28.2761" stroke="white" stroke-width="18"/>
<path fill-rule="evenodd" clip-rule="evenodd" d="M64.0619 14.2991L32.6583 39.4679C30.3518 41.3164 27.4842 42.3238 24.5283 42.3238L7.22051 42.3238L7.22051 24.3238L20.8825 24.3238C23.3991 24.3238 25.8396 23.4609 27.7968 21.8791L51.4333 2.77625L52.8049 2.77626L64.0619 14.2991Z" fill="white"/>
<path fill-rule="evenodd" clip-rule="evenodd" d="M40.5894 70.5877L71.9935 45.4195C74.3001 43.571 77.1677 42.5637 80.1236 42.5637L97.4314 42.5641L97.4311 60.5641L83.769 60.5638C81.2525 60.5637 78.812 61.4266 76.8547 63.0084L53.2178 82.1107L51.8463 82.1107L40.5894 70.5877Z" fill="white"/>
</svg>
