<svg width="1309" height="267" viewBox="0 0 1309 267" fill="none" xmlns="http://www.w3.org/2000/svg">
<path d="M1262.91 127.088C1262.91 114.329 1273.08 104.163 1285.92 104.163C1298.84 104.163 1308.99 114.321 1308.99 127.088C1308.99 139.848 1298.84 150.014 1285.92 150.014C1273.09 150.014 1262.91 139.848 1262.91 127.088ZM1305.49 127.088C1305.49 116.312 1296.48 107.674 1285.93 107.674C1275.46 107.674 1266.44 116.312 1266.44 127.088C1266.44 137.936 1275.46 146.502 1285.93 146.502C1296.48 146.494 1305.49 137.936 1305.49 127.088Z" fill="white"/>
<path d="M1296.48 140.38H1292.28L1284.71 128.764H1280.51V140.38H1277V115.244H1287.93C1292.43 115.244 1296.86 116.467 1296.86 121.891C1296.86 126.852 1293.42 128.686 1288.91 128.764L1296.48 140.38ZM1284.71 125.253C1287.84 125.253 1293.34 125.872 1293.34 121.82C1293.34 119.304 1289.89 118.763 1287.23 118.763H1280.5V125.261H1284.71V125.253Z" fill="white"/>
<path d="M354.741 58.9222L405.863 167.741L456.146 58.9222H491.065V63.8051C472.645 65.2551 471.352 66.1799 472.042 89.5598L473.719 165.593C474.33 189.287 474.95 189.898 493.519 191.426V195.941H437.804V191.426C455.542 189.906 456.146 189.287 455.997 165.593L455.158 80.4759H454.233L402.5 193.95H397.225L348.392 83.4464H348L345.86 142.441C345.029 162.231 345.029 173.846 345.86 180.414C346.942 188.205 351.974 190.352 365.738 191.418V195.941H316.067V191.426C327.911 190.368 332.347 188.213 333.789 180.422C335.09 173.854 336.392 161.243 337.379 140.309L339.754 95.9083C341.204 67.5594 339.754 65.2629 319.876 63.813V58.9222H354.741Z" fill="white"/>
<path d="M585.149 188.449L583.236 183.777C579.411 185.69 575.821 186.521 574.136 186.521C570.93 186.521 568.179 182.931 568.179 175.148V127.605C568.179 119.963 567.183 112.548 560.223 107.125C555.943 103.911 549.445 102.007 543.488 102.007C528.509 104.758 516.054 112.784 510.935 116.6C506.35 119.963 503.748 122.941 503.748 125.7C503.748 129.517 509.485 132.879 512.848 132.879C515.137 132.879 517.042 131.429 517.731 128.906C520.02 119.971 524.464 111.106 534.85 111.106C546.004 111.106 552.126 118.058 552.126 131.202V138.311C545.855 142.818 528.509 148.947 518.123 153.132C507.189 157.576 502.07 164.755 502.07 174.45C502.07 186.144 512.001 198.834 527.435 198.834C531.864 198.834 543.261 190.729 552.118 185.086C553.419 190.361 556.625 197.54 563.734 198.834L585.149 188.449ZM552.134 178.887C546.482 183.331 538.605 187.226 533.792 187.226C527.451 187.226 519.808 181.865 519.808 170.712C519.808 163.07 523.398 158.869 530.821 154.817C534.866 152.764 547.556 147.034 552.134 145.122C552.134 145.122 552.134 178.887 552.134 178.887Z" fill="white"/>
<path d="M618.006 168.415C618.006 184.851 625.797 187.837 631.527 187.837C635.352 187.837 639.938 186.152 643.99 183.785L646.13 188.456L628.784 197.085C626.644 198.167 623.885 198.849 622.442 198.849C608.914 198.849 601.506 190.141 601.506 173.259V112.58H586.065L585.226 110.518L591.418 104.562H601.514V91.261L615.263 77.3569H618.022V104.562H642.548C644.155 106.929 643.629 110.291 641.027 112.58H618.029V168.415H618.006Z" fill="white"/>
<path d="M684.49 116.844C691.678 109.202 703.059 102.477 714.449 102.023C732.641 101.646 743.631 113.638 743.631 132.441V177.304C743.631 189.076 744.712 190.134 757.614 191.2V195.942H712.771V191.427C726.143 190.126 727.139 189.068 727.139 177.304V138.789C727.139 123.655 721.628 113.638 706.281 113.638C697.557 114.1 689.766 117.314 684.49 123.419V177.304C684.49 189.076 685.486 190.134 698.403 191.427V195.942H653.623V191.427C666.917 190.126 667.991 189.068 667.991 177.304V71.8318C667.991 58.9231 667.615 59.1504 653.012 57.8493V53.6483C662.943 51.7359 676.48 48.3736 684.498 46.2339L684.49 116.844Z" fill="white"/>
<path d="M783.457 63.813L776.959 64.6516C767.404 65.8743 766.174 67.7867 769.168 77.1135L797.668 167.051H798.044L831.906 61.0619H836.946L874.084 167.278L874.546 167.051C874.546 167.051 896.556 95.7515 900.138 80.4759C903.054 68.2491 901.973 65.7254 892.496 64.6516L886.39 63.813V58.9222H931.178V63.8051C917.257 65.4902 915.737 66.3367 908.784 85.5861C906.872 90.853 891.43 139.454 873.7 197.532H868.04L829.993 94.2154L829.539 94.5994L795.066 197.532H789.187L752.653 84.0577C746.923 66.4856 743.717 65.0278 731.716 63.8051V58.9222H783.457V63.813Z" fill="white"/>
<path d="M955.251 198.833C976.572 198.833 1001.11 181.865 1001.11 148.946C1001.11 122.573 981.855 102.014 955.04 102.014C935.844 102.014 908.339 117.455 908.339 152.983C908.331 174.92 925.45 198.833 955.251 198.833ZM957.618 192.493C939.214 192.493 927.59 171.934 927.59 145.122C927.59 122.957 938.367 108.363 952.492 108.363C971.751 108.363 981.847 130.144 981.847 153.602C981.847 182.1 970.693 192.493 957.618 192.493Z" fill="white"/>
<path d="M1041.23 177.296C1041.23 189.069 1042.22 190.127 1058.72 191.42V195.942H1010.12V191.428C1023.64 190.127 1024.71 189.069 1024.71 177.304V128.46C1024.71 115.771 1024.26 115.543 1010.35 113.866V110.041C1020.28 107.901 1030.6 105.386 1041.22 101.639V123.412H1041.61C1046.49 115.167 1056.8 102.015 1066.96 102.015C1073.3 102.015 1078.35 107.745 1078.35 111.946C1078.35 115.535 1076.05 120.434 1071.63 122.338C1069.32 123.404 1067.35 122.95 1066.35 122.103C1063.38 119.587 1061 117.675 1057.26 117.675C1052.12 117.675 1046.64 121.727 1041.21 132.731V177.296H1041.23V177.296Z" fill="white"/>
<path d="M1112.06 145.804C1119.63 144.276 1122.84 141.525 1125.73 138.311C1129.1 134.8 1137.2 123.184 1141.18 117.298C1143.7 113.473 1143.55 111.106 1140.72 110.73L1135.07 110.041V105.228L1174.95 103.324V107.909L1166.55 109.899C1159.59 111.349 1156.37 114.1 1149.04 121.052C1144.15 125.724 1140.95 129.69 1131.01 141.532C1136.51 148.712 1158.53 173.855 1165.47 181.269C1171.13 187.234 1174.79 190.134 1177.7 190.588L1182.59 191.435V195.942H1156.15C1153.39 192.344 1145.22 182.563 1139.49 175.54L1122.14 155.052C1118.78 151.087 1117.32 150.624 1115.65 150.624C1114.73 150.624 1113.51 150.859 1112.05 151.235V177.304C1112.05 189.076 1113.04 190.134 1127.18 191.427V195.942H1079.49V191.427C1094.47 190.126 1095.54 189.068 1095.54 177.304V71.8318C1095.54 59.1504 1095.09 58.9231 1080.33 57.8493V53.6483C1090.27 51.7359 1103.94 48.3736 1112.05 46.2339V145.804H1112.06Z" fill="white"/>
<path d="M1191.09 166.667C1194.45 178.894 1203.92 192.5 1216.45 192.5C1224.02 192.5 1231.43 187.233 1231.43 176.84C1231.43 168.203 1226.53 162.019 1214.93 156.964C1201.16 150.858 1189.55 143.671 1189.55 129.689C1189.55 114.484 1202.69 102.03 1221.1 102.03C1228.67 102.03 1234.56 103.707 1238.84 105.698C1240.89 110.51 1243.03 122.353 1243.5 125.95L1238.39 127.173C1232.04 113.191 1225.31 108.37 1217.29 108.37C1207.81 108.37 1203.29 115.777 1203.29 122.737C1203.29 131.445 1212.39 137.331 1221.71 141.155C1237.15 147.496 1247.24 155.679 1247.24 169.881C1247.24 189.287 1229.29 198.841 1213.23 198.841C1202.46 198.841 1192.75 194.334 1188.71 190.972C1187.48 187.837 1186.18 176.221 1186.18 167.96L1191.09 166.667Z" fill="white"/>
<path d="M190 9C208 9 226.837 71.8292 242 114C258 158.5 272 194.5 283 219C266 208.5 248 180 226 180C196.5 180 160.5 256.5 124.5 258C117.5 242 105.179 211.494 95 196.5C83.2208 179.149 64 190 64 190C64 190 20 158.5 4.5 147.5C27 137.5 67.5 123 84 115C85 114.515 106.141 84 120.5 84C145.5 84 175 9 190 9Z" fill="white"/>
</svg>
