<svg width="277" height="61" viewBox="0 0 277 61" fill="none" xmlns="http://www.w3.org/2000/svg">
<g clip-path="url(#clip0)">
<path d="M19.24 7C19.24 5.16 18.32 3.77 14.24 3.77C10.16 3.77 9.24 5.16 9.24 7V12C9.22944 12.818 9.40383 13.6278 9.75015 14.3689C10.0965 15.11 10.6058 15.7633 11.24 16.28L25 28.18C25.9314 28.8523 26.7016 29.7233 27.2551 30.7298C27.8085 31.7364 28.1313 32.8534 28.2 34V41.52C28.2 46 22.93 48.52 14.2 48.52C4.61 48.47 0 46.3 0 41.49V35H8.7V41.26C8.7 43.51 10.41 44.82 14.23 44.82C17.79 44.82 19.5 43.51 19.5 41.26V34.57C19.5 32.92 18.84 31.67 16.99 30.02L4.22 18.88C1.85 16.88 0.53 15.26 0.53 12.82V7.09C0.53 2.41 5.41 0.0899963 14.23 0.0899963C24 0.0999963 27.94 2.41 27.94 6.76V12.82H19.24V7Z" fill="white"/>
<path d="M103.13 8C103.13 3.32 106.68 0 118.42 0C130.16 0 133.7 3.36 133.7 8V40.33C133.7 45.01 130.14 48.33 118.41 48.33C106.68 48.33 103.12 44.97 103.12 40.33L103.13 8ZM111.82 40.15C111.82 42.79 112.88 44.64 118.41 44.64C123.94 44.64 125 42.83 125 40.19V8.19C125 5.55 124 3.71 118.42 3.71C112.84 3.71 111.82 5.55 111.82 8.19V40.15Z" fill="white"/>
<path d="M138.51 0.389999H152.35C163.56 0.389999 166.85 2.24 166.85 7.64V19.31C166.85 24.71 163.55 26.56 152.35 26.56H147.21V48H138.51V0.389999ZM151.43 22.86C155.38 22.86 158.15 22.34 158.15 19.86V7.05C158.15 4.61 155.38 4.05 151.43 4.05H147.21V22.86H151.43Z" fill="white"/>
<path d="M188.57 6.92C188.57 5.07 187.65 3.69 183.57 3.69C179.49 3.69 178.57 5.07 178.57 6.92V11.92C178.561 12.7378 178.736 13.5471 179.082 14.288C179.428 15.0289 179.937 15.6824 180.57 16.2L194.41 28.06C195.329 28.7367 196.088 29.6069 196.634 30.609C197.18 31.6112 197.5 32.7209 197.57 33.86V41.37C197.57 45.86 192.3 48.37 183.57 48.37C173.95 48.37 169.34 46.19 169.34 41.37V34.86H178V41.12C178 43.36 179.71 44.68 183.53 44.68C187.09 44.68 188.8 43.36 188.8 41.12V34.46C188.8 32.82 188.15 31.56 186.3 29.92L173.55 18.78C171.17 16.78 169.86 15.16 169.86 12.72V7C169.86 2.32 174.73 0 183.57 0C193.32 0 197.27 2.3 197.27 6.66V12.72H188.57V6.92Z" fill="white"/>
<path d="M252.76 6.92C252.76 5.07 251.84 3.69 247.76 3.69C243.68 3.69 242.76 5.07 242.76 6.92V11.92C242.751 12.7378 242.926 13.5471 243.272 14.288C243.618 15.0289 244.127 15.6824 244.76 16.2L258.6 28.06C259.52 28.7353 260.281 29.6051 260.827 30.6075C261.373 31.61 261.692 32.7205 261.76 33.86V41.37C261.76 45.86 256.49 48.37 247.76 48.37C238.14 48.37 233.52 46.19 233.52 41.37V34.86H242.23V41.12C242.23 43.36 243.95 44.68 247.77 44.68C251.33 44.68 253.04 43.36 253.04 41.12V34.46C253.04 32.82 252.38 31.56 250.54 29.92L237.73 18.78C235.36 16.78 234.04 15.16 234.04 12.72V7C234.04 2.33 238.92 0 247.75 0C257.5 0 261.46 2.31 261.46 6.66V12.72H252.76V6.92Z" fill="white"/>
<path d="M55.1201 0.399994H63.8301L44.7701 60.13H36.0601L55.1201 0.399994Z" fill="white"/>
<path d="M41.3801 37.5L29.6001 0.5H38.3101L45.7301 23.83L41.3801 37.5Z" fill="white"/>
<path d="M224.35 0.399994H233.06L214 60.13H205.29L224.35 0.399994Z" fill="white"/>
<path d="M210.66 37.39L198.87 0.399994H207.58L215.01 23.72L210.66 37.39Z" fill="white"/>
<path d="M97.76 48V7.64999C97.76 2.24999 94.46 0.399994 83.26 0.399994H66.54V48H75.24V4.09999H82.4C86.4 4.09999 89.12 4.61999 89.12 7.09999V48H97.76Z" fill="white"/>
<path d="M265.1 6.27C265.09 5.15922 265.41 4.07051 266.02 3.14184C266.629 2.21317 267.501 1.48635 268.524 1.05349C269.547 0.620634 270.675 0.501221 271.766 0.710389C272.857 0.919556 273.861 1.44789 274.652 2.22843C275.442 3.00897 275.983 4.00658 276.206 5.09482C276.429 6.18307 276.323 7.31296 275.903 8.34131C275.483 9.36966 274.767 10.2502 273.846 10.8712C272.926 11.4923 271.841 11.826 270.73 11.83C269.993 11.8433 269.261 11.7092 268.576 11.4353C267.892 11.1615 267.269 10.7536 266.744 10.2356C266.22 9.71756 265.804 9.09987 265.522 8.41885C265.239 7.73782 265.096 7.00722 265.1 6.27V6.27ZM270.73 10.9C271.332 10.9017 271.927 10.782 272.482 10.548C273.036 10.3141 273.537 9.97063 273.955 9.53832C274.374 9.106 274.7 8.59371 274.916 8.03211C275.132 7.47051 275.232 6.87117 275.21 6.27C275.21 5.07652 274.736 3.93193 273.892 3.08802C273.048 2.2441 271.904 1.77 270.71 1.77C269.517 1.77 268.372 2.2441 267.528 3.08802C266.684 3.93193 266.21 5.07652 266.21 6.27C266.19 6.8742 266.292 7.47626 266.511 8.03991C266.729 8.60356 267.06 9.11714 267.482 9.54973C267.904 9.98231 268.41 10.325 268.968 10.557C269.526 10.7891 270.126 10.9057 270.73 10.9V10.9ZM269.55 9.48H268.55V3.09H271C272.51 3.09 273.26 3.65 273.26 4.91C273.272 5.13592 273.238 5.36196 273.161 5.57441C273.083 5.78686 272.963 5.98127 272.807 6.14586C272.652 6.31046 272.465 6.44179 272.258 6.53188C272.05 6.62198 271.826 6.66897 271.6 6.67L273.42 9.48H272.34L270.65 6.71H269.53L269.55 9.48ZM270.71 5.89C271.53 5.89 272.27 5.83 272.27 4.89C272.27 4.1 271.55 3.95 270.88 3.95H269.55V5.95L270.71 5.89Z" fill="white"/>
</g>
<defs>
<clipPath id="clip0">
<rect width="276.32" height="60.13" fill="white"/>
</clipPath>
</defs>
</svg>
