<svg width="438" height="141" viewBox="0 0 438 141" fill="none" xmlns="http://www.w3.org/2000/svg">
<path d="M145.3 20.0157V25.5157H136.4V54.2158H129.9V25.5157H121V20.0157H145.3Z" fill="white"/>
<path d="M148.3 54.2158V20.0157H154.2V32.2158C156 30.7158 158.4 29.1158 161.3 29.1158C166.2 29.1158 168.6 32.3158 168.6 37.3158V54.1158H162.7V38.1158C162.7 34.8158 161.7 33.8158 159.7 33.8158C157.1 33.8158 155.2 35.3157 154.2 36.4157V54.1158H148.3V54.2158Z" fill="white"/>
<path d="M177.7 42.8158C177.8 47.9158 180.1 49.9157 182.8 49.9157C185.5 49.9157 186.8 48.7157 188.3 47.0157L192.6 49.6158C190.3 53.1158 187 54.6158 182.3 54.6158C175.9 54.6158 171.9 49.6157 171.9 41.8158C171.9 34.0157 175.9 29.0157 182.6 29.0157C189 29.0157 192.6 34.4158 192.6 40.3158V42.7158H177.7V42.8158ZM187.1 38.8158C187 35.4158 185.2 33.4157 182.4 33.4157C179.6 33.4157 177.8 35.4158 177.7 38.8158H187.1Z" fill="white"/>
<path d="M202.2 54.0157V38.8157H212.2V41.2157H205.1V44.8157H210.3V47.2157H205.1V51.4157H212.5V53.8157H202.2V54.0157Z" fill="white"/>
<path d="M214.3 54.0157V38.8157H217.3L223.3 49.1157V38.8157H226V54.0157H223.2L217 43.2157V54.0157H214.3Z" fill="white"/>
<path d="M238.4 38.8157V41.2157H234.4V54.0157H231.5V41.2157H227.5V38.8157H238.4Z" fill="white"/>
<path d="M239.8 54.0157V38.8157H245.9C249.3 38.8157 250.7 40.8157 250.8 43.3157C250.8 45.2157 249.9 46.7157 248 47.2157L251.3 54.0157H248.1L245.2 47.8157H242.7V54.0157H239.8ZM242.7 45.5157H244.8C247.1 45.5157 247.8 44.8157 247.8 43.4157C247.8 42.0157 246.9 41.3157 245.3 41.3157H242.7V45.5157Z" fill="white"/>
<path d="M252.9 54.0157V38.8157H262.9V41.2157H255.8V44.8157H261V47.2157H255.8V51.4157H263.2V53.8157H252.9V54.0157Z" fill="white"/>
<path d="M264.8 54.0157V38.8157H270.3C273.6 38.8157 275.7 40.2157 275.7 43.3157C275.7 46.5157 273.6 47.8157 270.3 47.8157H267.7V53.9157H264.8V54.0157ZM267.7 45.5157H270C272.2 45.5157 272.8 44.7157 272.8 43.3157C272.8 42.0157 272.2 41.1157 270 41.1157H267.7V45.5157Z" fill="white"/>
<path d="M277.2 54.0157V38.8157H283.3C286.7 38.8157 288.1 40.8157 288.2 43.3157C288.2 45.2157 287.3 46.7157 285.4 47.2157L288.7 54.0157H285.5L282.6 47.8157H280.1V54.0157H277.2ZM280.1 45.5157H282.2C284.5 45.5157 285.2 44.8157 285.2 43.4157C285.2 42.0157 284.3 41.3157 282.7 41.3157H280.1V45.5157Z" fill="white"/>
<path d="M290.3 54.0157V38.8157H300.3V41.2157H293.2V44.8157H298.4V47.2157H293.2V51.4157H300.6V53.8157H290.3V54.0157Z" fill="white"/>
<path d="M302.4 54.0157V38.8157H305.4L311.4 49.1157V38.8157H314.1V54.0157H311.3L305.1 43.2157V54.0157H302.4Z" fill="white"/>
<path d="M316.6 54.0157V38.8157H326.6V41.2157H319.5V44.8157H324.7V47.2157H319.5V51.4157H326.9V53.8157H316.6V54.0157Z" fill="white"/>
<path d="M337.3 38.8157H340.2V48.3157C340.2 52.7157 337.5 54.2157 334.4 54.2157C331.3 54.2157 328.6 52.7157 328.6 48.3157V38.8157H331.5V48.4157C331.5 50.9157 332.5 51.7157 334.4 51.7157C336.4 51.7157 337.3 50.8157 337.3 48.4157V38.8157Z" fill="white"/>
<path d="M342.6 54.0157V38.8157H348.7C352.1 38.8157 353.5 40.8157 353.6 43.3157C353.6 45.2157 352.7 46.7157 350.8 47.2157L354.1 54.0157H350.9L348 47.8157H345.5V54.0157H342.6ZM345.5 45.5157H347.6C349.9 45.5157 350.6 44.8157 350.6 43.4157C350.6 42.0157 349.7 41.3157 348.1 41.3157H345.5V45.5157Z" fill="white"/>
<path d="M362.2 42.9157C361.8 41.7157 360.9 40.9157 359.5 40.9157C358.2 40.9157 357.3 41.4157 357.3 42.6157C357.3 45.2157 365.1 44.7157 365.1 49.6157C365.1 52.7157 363.1 54.3157 359.8 54.3157C357.3 54.3157 355 52.9157 354.1 50.7157L356.5 49.7157C357.2 51.1157 358.1 52.1157 359.8 52.1157C361.2 52.1157 362.4 51.6157 362.4 50.1157C362.4 47.1157 354.6 47.7157 354.6 43.0157C354.6 40.3157 356.9 38.8157 359.5 38.8157C361.9 38.8157 364 40.0157 364.9 42.2157L362.2 42.9157Z" fill="white"/>
<path d="M367.1 54.0157V38.8157H370V44.9157H375.8V38.8157H378.7V54.0157H375.8V47.5157H370V54.0157H367.1Z" fill="white"/>
<path d="M381.3 54.0157V38.8157H384.2V54.0157H381.3Z" fill="white"/>
<path d="M386.6 54.0157V38.8157H392.1C395.4 38.8157 397.5 40.2157 397.5 43.3157C397.5 46.5157 395.4 47.8157 392.1 47.8157H389.5V53.9157H386.6V54.0157ZM389.5 45.5157H391.8C394 45.5157 394.6 44.7157 394.6 43.3157C394.6 42.0157 394 41.1157 391.8 41.1157H389.5V45.5157Z" fill="white"/>
<path d="M129.8 121.816V60.3157H141.6V84.8157H165.3V60.3157H177V121.816H165.2V95.4157H141.5V121.816H129.8Z" fill="white"/>
<path d="M208.7 121.816L208 118.016C203.7 120.916 199.7 122.716 194.2 122.716C186.2 122.716 182.2 117.016 182.2 110.916C182.2 100.916 190.4 95.6157 207.6 93.5157V89.8157C207.6 86.4157 204.9 84.5157 201.1 84.5157C196.2 84.5157 193.4 87.1157 191.4 90.0157L184.6 84.8157C187.3 80.1157 194.6 76.5157 201.1 76.7157C213 77.0157 218.1 81.3157 218.1 94.6157V115.516C218.1 117.716 218.3 119.916 218.9 121.916H208.7V121.816ZM207.6 100.516C200.5 101.916 192.8 103.316 192.8 109.516C192.8 112.816 194.9 114.716 197.9 114.716C201.2 114.716 205.4 111.916 207.6 110.016V100.516Z" fill="white"/>
<path d="M227.1 77.5157V62.8157H237.7V77.4157H246.4V85.9157H237.7V110.916C237.7 113.316 238.9 114.016 241.5 114.016C243.1 114.016 244.8 113.516 246.4 113.116V121.816C243.5 122.116 240.9 122.516 238 122.516C230.2 122.516 227.1 118.616 227.1 112.316V85.9157H221V77.4157H227.1V77.5157Z" fill="white"/>
<path d="M276.6 91.9158C274.9 88.2158 273 85.2158 267.9 85.2158C262 85.2158 259.2 89.8158 259.2 99.7158C259.2 109.616 262 114.216 268.2 114.216C272.8 114.216 275.4 111.016 277.6 107.116L285.6 111.616C281.3 119.516 276 122.816 267.9 122.716C255.9 122.716 248.7 113.816 248.7 99.7158C248.7 85.6158 255.9 76.7158 267.9 76.7158C276.2 76.7158 282.9 81.1158 285.4 88.5158L276.6 91.9158Z" fill="white"/>
<path d="M290.2 121.816V60.3157H300.8V82.3157C304 79.6157 308.4 76.7157 313.6 76.7157C322.5 76.7157 326.7 82.5157 326.7 91.5157V121.816H316.1V93.0157C316.1 87.0157 314.2 85.2157 310.6 85.2157C306 85.2157 302.5 87.8157 300.7 89.9157V121.816H290.2Z" fill="white"/>
<path d="M343 101.316C343.2 110.516 347.3 114.116 352.2 114.116C357.1 114.116 359.4 111.916 362.1 108.816L369.8 113.616C365.7 119.916 359.7 122.616 351.2 122.616C339.7 122.616 332.5 113.716 332.5 99.6157C332.5 85.5157 339.7 76.6157 351.7 76.6157C363.3 76.5157 369.8 86.3157 369.8 97.0157V101.316H343ZM360 94.2157C359.8 88.1157 356.6 84.5157 351.5 84.5157C346.4 84.5157 343.2 88.1157 343 94.2157H360Z" fill="white"/>
<path d="M375.2 121.816V77.5158H384.9V85.1158H385.1C387.7 79.8158 391.2 76.8158 397.5 76.7158V87.8158C397 87.7158 396.4 87.7158 395.6 87.7158C390.3 87.7158 385.7 93.7158 385.7 94.8158V121.816H375.2Z" fill="white"/>
<path d="M401.4 128.916C403 129.216 404.3 129.216 405.8 129.216C409.5 129.216 411.5 128.216 412.8 125.716C413.8 123.616 414.5 122.316 414.5 120.516C414.5 118.916 413.6 117.016 413.1 115.216L401.3 77.4158H412L419.3 104.716H419.5L427.1 77.4158H437.7L423.7 121.816C419 134.516 415.3 137.916 406.6 137.916C404 137.916 402.8 137.716 401.5 137.616V128.916H401.4Z" fill="white"/>
<path fill-rule="evenodd" clip-rule="evenodd" d="M49.7486 0C31.3098 4.96216 18.2982 27.1686 19.0308 48.2412C20.5678 47.0679 22.0326 45.8768 23.4859 44.6951C31.5539 38.1346 39.2647 31.8647 56.987 30.562C53.114 32.868 36.0725 46.7038 35.2979 61.3083C44.5932 55.9277 48.4663 54.3903 56.987 55.159C41.4948 70.5321 36.8471 87.4426 37.6209 102.816C40.7202 89.7485 53.8886 62.0769 77.9016 48.2411C77.1871 48.0993 76.5078 47.9633 75.8593 47.8335C65.9614 45.8522 63.244 45.3083 52.3383 47.4725C59.3109 35.9426 72.4793 31.3307 81 29.0247C74.8031 19.8008 54.6632 17.4949 36.8471 24.4128C45.7667 10.1149 54.6864 8.48162 67.3742 6.15831C68.6293 5.92849 69.9213 5.69191 71.2538 5.43566C90.3628 17.1414 106 45.5347 106 75.3158C106 114.252 81.2711 140.816 53 140.816C24.7289 140.816 0 114.252 0 75.3158C0 37.9858 24.5693 2.83626 49.7486 0Z" fill="white"/>
</svg>
