<svg width="549" height="185" viewBox="0 0 549 185" fill="none" xmlns="http://www.w3.org/2000/svg">
<path d="M54.4998 17.4L24.4998 34.8L24.1998 46.4C24.0998 53.3 24.2998 58 24.8998 58C25.8998 58 42.5998 48.6 44.7998 46.8C45.6998 46 45.9998 48.4 45.9998 58.4C45.9998 65.3 46.2998 71 46.5998 71C46.9998 71 52.0998 68.2 58.0998 64.8L68.9998 58.6V45.9V33.2L77.2998 28.4L85.4998 23.5L85.7998 11.7C85.8998 5.3 85.6998 -1.05798e-06 85.2998 -1.05798e-06C84.8998 0.0999989 70.9998 7.9 54.4998 17.4Z" fill="white"/>
<path d="M104.5 16.9C88.5998 26.2 74.8998 34.3 74.2998 34.9C72.6998 36.4 72.4998 58 74.0998 58C74.5998 58 79.3998 55.5 84.5998 52.5C89.8998 49.5 94.2998 47 94.5998 47C94.7998 47 94.9998 52.4 94.9998 59C94.9998 65.6 95.3998 71 95.8998 71C97.2998 71 117.4 59 118.2 57.7C118.6 57 119 51.1 119 44.5V32.5L127 28L135 23.5V11.7C135 5.3 134.7 -1.05798e-06 134.3 0.0999989C133.8 0.0999989 120.5 7.7 104.5 16.9Z" fill="white"/>
<path d="M153.4 17.2C137 26.6 123.2 34.8 122.8 35.4C121.6 37.1 121.9 56.8 123 57.5C123.6 57.9 128.3 55.6 133.6 52.6C138.8 49.5 143.3 47 143.6 47C143.8 47 144 52.1 144 58.4C144 64.7 144.4 70.1 144.9 70.5C145.4 70.8 150.7 68.2 156.7 64.7L167.5 58.5L167.8 45.5L168.1 32.5L174.7 29C185.1 23.6 185 23.7 185 11.6C185 5.8 184.6 0.899999 184.2 0.599999C183.7 0.299999 169.9 7.8 153.4 17.2Z" fill="white"/>
<path d="M53.8 75.3L24 92.5V103.7C24 112.1 24.3 115 25.3 115C25.9 115 30.8 112.5 36 109.5L45.5 104L45.8 116C46 123.5 46.5 128 47.1 128C47.7 128 52.8 125.3 58.6 121.9L69 115.8V103.1V90.4L77.5 85.6L86 80.8V69.4C86 60.9 85.7 58 84.8 58C84.1 58 70.1 65.8 53.8 75.3Z" fill="white"/>
<path d="M103.8 75.3L74 92.5V103.7C74 112.1 74.3 115 75.3 115C75.9 115 80.8 112.5 86 109.5L95.5 104L95.8 116C96 123.5 96.5 128 97.1 128C97.7 128 102.8 125.3 108.6 121.9L119 115.8V103.1V90.4L127.5 85.6L136 80.8V69.4C136 60.9 135.7 58 134.8 58C134.1 58 120.1 65.8 103.8 75.3Z" fill="white"/>
<path d="M154.4 73.8C139.6 82.4 126.2 90.3 124.7 91.3C122 93 122 93.2 122 104C122 112.9 122.3 115 123.4 115C124.2 115 129 112.6 134.2 109.6L143.5 104.2L143.8 116.1C144 123.9 144.4 128 145.2 128C146.5 128 163.8 118.3 166.3 116.2C167.7 114.9 168 112.9 168 102.5V90.2L176.3 85.4L184.5 80.5L184.8 69.2C185 59 184.9 58 183.3 58.1C182.3 58.1 169.3 65.2 154.4 73.8Z" fill="white"/>
<path d="M53.9998 132.4L24.4998 149.5L24.1998 160.4C24.0998 166.4 24.2998 171.7 24.6998 172.1C25.0998 172.5 30.0998 170.2 35.6998 167L45.9998 161.1V173.1C45.9998 181.4 46.2998 185 47.1998 185C47.7998 185 52.8998 182.4 58.5998 179.2L68.8998 173.5L69.1998 160.5L69.4998 147.6L77.4998 143L85.4998 138.4L85.7998 126.7C85.9998 117.7 85.7998 115 84.7998 115.1C84.0998 115.2 70.1998 122.9 53.9998 132.4Z" fill="white"/>
<path d="M103.5 132.3L73.4998 149.6L73.1998 160.5C73.0998 166.4 73.2998 171.7 73.7998 172.2C74.1998 172.6 79.1998 170.3 84.7998 167.1L94.9998 161.2V173.1C94.9998 182.8 95.2998 185 96.3998 185C98.0998 185 117.1 174.1 118.2 172.5C118.6 172 119 166 119 159.4V147.2L126.8 142.8L134.5 138.5L134.8 126.7C134.9 120.3 134.7 115 134.3 115C133.8 115 120 122.8 103.5 132.3Z" fill="white"/>
<path d="M153 132.1C136.8 141.4 123.2 149.6 122.8 150.3C121.7 151.9 121.8 171.8 122.9 172.4C123.3 172.7 127.7 170.6 132.6 167.9C137.4 165.1 142 162.6 142.7 162.3C143.7 161.9 144 164.3 144 173.4C144 183.4 144.2 185 145.6 185C147.4 185 166.1 174.3 167.2 172.6C167.6 172 168 166.1 168 159.4V147.3L176 142.9C180.9 140.2 184.2 137.7 184.6 136.5C185.4 133.1 184.6 115.7 183.5 115.4C183 115.2 169.2 122.7 153 132.1Z" fill="white"/>
<path fill-rule="evenodd" clip-rule="evenodd" d="M463.7 49.0938C448.2 53.7938 443.8 78.2938 456.4 89.8938C467.8 100.394 487.1 95.7938 492.1 81.3938C492.9 79.2938 493.4 74.6938 493.4 71.0938C493.3 54.8938 479.2 44.4938 463.7 49.0938ZM478.2 60.9938C481 63.4938 481.4 64.4938 481.8 70.2938C482.3 77.9938 480.5 82.2938 475.9 84.6938C466.6 89.4938 457.8 78.9938 461 67.0938C463.4 58.1938 471.7 55.1938 478.2 60.9938Z" fill="white"/>
<path d="M361.7 49.5938C356.5 51.3938 353.2 54.5938 350.4 60.5938C345.4 71.1938 348.4 85.5938 356.8 91.3938C364.7 96.8938 376.6 96.7938 383.2 91.2938C386.5 88.4938 389.9 81.9938 390 78.2938C390 76.2938 389.5 76.0938 384.5 76.0938C379.8 76.0938 379 76.3938 379 77.9938C379 78.9938 378.1 80.9938 377 82.3938C372.5 88.0938 363.5 86.1938 360.6 78.9938C356.4 68.5938 361.2 58.0938 370 58.0938C373.7 58.0938 379 61.5938 379 64.0938C379 64.6938 381.3 65.0938 384.5 65.0938C388.2 65.0938 390 64.6938 390 63.7938C389.9 61.5938 386.3 54.5938 384.2 52.7938C379.3 48.3938 369 46.8938 361.7 49.5938Z" fill="white"/>
<path d="M222 59.0938V49.0938H260V59.0938H247V94.0938H235V59.0938H222Z" fill="white"/>
<path fill-rule="evenodd" clip-rule="evenodd" d="M263 94.0938V49.0938H277.1C292.8 49.0938 296.4 50.0938 299.3 54.9938C301.7 59.0938 301.6 67.0938 299 70.2938C298.17 71.386 297.702 72.0011 297.598 72.6727C297.463 73.5383 297.93 74.4978 299 76.6938C300.1 78.7938 301 82.5938 301.1 85.0938C301.1 87.5938 301.5 90.4938 302 91.5938L302.8 93.5938L303.6 91.5938C304.1 90.4938 307.9 80.5938 312 69.5938L319.6 49.5938H331.2L339.1 70.8938C343.4 82.6938 347 92.6938 347 93.1938C347 93.7938 344.5 94.0938 341.3 93.8938L335.7 93.5938L334.2 89.2938L332.8 85.0938H317.3L314.7 94.0938L308.1 94.1938C300.1 94.2938 291.6 93.9938 291.2 93.6938C291.1 93.4938 290.6 90.3938 290.2 86.6938C289.7 83.0938 288.9 79.5938 288.3 78.9938C287.7 78.3938 284.5 77.6938 281.1 77.3938L275 76.7938V94.0938H263ZM290 63.5938C290 61.1938 289.4 59.7938 288.1 59.0938C287 58.5938 283.6 58.0938 280.6 58.0938H275V69.0938H280.6C288 69.0938 290 67.8938 290 63.5938ZM318 78.0938H332C331.28 76.0123 330.347 73.3517 329.339 70.4938L325.249 59.0938H324.964L321.03 69.798C319.897 72.9397 318.808 75.9137 318 78.0938Z" fill="white"/>
<path d="M392 59.0938V49.0938H429V59.0938H416V94.0938H405V59.0938H392Z" fill="white"/>
<path d="M433 94.0938H444V49.0938H433V94.0938Z" fill="white"/>
<path d="M498 94.0937V49.0937H509.5L525.5 74.8937L526.1 49.0937H537V94.1937L525.5 93.5937L517.3 80.0937L509 66.6937V94.0937H498Z" fill="white"/>
<path d="M369.533 134.716L368.993 135.256C369.047 135.31 369.146 135.373 369.29 135.445C369.434 135.517 369.587 135.58 369.749 135.634C369.929 135.706 370.1 135.751 370.262 135.769C370.424 135.805 370.541 135.814 370.613 135.796C370.631 135.796 370.667 135.742 370.721 135.634C370.775 135.526 370.829 135.409 370.883 135.283C370.937 135.157 370.991 135.04 371.045 134.932C371.099 134.806 371.135 134.734 371.153 134.716C371.153 134.716 371.18 134.716 371.234 134.716C371.306 134.698 371.36 134.689 371.396 134.689C371.432 134.689 371.486 134.698 371.558 134.716C371.63 134.716 371.675 134.716 371.693 134.716C371.729 134.734 371.828 134.77 371.99 134.824C372.152 134.878 372.323 134.941 372.503 135.013C372.683 135.085 372.854 135.139 373.016 135.175C373.178 135.229 373.277 135.256 373.313 135.256C373.385 135.238 373.52 135.184 373.718 135.094C373.916 135.004 374.132 134.905 374.366 134.797C374.6 134.689 374.816 134.581 375.014 134.473C375.23 134.347 375.383 134.248 375.473 134.176C375.491 134.158 375.527 134.095 375.581 133.987C375.635 133.879 375.689 133.762 375.743 133.636C375.797 133.51 375.851 133.393 375.905 133.285C375.959 133.177 375.995 133.114 376.013 133.096C376.139 132.97 376.328 132.898 376.58 132.88C376.85 132.844 377.138 132.799 377.444 132.745C377.75 132.673 378.065 132.547 378.389 132.367C378.713 132.187 379.001 131.89 379.253 131.476C379.199 131.44 379.1 131.359 378.956 131.233C378.83 131.089 378.749 130.99 378.713 130.936C378.713 130.936 378.704 130.9 378.686 130.828C378.686 130.756 378.686 130.702 378.686 130.666C378.686 130.342 378.821 130.108 379.091 129.964C379.361 129.802 379.64 129.721 379.928 129.721C379.928 129.505 379.865 129.325 379.739 129.181C379.631 129.019 379.487 128.902 379.307 128.83C379.127 128.74 378.938 128.695 378.74 128.695C378.542 128.695 378.353 128.722 378.173 128.776L378.713 128.236C378.677 128.182 378.587 128.092 378.443 127.966C378.317 127.822 378.227 127.732 378.173 127.696C378.137 127.678 378.065 127.696 377.957 127.75C377.867 127.804 377.804 127.831 377.768 127.831C377.768 127.597 377.786 127.408 377.822 127.264C377.876 127.102 377.93 126.958 377.984 126.832C378.056 126.688 378.11 126.544 378.146 126.4C378.2 126.238 378.227 126.022 378.227 125.752C378.227 125.428 378.11 125.059 377.876 124.645C377.642 124.231 377.354 123.826 377.012 123.43C376.688 123.034 376.328 122.683 375.932 122.377C375.554 122.071 375.221 121.864 374.933 121.756C374.897 121.738 374.798 121.729 374.636 121.729C374.474 121.729 374.303 121.738 374.123 121.756C373.943 121.756 373.772 121.756 373.61 121.756C373.448 121.756 373.349 121.756 373.313 121.756C373.295 121.756 373.259 121.729 373.205 121.675C373.151 121.603 373.097 121.54 373.043 121.486C372.989 121.414 372.935 121.351 372.881 121.297C372.827 121.243 372.791 121.216 372.773 121.216C372.755 121.216 372.692 121.216 372.584 121.216C372.476 121.198 372.341 121.189 372.179 121.189C372.035 121.171 371.882 121.162 371.72 121.162C371.576 121.162 371.459 121.162 371.369 121.162C371.009 121.162 370.676 121.225 370.37 121.351C370.064 121.459 369.767 121.594 369.479 121.756C369.191 121.9 368.903 122.035 368.615 122.161C368.327 122.269 368.012 122.323 367.67 122.323C367.634 122.323 367.58 122.323 367.508 122.323C367.436 122.305 367.391 122.296 367.373 122.296C367.337 122.278 367.238 122.242 367.076 122.188C366.914 122.116 366.743 122.053 366.563 121.999C366.383 121.927 366.212 121.864 366.05 121.81C365.888 121.756 365.789 121.738 365.753 121.756C365.717 121.756 365.609 121.819 365.429 121.945C365.267 122.071 365.069 122.224 364.835 122.404C364.601 122.584 364.367 122.764 364.133 122.944C363.899 123.124 363.719 123.268 363.593 123.376C363.539 123.412 363.458 123.484 363.35 123.592C363.26 123.682 363.152 123.79 363.026 123.916C362.918 124.024 362.81 124.132 362.702 124.24C362.612 124.33 362.549 124.402 362.513 124.456C362.585 125.212 362.675 125.968 362.783 126.724C362.891 127.462 363.161 128.146 363.593 128.776C363.611 128.794 363.647 128.83 363.701 128.884C363.755 128.92 363.809 128.974 363.863 129.046C363.935 129.1 363.998 129.154 364.052 129.208C364.106 129.262 364.133 129.298 364.133 129.316C364.133 129.352 364.133 129.424 364.133 129.532C364.133 129.64 364.124 129.757 364.106 129.883C364.106 129.991 364.106 130.099 364.106 130.207C364.106 130.315 364.115 130.378 364.133 130.396C364.151 130.432 364.241 130.477 364.403 130.531C364.565 130.567 364.736 130.612 364.916 130.666C365.114 130.72 365.294 130.774 365.456 130.828C365.618 130.882 365.717 130.918 365.753 130.936C365.771 130.954 365.762 130.999 365.726 131.071C365.708 131.143 365.681 131.215 365.645 131.287C365.609 131.359 365.564 131.431 365.51 131.503C365.474 131.575 365.456 131.62 365.456 131.638C365.312 131.638 365.177 131.62 365.051 131.584C364.925 131.53 364.808 131.494 364.7 131.476C364.592 131.458 364.484 131.485 364.376 131.557C364.286 131.629 364.205 131.782 364.133 132.016C364.187 132.034 364.259 132.07 364.349 132.124C364.457 132.16 364.565 132.205 364.673 132.259C364.799 132.313 364.907 132.376 364.997 132.448C365.105 132.502 365.177 132.538 365.213 132.556C365.231 132.574 365.294 132.637 365.402 132.745C365.51 132.853 365.618 132.97 365.726 133.096C365.852 133.222 365.969 133.339 366.077 133.447C366.185 133.555 366.257 133.618 366.293 133.636C366.329 133.654 366.401 133.654 366.509 133.636C366.635 133.618 366.761 133.591 366.887 133.555C367.031 133.519 367.157 133.483 367.265 133.447C367.391 133.411 367.472 133.393 367.508 133.393C367.508 133.519 367.481 133.654 367.427 133.798C367.391 133.924 367.373 134.05 367.373 134.176C367.373 134.284 367.409 134.392 367.481 134.5C367.553 134.59 367.697 134.662 367.913 134.716C367.967 134.734 368.066 134.752 368.21 134.77C368.372 134.77 368.543 134.77 368.723 134.77C368.903 134.77 369.065 134.77 369.209 134.77C369.371 134.752 369.479 134.734 369.533 134.716ZM371.153 132.556L371.693 133.096L370.613 133.636L371.153 132.556ZM368.426 127.966C368.426 127.678 368.525 127.453 368.723 127.291C368.939 127.111 369.191 126.976 369.479 126.886C369.767 126.796 370.064 126.742 370.37 126.724C370.694 126.688 370.955 126.67 371.153 126.67V125.401C371.189 125.401 371.279 125.419 371.423 125.455C371.567 125.473 371.657 125.5 371.693 125.536C371.729 125.554 371.819 125.644 371.963 125.806C372.107 125.968 372.197 126.058 372.233 126.076C372.305 126.094 372.458 126.112 372.692 126.13C372.926 126.148 373.169 126.175 373.421 126.211C373.673 126.229 373.907 126.247 374.123 126.265C374.357 126.283 374.519 126.292 374.609 126.292C374.609 126.328 374.582 126.382 374.528 126.454C374.474 126.526 374.429 126.58 374.393 126.616C374.357 126.652 374.285 126.697 374.177 126.751C374.087 126.805 373.979 126.868 373.853 126.94C373.745 126.994 373.637 127.048 373.529 127.102C373.439 127.138 373.367 127.156 373.313 127.156C373.655 127.264 373.853 127.498 373.907 127.858C373.961 128.2 373.943 128.506 373.853 128.776C373.925 128.686 374.06 128.542 374.258 128.344C374.456 128.128 374.672 127.912 374.906 127.696C375.14 127.462 375.356 127.246 375.554 127.048C375.77 126.832 375.923 126.688 376.013 126.616C376.031 126.598 376.067 126.589 376.121 126.589C376.193 126.571 376.247 126.562 376.283 126.562C376.319 126.562 376.364 126.571 376.418 126.589C376.49 126.589 376.535 126.598 376.553 126.616C376.481 126.688 376.364 126.832 376.202 127.048C376.058 127.246 375.896 127.462 375.716 127.696C375.554 127.912 375.392 128.128 375.23 128.344C375.086 128.542 374.987 128.686 374.933 128.776C374.915 128.812 374.879 128.884 374.825 128.992C374.789 129.1 374.735 129.217 374.663 129.343C374.609 129.451 374.555 129.559 374.501 129.667C374.447 129.775 374.411 129.838 374.393 129.856C374.375 129.874 374.285 129.874 374.123 129.856C373.979 129.838 373.889 129.838 373.853 129.856C373.763 129.892 373.619 129.964 373.421 130.072C373.223 130.162 373.007 130.27 372.773 130.396C372.539 130.504 372.314 130.612 372.098 130.72C371.9 130.81 371.765 130.882 371.693 130.936H372.233C372.107 130.666 371.837 130.459 371.423 130.315C371.009 130.153 370.577 129.982 370.127 129.802C369.695 129.604 369.299 129.37 368.939 129.1C368.597 128.83 368.426 128.452 368.426 127.966ZM369.533 124.996C369.659 124.996 369.758 125.059 369.83 125.185C369.902 125.293 369.938 125.419 369.938 125.563C369.938 125.689 369.902 125.806 369.83 125.914C369.758 126.022 369.659 126.076 369.533 126.076C369.389 126.076 369.281 126.022 369.209 125.914C369.155 125.806 369.128 125.689 369.128 125.563C369.128 125.419 369.155 125.293 369.209 125.185C369.281 125.059 369.389 124.996 369.533 124.996ZM372.773 124.456C372.899 124.456 372.998 124.519 373.07 124.645C373.142 124.753 373.178 124.879 373.178 125.023C373.178 125.149 373.142 125.266 373.07 125.374C372.998 125.482 372.899 125.536 372.773 125.536C372.629 125.536 372.521 125.482 372.449 125.374C372.395 125.266 372.368 125.149 372.368 125.023C372.368 124.879 372.395 124.753 372.449 124.645C372.521 124.519 372.629 124.456 372.773 124.456ZM364.673 123.916C364.799 123.916 364.898 123.979 364.97 124.105C365.042 124.213 365.078 124.339 365.078 124.483C365.078 124.609 365.042 124.726 364.97 124.834C364.898 124.942 364.799 124.996 364.673 124.996C364.529 124.996 364.421 124.942 364.349 124.834C364.295 124.726 364.268 124.609 364.268 124.483C364.268 124.339 364.295 124.213 364.349 124.105C364.421 123.979 364.529 123.916 364.673 123.916ZM373.313 123.916H373.853V124.456L373.313 123.916ZM384.95 135.472V136.255C385.058 136.255 385.283 136.165 385.625 135.985C385.985 135.823 386.345 135.625 386.705 135.391C387.083 135.175 387.416 134.968 387.704 134.77C388.01 134.572 388.172 134.446 388.19 134.392C388.208 134.338 388.208 134.212 388.19 134.014C388.19 133.798 388.181 133.564 388.163 133.312C388.163 133.06 388.154 132.835 388.136 132.637C388.136 132.421 388.154 132.286 388.19 132.232C388.244 132.142 388.37 132.034 388.568 131.908C388.766 131.782 388.973 131.665 389.189 131.557C389.423 131.431 389.648 131.332 389.864 131.26C390.08 131.188 390.242 131.152 390.35 131.152C390.35 131.134 390.35 131.098 390.35 131.044C390.368 130.972 390.377 130.918 390.377 130.882C390.377 130.846 390.368 130.801 390.35 130.747C390.35 130.675 390.35 130.63 390.35 130.612C390.35 130.594 390.314 130.531 390.242 130.423C390.188 130.315 390.125 130.198 390.053 130.072C389.981 129.946 389.918 129.838 389.864 129.748C389.81 129.64 389.792 129.568 389.81 129.532C389.828 129.496 389.9 129.406 390.026 129.262C390.17 129.118 390.323 128.965 390.485 128.803C390.665 128.623 390.836 128.452 390.998 128.29C391.178 128.128 391.322 128.002 391.43 127.912C391.43 127.912 391.457 127.912 391.511 127.912C391.583 127.894 391.637 127.885 391.673 127.885C391.709 127.885 391.763 127.894 391.835 127.912C391.907 127.912 391.952 127.912 391.97 127.912C392.06 127.948 392.24 128.038 392.51 128.182C392.78 128.308 392.96 128.398 393.05 128.452C392.798 128.758 392.636 129.019 392.564 129.235C392.51 129.451 392.483 129.73 392.483 130.072C392.483 130.612 392.609 131.089 392.861 131.503C393.131 131.899 393.509 132.097 393.995 132.097C393.995 132.277 394.013 132.421 394.049 132.529C394.103 132.619 394.13 132.709 394.13 132.799C394.13 132.871 394.094 132.952 394.022 133.042C393.95 133.114 393.806 133.204 393.59 133.312L394.67 135.472C394.742 135.418 394.877 135.337 395.075 135.229C395.291 135.139 395.516 135.04 395.75 134.932C395.984 134.806 396.2 134.698 396.398 134.608C396.596 134.5 396.74 134.428 396.83 134.392C396.866 134.374 396.956 134.365 397.1 134.365C397.244 134.365 397.334 134.374 397.37 134.392L397.91 131.692C397.928 131.656 397.937 131.566 397.937 131.422C397.955 131.278 397.964 131.188 397.964 131.152H396.83V127.372C396.488 127.156 396.245 126.895 396.101 126.589C395.957 126.265 395.849 125.941 395.777 125.617C395.705 125.275 395.633 124.933 395.561 124.591C395.507 124.231 395.39 123.898 395.21 123.592C395.192 123.574 395.129 123.538 395.021 123.484C394.931 123.43 394.823 123.376 394.697 123.322C394.571 123.268 394.445 123.214 394.319 123.16C394.211 123.106 394.148 123.07 394.13 123.052C394.094 123.034 394.022 122.971 393.914 122.863C393.824 122.737 393.716 122.611 393.59 122.485C393.482 122.359 393.374 122.242 393.266 122.134C393.158 122.026 393.086 121.972 393.05 121.972C393.014 121.972 392.915 121.999 392.753 122.053C392.591 122.107 392.42 122.17 392.24 122.242C392.06 122.314 391.889 122.386 391.727 122.458C391.565 122.512 391.466 122.53 391.43 122.512C391.358 122.494 391.286 122.44 391.214 122.35C391.142 122.26 391.079 122.161 391.025 122.053C390.971 121.927 390.926 121.81 390.89 121.702C390.854 121.594 390.854 121.504 390.89 121.432C390.872 121.576 390.746 121.783 390.512 122.053C390.278 122.323 389.99 122.62 389.648 122.944C389.324 123.268 388.964 123.601 388.568 123.943C388.19 124.267 387.83 124.573 387.488 124.861C387.164 125.131 386.885 125.356 386.651 125.536C386.417 125.716 386.3 125.806 386.3 125.806C386.264 125.806 386.21 125.806 386.138 125.806C386.084 125.788 386.048 125.77 386.03 125.752L383.33 123.052C383.33 123.052 383.294 123.043 383.222 123.025C383.168 123.007 383.123 122.998 383.087 122.998C382.835 122.998 382.565 123.079 382.277 123.241C382.007 123.403 381.728 123.601 381.44 123.835C381.17 124.069 380.909 124.312 380.657 124.564C380.423 124.816 380.234 125.032 380.09 125.212C380.144 125.194 380.225 125.203 380.333 125.239C380.459 125.275 380.576 125.32 380.684 125.374C380.81 125.428 380.918 125.491 381.008 125.563C381.098 125.635 381.152 125.698 381.17 125.752C381.188 125.806 381.197 125.941 381.197 126.157C381.197 126.355 381.188 126.58 381.17 126.832C381.17 127.066 381.161 127.291 381.143 127.507C381.143 127.723 381.152 127.858 381.17 127.912C381.17 127.948 381.215 128.074 381.305 128.29C381.395 128.506 381.494 128.758 381.602 129.046C381.728 129.334 381.845 129.622 381.953 129.91C382.079 130.198 382.178 130.432 382.25 130.612C382.268 130.648 382.304 130.72 382.358 130.828C382.412 130.918 382.466 131.026 382.52 131.152C382.592 131.278 382.655 131.395 382.709 131.503C382.763 131.611 382.79 131.674 382.79 131.692C382.79 131.728 382.763 131.8 382.709 131.908C382.655 131.998 382.592 132.106 382.52 132.232C382.448 132.358 382.385 132.475 382.331 132.583C382.277 132.691 382.25 132.754 382.25 132.772C382.25 132.844 382.268 132.961 382.304 133.123C382.358 133.267 382.412 133.429 382.466 133.609C382.52 133.771 382.574 133.933 382.628 134.095C382.7 134.239 382.754 134.338 382.79 134.392C382.808 134.428 382.871 134.473 382.979 134.527C383.087 134.563 383.204 134.608 383.33 134.662C383.456 134.716 383.573 134.77 383.681 134.824C383.789 134.878 383.852 134.914 383.87 134.932C383.906 134.968 383.951 135.058 384.005 135.202C384.059 135.346 384.086 135.436 384.086 135.472H384.95ZM396.83 132.772C396.992 132.808 397.073 132.898 397.073 133.042C397.073 133.186 396.992 133.276 396.83 133.312C396.74 133.33 396.677 133.312 396.641 133.258C396.605 133.186 396.587 133.114 396.587 133.042C396.587 132.97 396.605 132.907 396.641 132.853C396.677 132.781 396.74 132.754 396.83 132.772ZM386.03 126.832V127.912H385.49L386.03 126.832ZM387.65 127.372C387.812 127.408 387.893 127.498 387.893 127.642C387.893 127.786 387.812 127.876 387.65 127.912C387.56 127.93 387.497 127.912 387.461 127.858C387.425 127.786 387.407 127.714 387.407 127.642C387.407 127.57 387.425 127.507 387.461 127.453C387.497 127.381 387.56 127.354 387.65 127.372ZM390.89 126.832C391.016 126.832 391.115 126.895 391.187 127.021C391.259 127.129 391.295 127.255 391.295 127.399C391.295 127.525 391.259 127.642 391.187 127.75C391.115 127.858 391.016 127.912 390.89 127.912C390.746 127.912 390.638 127.858 390.566 127.75C390.512 127.642 390.485 127.525 390.485 127.399C390.485 127.255 390.512 127.129 390.566 127.021C390.638 126.895 390.746 126.832 390.89 126.832ZM382.25 125.752C382.376 125.752 382.475 125.815 382.547 125.941C382.619 126.049 382.655 126.175 382.655 126.319C382.655 126.445 382.619 126.562 382.547 126.67C382.475 126.778 382.376 126.832 382.25 126.832C382.106 126.832 381.998 126.778 381.926 126.67C381.872 126.562 381.845 126.445 381.845 126.319C381.845 126.175 381.872 126.049 381.926 125.941C381.998 125.815 382.106 125.752 382.25 125.752ZM383.87 124.132C383.996 124.132 384.095 124.195 384.167 124.321C384.239 124.429 384.275 124.555 384.275 124.699C384.275 124.825 384.239 124.942 384.167 125.05C384.095 125.158 383.996 125.212 383.87 125.212C383.726 125.212 383.618 125.158 383.546 125.05C383.492 124.942 383.465 124.825 383.465 124.699C383.465 124.555 383.492 124.429 383.546 124.321C383.618 124.195 383.726 124.132 383.87 124.132ZM415.884 131.854C415.884 132.16 416.028 132.529 416.316 132.961C416.604 133.393 416.946 133.807 417.342 134.203C417.756 134.581 418.179 134.905 418.611 135.175C419.043 135.463 419.394 135.616 419.664 135.634H419.124C419.16 135.598 419.223 135.544 419.313 135.472C419.421 135.418 419.529 135.364 419.637 135.31C419.763 135.256 419.871 135.202 419.961 135.148C420.069 135.112 420.15 135.094 420.204 135.094C420.294 135.094 420.402 135.157 420.528 135.283C420.672 135.427 420.744 135.544 420.744 135.634L422.364 134.554C422.454 134.86 422.598 135.031 422.796 135.067C422.994 135.103 423.21 135.121 423.444 135.121C423.714 135.121 423.966 135.067 424.2 134.959C424.434 134.833 424.551 134.608 424.551 134.284C424.551 134.248 424.542 134.194 424.524 134.122C424.524 134.05 424.524 134.014 424.524 134.014C424.488 133.96 424.398 133.87 424.254 133.744C424.128 133.6 424.038 133.51 423.984 133.474C424.164 133.42 424.461 133.303 424.875 133.123C425.307 132.943 425.748 132.736 426.198 132.502C426.666 132.268 427.098 132.043 427.494 131.827C427.89 131.593 428.16 131.422 428.304 131.314C428.376 131.26 428.475 131.134 428.601 130.936C428.727 130.738 428.844 130.531 428.952 130.315C429.078 130.081 429.177 129.856 429.249 129.64C429.339 129.424 429.384 129.262 429.384 129.154L429.924 129.694C429.762 129.37 429.699 129.091 429.735 128.857C429.789 128.605 429.897 128.38 430.059 128.182C430.221 127.966 430.419 127.75 430.653 127.534C430.905 127.318 431.139 127.075 431.355 126.805C431.571 126.535 431.751 126.22 431.895 125.86C432.057 125.5 432.138 125.068 432.138 124.564C432.138 124.33 432.12 124.069 432.084 123.781C432.066 123.493 431.886 123.304 431.544 123.214C431.652 123.142 431.769 123.043 431.895 122.917C432.021 122.773 432.138 122.62 432.246 122.458C432.354 122.296 432.444 122.143 432.516 121.999C432.588 121.837 432.624 121.702 432.624 121.594C432.624 121.558 432.597 121.459 432.543 121.297C432.489 121.135 432.426 120.964 432.354 120.784C432.282 120.604 432.219 120.433 432.165 120.271C432.111 120.109 432.084 120.01 432.084 119.974C432.084 119.866 432.102 119.686 432.138 119.434C432.192 119.164 432.246 118.885 432.3 118.597C432.354 118.309 432.408 118.039 432.462 117.787C432.534 117.535 432.588 117.364 432.624 117.274L431.544 117.814C431.616 117.49 431.607 117.085 431.517 116.599C431.427 116.113 431.274 115.627 431.058 115.141C430.842 114.655 430.59 114.214 430.302 113.818C430.014 113.404 429.708 113.116 429.384 112.954C429.348 112.936 429.267 112.936 429.141 112.954C429.015 112.972 428.88 112.999 428.736 113.035C428.61 113.071 428.484 113.107 428.358 113.143C428.25 113.179 428.178 113.197 428.142 113.197C428.142 112.675 428.061 112.261 427.899 111.955C427.755 111.649 427.548 111.424 427.278 111.28C427.008 111.118 426.684 111.019 426.306 110.983C425.928 110.947 425.514 110.929 425.064 110.929V109.714C424.974 109.768 424.794 109.867 424.524 110.011C424.254 110.137 424.074 110.218 423.984 110.254C423.984 110.254 423.948 110.263 423.876 110.281C423.804 110.281 423.75 110.281 423.714 110.281C423.462 110.281 423.21 110.254 422.958 110.2C422.724 110.128 422.481 110.056 422.229 109.984C421.995 109.912 421.752 109.849 421.5 109.795C421.248 109.723 420.987 109.687 420.717 109.687C420.015 109.687 419.322 109.822 418.638 110.092C417.954 110.344 417.396 110.758 416.964 111.334C416.946 111.37 416.91 111.442 416.856 111.55C416.802 111.658 416.748 111.775 416.694 111.901C416.64 112.027 416.586 112.144 416.532 112.252C416.478 112.342 416.442 112.396 416.424 112.414C416.406 112.432 416.343 112.441 416.235 112.441C416.127 112.423 416.01 112.414 415.884 112.414C415.776 112.414 415.659 112.414 415.533 112.414C415.425 112.396 415.362 112.396 415.344 112.414C415.29 112.45 415.209 112.513 415.101 112.603C414.993 112.693 414.876 112.801 414.75 112.927C414.642 113.035 414.534 113.143 414.426 113.251C414.336 113.359 414.282 113.44 414.264 113.494L413.724 112.954C413.67 113.332 413.553 113.584 413.373 113.71C413.193 113.836 413.004 113.935 412.806 114.007C412.626 114.079 412.455 114.169 412.293 114.277C412.149 114.367 412.077 114.556 412.077 114.844C412.077 114.952 412.122 115.096 412.212 115.276C412.32 115.438 412.437 115.609 412.563 115.789C412.689 115.969 412.815 116.149 412.941 116.329C413.067 116.491 413.148 116.626 413.184 116.734C413.382 116.428 413.634 116.176 413.94 115.978C414.264 115.762 414.606 115.591 414.966 115.465C415.344 115.339 415.722 115.249 416.1 115.195C416.496 115.141 416.874 115.114 417.234 115.114H417.504C417.45 115.204 417.351 115.384 417.207 115.654C417.081 115.924 417 116.104 416.964 116.194C416.964 116.212 416.955 116.257 416.937 116.329C416.937 116.383 416.937 116.428 416.937 116.464C416.937 116.626 416.964 116.752 417.018 116.842C417.09 116.932 417.162 117.022 417.234 117.112C417.306 117.184 417.369 117.274 417.423 117.382C417.495 117.49 417.531 117.625 417.531 117.787C417.531 118.021 417.495 118.237 417.423 118.435C417.369 118.615 417.306 118.804 417.234 119.002C417.162 119.182 417.09 119.371 417.018 119.569C416.964 119.749 416.937 119.956 416.937 120.19C416.937 120.298 416.937 120.46 416.937 120.676C416.955 120.892 416.964 121.018 416.964 121.054C416.964 121.126 416.991 121.297 417.045 121.567C417.117 121.819 417.18 122.098 417.234 122.404C417.306 122.71 417.369 122.998 417.423 123.268C417.477 123.52 417.504 123.682 417.504 123.754C417.504 123.88 417.477 124.096 417.423 124.402C417.387 124.708 417.342 125.032 417.288 125.374C417.234 125.716 417.171 126.04 417.099 126.346C417.045 126.652 417 126.868 416.964 126.994C416.946 127.048 416.883 127.156 416.775 127.318C416.667 127.462 416.55 127.624 416.424 127.804C416.298 127.984 416.181 128.155 416.073 128.317C415.965 128.479 415.902 128.578 415.884 128.614C415.848 128.668 415.803 128.776 415.749 128.938C415.695 129.082 415.641 129.244 415.587 129.424C415.533 129.604 415.479 129.775 415.425 129.937C415.389 130.081 415.362 130.18 415.344 130.234H416.964V130.99C416.928 130.99 416.838 130.945 416.694 130.855C416.55 130.765 416.46 130.738 416.424 130.774C416.334 130.864 416.217 131.044 416.073 131.314C415.947 131.584 415.884 131.764 415.884 131.854ZM419.124 133.474C419.25 133.474 419.349 133.537 419.421 133.663C419.493 133.771 419.529 133.897 419.529 134.041C419.529 134.167 419.493 134.284 419.421 134.392C419.349 134.5 419.25 134.554 419.124 134.554C418.98 134.554 418.872 134.5 418.8 134.392C418.746 134.284 418.719 134.167 418.719 134.041C418.719 133.897 418.746 133.771 418.8 133.663C418.872 133.537 418.98 133.474 419.124 133.474ZM421.824 130.234C421.986 130.27 422.067 130.36 422.067 130.504C422.067 130.648 421.986 130.738 421.824 130.774C421.734 130.792 421.671 130.774 421.635 130.72C421.599 130.648 421.581 130.576 421.581 130.504C421.581 130.432 421.599 130.369 421.635 130.315C421.671 130.243 421.734 130.216 421.824 130.234ZM420.744 129.694C420.87 129.694 420.969 129.757 421.041 129.883C421.113 129.991 421.149 130.117 421.149 130.261C421.149 130.387 421.113 130.504 421.041 130.612C420.969 130.72 420.87 130.774 420.744 130.774C420.6 130.774 420.492 130.72 420.42 130.612C420.366 130.504 420.339 130.387 420.339 130.261C420.339 130.117 420.366 129.991 420.42 129.883C420.492 129.757 420.6 129.694 420.744 129.694ZM424.524 130.234C424.488 130.396 424.398 130.477 424.254 130.477C424.11 130.477 424.02 130.396 423.984 130.234C423.966 130.162 423.984 130.108 424.038 130.072C424.11 130.018 424.182 129.991 424.254 129.991C424.326 129.991 424.389 130.018 424.443 130.072C424.515 130.108 424.542 130.162 424.524 130.234ZM428.304 129.694C428.43 129.694 428.529 129.757 428.601 129.883C428.673 129.991 428.709 130.117 428.709 130.261C428.709 130.387 428.673 130.504 428.601 130.612C428.529 130.72 428.43 130.774 428.304 130.774C428.16 130.774 428.052 130.72 427.98 130.612C427.926 130.504 427.899 130.387 427.899 130.261C427.899 130.117 427.926 129.991 427.98 129.883C428.052 129.757 428.16 129.694 428.304 129.694ZM421.284 128.074L422.364 126.994L421.824 126.454V122.134C421.734 122.134 421.626 122.098 421.5 122.026C421.392 121.936 421.275 121.837 421.149 121.729C421.041 121.603 420.942 121.486 420.852 121.378C420.78 121.252 420.744 121.144 420.744 121.054C420.744 121 420.798 120.865 420.906 120.649C421.014 120.433 421.131 120.208 421.257 119.974C421.383 119.722 421.5 119.497 421.608 119.299C421.734 119.083 421.806 118.948 421.824 118.894C421.878 118.786 421.932 118.651 421.986 118.489C422.058 118.309 422.121 118.138 422.175 117.976C422.229 117.796 422.274 117.643 422.31 117.517C422.346 117.373 422.364 117.292 422.364 117.274C422.364 117.238 422.31 117.175 422.202 117.085C422.094 116.977 421.977 116.86 421.851 116.734C421.725 116.608 421.599 116.5 421.473 116.41C421.365 116.302 421.302 116.23 421.284 116.194C421.266 116.176 421.248 116.14 421.23 116.086C421.23 116.014 421.23 115.96 421.23 115.924C421.23 115.69 421.311 115.519 421.473 115.411C421.653 115.303 421.869 115.231 422.121 115.195C422.391 115.141 422.688 115.114 423.012 115.114C423.354 115.096 423.687 115.078 424.011 115.06C424.335 115.024 424.632 114.979 424.902 114.925C425.19 114.853 425.424 114.736 425.604 114.574C425.622 114.628 425.649 114.736 425.685 114.898C425.739 115.042 425.793 115.204 425.847 115.384C425.901 115.564 425.955 115.735 426.009 115.897C426.063 116.041 426.108 116.14 426.144 116.194C426.162 116.23 426.198 116.302 426.252 116.41C426.306 116.5 426.36 116.608 426.414 116.734C426.486 116.86 426.549 116.977 426.603 117.085C426.657 117.193 426.684 117.256 426.684 117.274C426.684 117.31 426.684 117.409 426.684 117.571C426.684 117.733 426.675 117.913 426.657 118.111C426.657 118.291 426.657 118.462 426.657 118.624C426.657 118.768 426.666 118.858 426.684 118.894C426.702 118.948 426.756 119.011 426.846 119.083C426.954 119.137 427.062 119.2 427.17 119.272C427.296 119.326 427.413 119.371 427.521 119.407C427.629 119.443 427.71 119.452 427.764 119.434V124.294C427.548 124.438 427.386 124.6 427.278 124.78C427.188 124.96 427.107 125.149 427.035 125.347C426.981 125.527 426.927 125.716 426.873 125.914C426.837 126.094 426.774 126.274 426.684 126.454C426.648 126.508 426.558 126.607 426.414 126.751C426.288 126.877 426.198 126.958 426.144 126.994C426.108 127.012 426.009 127.048 425.847 127.102C425.685 127.156 425.505 127.21 425.307 127.264C425.127 127.318 424.956 127.372 424.794 127.426C424.65 127.48 424.56 127.516 424.524 127.534C424.416 127.624 424.29 127.768 424.146 127.966C424.02 128.164 423.867 128.371 423.687 128.587C423.525 128.785 423.336 128.947 423.12 129.073C422.904 129.199 422.652 129.226 422.364 129.154C422.292 129.136 422.193 129.082 422.067 128.992C421.959 128.902 421.851 128.803 421.743 128.695C421.635 128.587 421.536 128.479 421.446 128.371C421.356 128.245 421.302 128.146 421.284 128.074ZM428.304 128.074C428.43 128.074 428.529 128.137 428.601 128.263C428.673 128.371 428.709 128.497 428.709 128.641C428.709 128.767 428.673 128.884 428.601 128.992C428.529 129.1 428.43 129.154 428.304 129.154C428.16 129.154 428.052 129.1 427.98 128.992C427.926 128.884 427.899 128.767 427.899 128.641C427.899 128.497 427.926 128.371 427.98 128.263C428.052 128.137 428.16 128.074 428.304 128.074ZM431.004 126.454C431.076 126.598 431.04 126.742 430.896 126.886C430.752 127.03 430.608 127.066 430.464 126.994C430.392 126.958 430.374 126.895 430.41 126.805C430.446 126.715 430.5 126.634 430.572 126.562C430.644 126.49 430.725 126.436 430.815 126.4C430.905 126.364 430.968 126.382 431.004 126.454ZM420.744 124.834C420.87 124.834 420.969 124.897 421.041 125.023C421.113 125.131 421.149 125.257 421.149 125.401C421.149 125.527 421.113 125.644 421.041 125.752C420.969 125.86 420.87 125.914 420.744 125.914C420.6 125.914 420.492 125.86 420.42 125.752C420.366 125.644 420.339 125.527 420.339 125.401C420.339 125.257 420.366 125.131 420.42 125.023C420.492 124.897 420.6 124.834 420.744 124.834ZM420.744 123.754C420.87 123.754 420.969 123.817 421.041 123.943C421.113 124.051 421.149 124.177 421.149 124.321C421.149 124.447 421.113 124.564 421.041 124.672C420.969 124.78 420.87 124.834 420.744 124.834C420.6 124.834 420.492 124.78 420.42 124.672C420.366 124.564 420.339 124.447 420.339 124.321C420.339 124.177 420.366 124.051 420.42 123.943C420.492 123.817 420.6 123.754 420.744 123.754ZM431.544 123.754C431.67 123.754 431.769 123.817 431.841 123.943C431.913 124.051 431.949 124.177 431.949 124.321C431.949 124.447 431.913 124.564 431.841 124.672C431.769 124.78 431.67 124.834 431.544 124.834C431.4 124.834 431.292 124.78 431.22 124.672C431.166 124.564 431.139 124.447 431.139 124.321C431.139 124.177 431.166 124.051 431.22 123.943C431.292 123.817 431.4 123.754 431.544 123.754ZM421.824 120.514C421.68 120.514 421.572 120.577 421.5 120.703C421.446 120.811 421.419 120.937 421.419 121.081C421.419 121.207 421.446 121.324 421.5 121.432C421.572 121.54 421.68 121.594 421.824 121.594C421.95 121.594 422.049 121.54 422.121 121.432C422.193 121.324 422.229 121.207 422.229 121.081C422.229 120.937 422.193 120.811 422.121 120.703C422.049 120.577 421.95 120.514 421.824 120.514ZM421.824 119.434C421.68 119.434 421.572 119.497 421.5 119.623C421.446 119.731 421.419 119.857 421.419 120.001C421.419 120.127 421.446 120.244 421.5 120.352C421.572 120.46 421.68 120.514 421.824 120.514C421.95 120.514 422.049 120.46 422.121 120.352C422.193 120.244 422.229 120.127 422.229 120.001C422.229 119.857 422.193 119.731 422.121 119.623C422.049 119.497 421.95 119.434 421.824 119.434ZM423.444 112.954C423.57 112.954 423.669 113.017 423.741 113.143C423.813 113.251 423.849 113.377 423.849 113.521C423.849 113.647 423.813 113.764 423.741 113.872C423.669 113.98 423.57 114.034 423.444 114.034C423.3 114.034 423.192 113.98 423.12 113.872C423.066 113.764 423.039 113.647 423.039 113.521C423.039 113.377 423.066 113.251 423.12 113.143C423.192 113.017 423.3 112.954 423.444 112.954ZM419.124 111.334L419.664 111.874L419.124 112.414V111.334ZM443.971 134.554C443.719 134.68 443.539 134.842 443.431 135.04C443.341 135.238 443.296 135.463 443.296 135.715C443.332 135.715 443.44 135.706 443.62 135.688C443.818 135.67 443.935 135.652 443.971 135.634C443.989 135.634 444.052 135.598 444.16 135.526C444.268 135.472 444.385 135.409 444.511 135.337C444.637 135.283 444.745 135.229 444.835 135.175C444.943 135.121 445.015 135.094 445.051 135.094C445.105 135.094 445.231 135.121 445.429 135.175C445.645 135.229 445.87 135.292 446.104 135.364C446.356 135.436 446.59 135.499 446.806 135.553C447.022 135.607 447.157 135.634 447.211 135.634C447.247 135.634 447.337 135.562 447.481 135.418C447.625 135.292 447.715 135.184 447.751 135.094C447.751 135.094 447.751 135.058 447.751 134.986C447.769 134.914 447.778 134.86 447.778 134.824C447.778 134.788 447.769 134.734 447.751 134.662C447.751 134.59 447.751 134.554 447.751 134.554C447.715 134.5 447.625 134.41 447.481 134.284C447.355 134.14 447.265 134.05 447.211 134.014C447.445 133.906 447.724 133.798 448.048 133.69C448.372 133.564 448.669 133.42 448.939 133.258C449.227 133.078 449.47 132.871 449.668 132.637C449.866 132.403 449.965 132.124 449.965 131.8C449.965 131.422 449.848 131.161 449.614 131.017C449.398 130.873 449.11 130.792 448.75 130.774C448.408 130.738 448.03 130.747 447.616 130.801C447.202 130.855 446.815 130.891 446.455 130.909C446.095 130.909 445.78 130.873 445.51 130.801C445.258 130.711 445.105 130.522 445.051 130.234C444.907 130.252 444.655 130.27 444.295 130.288C443.935 130.288 443.557 130.288 443.161 130.288C442.765 130.288 442.387 130.288 442.027 130.288C441.667 130.27 441.415 130.252 441.271 130.234C441.235 130.234 441.163 130.207 441.055 130.153C440.965 130.099 440.857 130.045 440.731 129.991C440.605 129.919 440.488 129.856 440.38 129.802C440.272 129.73 440.209 129.694 440.191 129.694C440.137 129.676 440.002 129.649 439.786 129.613C439.57 129.559 439.336 129.505 439.084 129.451C438.832 129.397 438.598 129.343 438.382 129.289C438.184 129.235 438.067 129.19 438.031 129.154C438.013 129.136 437.986 129.01 437.95 128.776C437.932 128.524 437.923 128.326 437.923 128.182C437.923 127.948 437.932 127.714 437.95 127.48C437.968 127.246 438.013 127.03 438.085 126.832C438.157 126.634 438.274 126.454 438.436 126.292C438.598 126.13 438.823 126.004 439.111 125.914C439.111 126.004 439.147 126.112 439.219 126.238C439.309 126.346 439.408 126.463 439.516 126.589C439.642 126.697 439.759 126.796 439.867 126.886C439.993 126.958 440.101 126.994 440.191 126.994C440.299 126.994 440.452 126.958 440.65 126.886C440.866 126.796 441.091 126.697 441.325 126.589C441.559 126.463 441.775 126.346 441.973 126.238C442.171 126.112 442.297 126.004 442.351 125.914C442.351 126.004 442.414 126.121 442.54 126.265C442.684 126.391 442.801 126.454 442.891 126.454C442.909 126.454 442.963 126.436 443.053 126.4C443.143 126.346 443.242 126.292 443.35 126.238C443.476 126.184 443.593 126.13 443.701 126.076C443.827 126.004 443.917 125.95 443.971 125.914C443.989 125.896 444.016 125.86 444.052 125.806C444.106 125.752 444.16 125.698 444.214 125.644C444.286 125.572 444.349 125.509 444.403 125.455C444.457 125.401 444.493 125.374 444.511 125.374C444.565 125.374 444.646 125.401 444.754 125.455C444.862 125.491 444.97 125.536 445.078 125.59C445.186 125.644 445.285 125.707 445.375 125.779C445.483 125.833 445.555 125.878 445.591 125.914C445.645 125.572 445.771 125.32 445.969 125.158C446.167 124.978 446.374 124.834 446.59 124.726C446.806 124.618 446.995 124.501 447.157 124.375C447.337 124.249 447.427 124.042 447.427 123.754H446.671C446.959 123.124 447.337 122.566 447.805 122.08C448.273 121.576 448.795 121.144 449.371 120.784H447.751C447.841 120.748 447.949 120.631 448.075 120.433C448.219 120.217 448.291 120.064 448.291 119.974C448.291 119.92 448.264 119.839 448.21 119.731C448.174 119.623 448.129 119.515 448.075 119.407C448.021 119.281 447.958 119.173 447.886 119.083C447.832 118.993 447.787 118.93 447.751 118.894C447.733 118.876 447.67 118.876 447.562 118.894C447.454 118.894 447.337 118.894 447.211 118.894C447.103 118.894 446.986 118.903 446.86 118.921C446.752 118.921 446.689 118.912 446.671 118.894C446.275 118.696 445.969 118.507 445.753 118.327C445.555 118.147 445.384 117.976 445.24 117.814C445.096 117.634 444.961 117.481 444.835 117.355C444.709 117.211 444.529 117.085 444.295 116.977C444.061 116.869 443.746 116.788 443.35 116.734C442.972 116.68 442.459 116.653 441.811 116.653C441.721 116.653 441.577 116.662 441.379 116.68C441.181 116.68 440.965 116.689 440.731 116.707C440.497 116.707 440.272 116.716 440.056 116.734C439.858 116.734 439.723 116.734 439.651 116.734C439.597 116.77 439.498 116.86 439.354 117.004C439.228 117.13 439.147 117.22 439.111 117.274C439.093 117.31 439.057 117.382 439.003 117.49C438.967 117.598 438.913 117.715 438.841 117.841C438.787 117.949 438.733 118.057 438.679 118.165C438.625 118.273 438.589 118.336 438.571 118.354C438.265 118.606 437.887 118.84 437.437 119.056C437.005 119.272 436.582 119.524 436.168 119.812C435.754 120.082 435.394 120.406 435.088 120.784C434.8 121.144 434.656 121.594 434.656 122.134H435.115C435.115 122.17 435.16 122.26 435.25 122.404C435.34 122.548 435.367 122.638 435.331 122.674C434.971 123.034 434.647 123.286 434.359 123.43C434.089 123.574 433.864 123.736 433.684 123.916C433.504 124.078 433.369 124.321 433.279 124.645C433.189 124.951 433.144 125.455 433.144 126.157C433.144 126.661 433.198 127.156 433.306 127.642C433.432 128.11 433.567 128.578 433.711 129.046C433.873 129.514 434.008 129.982 434.116 130.45C434.242 130.9 434.305 131.368 434.305 131.854H435.493C435.493 131.89 435.457 131.98 435.385 132.124C435.313 132.268 435.295 132.358 435.331 132.394C435.385 132.466 435.538 132.619 435.79 132.853C436.042 133.069 436.312 133.303 436.6 133.555C436.906 133.789 437.194 134.014 437.464 134.23C437.752 134.428 437.941 134.536 438.031 134.554C438.085 134.572 438.211 134.581 438.409 134.581C438.625 134.581 438.85 134.581 439.084 134.581C439.336 134.563 439.57 134.554 439.786 134.554C440.002 134.554 440.137 134.554 440.191 134.554C440.227 134.554 440.326 134.59 440.488 134.662C440.65 134.716 440.821 134.779 441.001 134.851C441.181 134.905 441.352 134.959 441.514 135.013C441.676 135.067 441.775 135.094 441.811 135.094C441.829 135.094 441.892 135.067 442 135.013C442.108 134.959 442.225 134.905 442.351 134.851C442.477 134.779 442.585 134.716 442.675 134.662C442.783 134.59 442.855 134.554 442.891 134.554C442.909 134.554 442.981 134.554 443.107 134.554C443.251 134.536 443.359 134.527 443.431 134.527C443.467 134.527 443.557 134.536 443.701 134.554C443.845 134.554 443.935 134.554 443.971 134.554ZM439.651 130.234C439.687 130.288 439.732 130.396 439.786 130.558C439.858 130.702 439.921 130.864 439.975 131.044C440.029 131.206 440.074 131.368 440.11 131.53C440.164 131.674 440.191 131.782 440.191 131.854C440.191 131.944 440.119 132.061 439.975 132.205C439.849 132.331 439.741 132.394 439.651 132.394V130.234ZM441.811 130.234C441.937 130.234 442.036 130.297 442.108 130.423C442.18 130.531 442.216 130.657 442.216 130.801C442.216 130.927 442.18 131.044 442.108 131.152C442.036 131.26 441.937 131.314 441.811 131.314C441.667 131.314 441.559 131.26 441.487 131.152C441.433 131.044 441.406 130.927 441.406 130.801C441.406 130.657 441.433 130.531 441.487 130.423C441.559 130.297 441.667 130.234 441.811 130.234ZM434.251 128.074C434.377 128.074 434.476 128.137 434.548 128.263C434.62 128.371 434.656 128.497 434.656 128.641C434.656 128.767 434.62 128.884 434.548 128.992C434.476 129.1 434.377 129.154 434.251 129.154C434.107 129.154 433.999 129.1 433.927 128.992C433.873 128.884 433.846 128.767 433.846 128.641C433.846 128.497 433.873 128.371 433.927 128.263C433.999 128.137 434.107 128.074 434.251 128.074ZM435.331 128.074C435.457 128.074 435.556 128.137 435.628 128.263C435.7 128.371 435.736 128.497 435.736 128.641C435.736 128.767 435.7 128.884 435.628 128.992C435.556 129.1 435.457 129.154 435.331 129.154C435.187 129.154 435.079 129.1 435.007 128.992C434.953 128.884 434.926 128.767 434.926 128.641C434.926 128.497 434.953 128.371 435.007 128.263C435.079 128.137 435.187 128.074 435.331 128.074ZM438.031 125.374C438.157 125.374 438.256 125.437 438.328 125.563C438.4 125.671 438.436 125.797 438.436 125.941C438.436 126.067 438.4 126.184 438.328 126.292C438.256 126.4 438.157 126.454 438.031 126.454C437.887 126.454 437.779 126.4 437.707 126.292C437.653 126.184 437.626 126.067 437.626 125.941C437.626 125.797 437.653 125.671 437.707 125.563C437.779 125.437 437.887 125.374 438.031 125.374ZM440.191 124.294C440.317 124.294 440.416 124.357 440.488 124.483C440.56 124.591 440.596 124.717 440.596 124.861C440.596 124.987 440.56 125.104 440.488 125.212C440.416 125.32 440.317 125.374 440.191 125.374C440.047 125.374 439.939 125.32 439.867 125.212C439.813 125.104 439.786 124.987 439.786 124.861C439.786 124.717 439.813 124.591 439.867 124.483C439.939 124.357 440.047 124.294 440.191 124.294ZM440.191 122.674C440.317 122.674 440.416 122.737 440.488 122.863C440.56 122.971 440.596 123.097 440.596 123.241C440.596 123.367 440.56 123.484 440.488 123.592C440.416 123.7 440.317 123.754 440.191 123.754C440.047 123.754 439.939 123.7 439.867 123.592C439.813 123.484 439.786 123.367 439.786 123.241C439.786 123.097 439.813 122.971 439.867 122.863C439.939 122.737 440.047 122.674 440.191 122.674ZM441.001 119.731C440.929 119.677 440.857 119.659 440.785 119.677C440.713 119.695 440.65 119.722 440.596 119.758C440.56 119.794 440.542 119.839 440.542 119.893C440.542 119.929 440.569 119.947 440.623 119.947C440.911 119.947 441.127 119.947 441.271 119.947C441.415 119.947 441.514 119.956 441.568 119.974C441.622 119.974 441.64 119.983 441.622 120.001C441.622 120.019 441.613 120.046 441.595 120.082C441.631 120.064 441.667 120.073 441.703 120.109C441.739 120.145 441.775 120.154 441.811 120.136C441.847 120.19 441.874 120.199 441.892 120.163C441.91 120.127 441.937 120.118 441.973 120.136L442.027 120.082H442.162C442.306 119.938 442.45 119.812 442.594 119.704C442.738 119.578 442.855 119.416 442.945 119.218C443.053 119.2 443.098 119.236 443.08 119.326C443.062 119.398 443.026 119.506 442.972 119.65C442.936 119.776 442.909 119.92 442.891 120.082C442.873 120.226 442.909 120.352 442.999 120.46C442.945 120.514 442.945 120.505 442.999 120.433C443.071 120.343 443.152 120.253 443.242 120.163C443.35 120.055 443.449 119.965 443.539 119.893C443.647 119.821 443.719 119.821 443.755 119.893C443.845 119.929 443.908 120.001 443.944 120.109C443.998 120.199 444.07 120.262 444.16 120.298C444.196 120.514 444.142 120.703 443.998 120.865C443.854 121.027 443.737 121.18 443.647 121.324C443.719 121.828 443.584 122.269 443.242 122.647C443.188 122.701 443.026 122.701 442.756 122.647C442.504 122.593 442.225 122.53 441.919 122.458C441.613 122.386 441.325 122.323 441.055 122.269C440.785 122.215 440.614 122.206 440.542 122.242C440.398 122.242 440.299 122.125 440.245 121.891C440.209 121.657 440.2 121.396 440.218 121.108C440.254 120.82 440.308 120.559 440.38 120.325C440.47 120.091 440.587 119.974 440.731 119.974L441.001 119.731ZM441.271 117.814C441.397 117.814 441.496 117.877 441.568 118.003C441.64 118.111 441.676 118.237 441.676 118.381C441.676 118.507 441.64 118.624 441.568 118.732C441.496 118.84 441.397 118.894 441.271 118.894C441.127 118.894 441.019 118.84 440.947 118.732C440.893 118.624 440.866 118.507 440.866 118.381C440.866 118.237 440.893 118.111 440.947 118.003C441.019 117.877 441.127 117.814 441.271 117.814ZM472.501 129.181C472.501 129.271 472.447 129.424 472.339 129.64C472.249 129.838 472.222 129.982 472.258 130.072C472.384 130.324 472.573 130.612 472.825 130.936C473.077 131.242 473.338 131.566 473.608 131.908C473.896 132.25 474.157 132.592 474.391 132.934C474.643 133.258 474.832 133.564 474.958 133.852C474.976 133.888 474.976 133.987 474.958 134.149C474.958 134.311 474.949 134.482 474.931 134.662C474.931 134.842 474.931 135.013 474.931 135.175C474.931 135.337 474.94 135.436 474.958 135.472C475.228 135.94 475.561 136.228 475.957 136.336C476.371 136.444 476.767 136.498 477.145 136.498C477.523 136.516 477.856 136.534 478.144 136.552C478.45 136.588 478.648 136.768 478.738 137.092C478.792 137.038 478.891 136.957 479.035 136.849C479.197 136.759 479.359 136.651 479.521 136.525C479.701 136.417 479.863 136.309 480.007 136.201C480.169 136.111 480.286 136.048 480.358 136.012C480.394 135.976 480.457 135.94 480.547 135.904C480.637 135.886 480.7 135.877 480.736 135.877C480.736 135.625 480.772 135.427 480.844 135.283C480.916 135.139 480.997 135.013 481.087 134.905C481.195 134.797 481.285 134.689 481.357 134.581C481.429 134.473 481.465 134.32 481.465 134.122C481.465 133.834 481.393 133.573 481.249 133.339C481.105 133.087 480.925 132.862 480.709 132.664C480.493 132.448 480.25 132.259 479.98 132.097C479.728 131.935 479.494 131.8 479.278 131.692C479.242 131.674 479.143 131.674 478.981 131.692C478.837 131.71 478.756 131.71 478.738 131.692C478.216 131.17 477.865 130.684 477.685 130.234C477.505 129.766 477.379 129.316 477.307 128.884C477.253 128.452 477.19 128.029 477.118 127.615C477.064 127.201 476.884 126.76 476.578 126.292C476.416 126.058 476.155 125.761 475.795 125.401C475.453 125.023 475.075 124.663 474.661 124.321C474.247 123.961 473.824 123.655 473.392 123.403C472.978 123.151 472.609 123.025 472.285 123.025C471.745 123.025 471.241 123.205 470.773 123.565C470.305 123.907 469.846 124.285 469.396 124.699C468.964 125.113 468.532 125.5 468.1 125.86C467.686 126.202 467.263 126.373 466.831 126.373C466.615 126.373 466.354 126.229 466.048 125.941C465.76 125.635 465.463 125.293 465.157 124.915C464.851 124.537 464.554 124.168 464.266 123.808C463.996 123.448 463.78 123.196 463.618 123.052C463.888 122.908 464.068 122.728 464.158 122.512C464.248 122.296 464.293 122.053 464.293 121.783C464.185 121.783 463.996 121.792 463.726 121.81C463.456 121.828 463.168 121.846 462.862 121.864C462.574 121.882 462.295 121.9 462.025 121.918C461.755 121.936 461.566 121.954 461.458 121.972C461.152 122.008 460.909 122.089 460.729 122.215C460.567 122.323 460.414 122.458 460.27 122.62C460.144 122.782 460.009 122.953 459.865 123.133C459.721 123.295 459.532 123.448 459.298 123.592C459.262 123.61 459.172 123.61 459.028 123.592C458.884 123.574 458.794 123.574 458.758 123.592C458.686 123.628 458.578 123.718 458.434 123.862C458.308 123.988 458.236 124.078 458.218 124.132C458.218 124.168 458.218 124.24 458.218 124.348C458.218 124.456 458.218 124.573 458.218 124.699C458.236 124.807 458.245 124.915 458.245 125.023C458.245 125.131 458.236 125.194 458.218 125.212C458.2 125.248 458.137 125.293 458.029 125.347C457.939 125.383 457.831 125.428 457.705 125.482C457.579 125.536 457.453 125.59 457.327 125.644C457.219 125.698 457.156 125.734 457.138 125.752C457.084 125.788 457.003 125.86 456.895 125.968C456.805 126.058 456.697 126.166 456.571 126.292C456.463 126.4 456.355 126.508 456.247 126.616C456.157 126.706 456.094 126.778 456.058 126.832C456.094 126.67 456.121 126.472 456.139 126.238C456.175 125.986 456.166 125.743 456.112 125.509C456.076 125.275 455.986 125.077 455.842 124.915C455.716 124.735 455.518 124.645 455.248 124.645C455.212 124.645 455.158 124.654 455.086 124.672C455.014 124.672 454.978 124.672 454.978 124.672C454.924 124.708 454.825 124.798 454.681 124.942C454.555 125.068 454.474 125.158 454.438 125.212C454.51 124.942 454.528 124.672 454.492 124.402C454.474 124.132 454.411 123.889 454.303 123.673C454.195 123.457 454.033 123.286 453.817 123.16C453.619 123.016 453.367 122.944 453.061 122.944C452.971 122.944 452.818 122.962 452.602 122.998C452.404 123.016 452.296 123.034 452.278 123.052C452.188 123.106 452.062 123.232 451.9 123.43C451.738 123.628 451.567 123.844 451.387 124.078C451.207 124.312 451.045 124.537 450.901 124.753C450.775 124.951 450.694 125.104 450.658 125.212C450.838 125.338 450.991 125.536 451.117 125.806C451.243 126.058 451.378 126.301 451.522 126.535C451.666 126.751 451.837 126.913 452.035 127.021C452.233 127.111 452.494 127.048 452.818 126.832C452.512 127.048 452.278 127.264 452.116 127.48C451.972 127.696 451.864 127.93 451.792 128.182C451.738 128.416 451.702 128.668 451.684 128.938C451.684 129.19 451.684 129.469 451.684 129.775C451.684 130.189 451.693 130.558 451.711 130.882C451.747 131.206 451.801 131.521 451.873 131.827C451.963 132.133 452.08 132.448 452.224 132.772C452.368 133.096 452.566 133.456 452.818 133.852C452.89 133.852 453.025 133.861 453.223 133.879C453.439 133.879 453.664 133.888 453.898 133.906C454.132 133.906 454.348 133.906 454.546 133.906C454.744 133.906 454.888 133.906 454.978 133.906C455.986 133.906 456.787 133.78 457.381 133.528C457.975 133.258 458.443 132.925 458.785 132.529C459.127 132.133 459.388 131.71 459.568 131.26C459.766 130.81 459.964 130.387 460.162 129.991C460.36 129.595 460.603 129.271 460.891 129.019C461.197 128.749 461.638 128.614 462.214 128.614C462.214 128.704 462.196 128.839 462.16 129.019C462.142 129.199 462.115 129.397 462.079 129.613C462.061 129.829 462.034 130.036 461.998 130.234C461.98 130.414 461.98 130.54 461.998 130.612C462.052 130.9 462.286 131.233 462.7 131.611C463.132 131.989 463.609 132.349 464.131 132.691C464.653 133.033 465.175 133.321 465.697 133.555C466.237 133.789 466.642 133.906 466.912 133.906C467.326 133.906 467.74 133.699 468.154 133.285C468.586 132.871 469 132.394 469.396 131.854C469.81 131.296 470.206 130.747 470.584 130.207C470.98 129.667 471.358 129.262 471.718 128.992C471.736 128.974 471.781 128.974 471.853 128.992C471.943 129.01 472.024 129.037 472.096 129.073C472.186 129.091 472.267 129.118 472.339 129.154C472.429 129.172 472.483 129.181 472.501 129.181ZM479.278 135.472C479.242 135.634 479.152 135.715 479.008 135.715C478.864 135.715 478.774 135.634 478.738 135.472C478.72 135.4 478.738 135.337 478.792 135.283C478.864 135.247 478.936 135.229 479.008 135.229C479.08 135.229 479.143 135.247 479.197 135.283C479.269 135.337 479.296 135.4 479.278 135.472ZM477.118 133.852C477.244 133.852 477.343 133.915 477.415 134.041C477.487 134.149 477.523 134.275 477.523 134.419C477.523 134.545 477.487 134.662 477.415 134.77C477.343 134.878 477.244 134.932 477.118 134.932C476.974 134.932 476.866 134.878 476.794 134.77C476.74 134.662 476.713 134.545 476.713 134.419C476.713 134.275 476.74 134.149 476.794 134.041C476.866 133.915 476.974 133.852 477.118 133.852ZM453.898 132.772H454.438V133.312L453.898 132.772ZM458.218 130.612C458.344 130.612 458.443 130.675 458.515 130.801C458.587 130.909 458.623 131.035 458.623 131.179C458.623 131.305 458.587 131.422 458.515 131.53C458.443 131.638 458.344 131.692 458.218 131.692C458.074 131.692 457.966 131.638 457.894 131.53C457.84 131.422 457.813 131.305 457.813 131.179C457.813 131.035 457.84 130.909 457.894 130.801C457.966 130.675 458.074 130.612 458.218 130.612ZM469.018 130.612V131.152H468.478L469.018 130.612ZM459.298 130.072C459.46 130.108 459.541 130.198 459.541 130.342C459.541 130.486 459.46 130.576 459.298 130.612C459.208 130.63 459.145 130.612 459.109 130.558C459.073 130.486 459.055 130.414 459.055 130.342C459.055 130.27 459.073 130.207 459.109 130.153C459.145 130.081 459.208 130.054 459.298 130.072ZM457.678 129.532C457.84 129.568 457.921 129.658 457.921 129.802C457.921 129.946 457.84 130.036 457.678 130.072C457.588 130.09 457.525 130.072 457.489 130.018C457.453 129.946 457.435 129.874 457.435 129.802C457.435 129.73 457.453 129.667 457.489 129.613C457.525 129.541 457.588 129.514 457.678 129.532ZM452.818 128.452C452.944 128.452 453.043 128.515 453.115 128.641C453.187 128.749 453.223 128.875 453.223 129.019C453.223 129.145 453.187 129.262 453.115 129.37C453.043 129.478 452.944 129.532 452.818 129.532C452.674 129.532 452.566 129.478 452.494 129.37C452.44 129.262 452.413 129.145 452.413 129.019C452.413 128.875 452.44 128.749 452.494 128.641C452.566 128.515 452.674 128.452 452.818 128.452ZM464.698 127.372C464.824 127.372 464.923 127.435 464.995 127.561C465.067 127.669 465.103 127.795 465.103 127.939C465.103 128.065 465.067 128.182 464.995 128.29C464.923 128.398 464.824 128.452 464.698 128.452C464.554 128.452 464.446 128.398 464.374 128.29C464.32 128.182 464.293 128.065 464.293 127.939C464.293 127.795 464.32 127.669 464.374 127.561C464.446 127.435 464.554 127.372 464.698 127.372ZM466.318 127.372C466.444 127.372 466.543 127.435 466.615 127.561C466.687 127.669 466.723 127.795 466.723 127.939C466.723 128.065 466.687 128.182 466.615 128.29C466.543 128.398 466.444 128.452 466.318 128.452C466.174 128.452 466.066 128.398 465.994 128.29C465.94 128.182 465.913 128.065 465.913 127.939C465.913 127.795 465.94 127.669 465.994 127.561C466.066 127.435 466.174 127.372 466.318 127.372ZM473.878 127.372C474.004 127.372 474.103 127.435 474.175 127.561C474.247 127.669 474.283 127.795 474.283 127.939C474.283 128.065 474.247 128.182 474.175 128.29C474.103 128.398 474.004 128.452 473.878 128.452C473.734 128.452 473.626 128.398 473.554 128.29C473.5 128.182 473.473 128.065 473.473 127.939C473.473 127.795 473.5 127.669 473.554 127.561C473.626 127.435 473.734 127.372 473.878 127.372ZM472.798 126.832C472.96 126.868 473.041 126.958 473.041 127.102C473.041 127.246 472.96 127.336 472.798 127.372C472.708 127.39 472.645 127.372 472.609 127.318C472.573 127.246 472.555 127.174 472.555 127.102C472.555 127.03 472.573 126.967 472.609 126.913C472.645 126.841 472.708 126.814 472.798 126.832ZM454.978 126.292C455.14 126.328 455.221 126.418 455.221 126.562C455.221 126.706 455.14 126.796 454.978 126.832C454.888 126.85 454.825 126.832 454.789 126.778C454.753 126.706 454.735 126.634 454.735 126.562C454.735 126.49 454.753 126.427 454.789 126.373C454.825 126.301 454.888 126.274 454.978 126.292ZM459.298 125.212C459.424 125.212 459.523 125.275 459.595 125.401C459.667 125.509 459.703 125.635 459.703 125.779C459.703 125.905 459.667 126.022 459.595 126.13C459.523 126.238 459.424 126.292 459.298 126.292C459.154 126.292 459.046 126.238 458.974 126.13C458.92 126.022 458.893 125.905 458.893 125.779C458.893 125.635 458.92 125.509 458.974 125.401C459.046 125.275 459.154 125.212 459.298 125.212ZM481.685 130.018C481.685 130.126 481.685 130.279 481.685 130.477C481.703 130.657 481.721 130.756 481.739 130.774C481.757 130.81 481.82 130.882 481.928 130.99C482.036 131.08 482.153 131.188 482.279 131.314C482.405 131.44 482.522 131.557 482.63 131.665C482.738 131.755 482.801 131.818 482.819 131.854C482.981 132.178 483.098 132.565 483.17 133.015C483.242 133.447 483.341 133.861 483.467 134.257C483.593 134.635 483.782 134.959 484.034 135.229C484.304 135.517 484.709 135.661 485.249 135.661C485.285 135.661 485.339 135.652 485.411 135.634C485.483 135.634 485.519 135.634 485.519 135.634C485.537 135.634 485.573 135.598 485.627 135.526C485.681 135.472 485.735 135.409 485.789 135.337C485.843 135.283 485.897 135.229 485.951 135.175C486.005 135.121 486.041 135.094 486.059 135.094C486.113 135.094 486.194 135.112 486.302 135.148C486.41 135.202 486.518 135.256 486.626 135.31C486.734 135.364 486.833 135.418 486.923 135.472C487.031 135.544 487.103 135.598 487.139 135.634C487.247 135.58 487.427 135.472 487.679 135.31C487.949 135.166 488.228 135.013 488.516 134.851C488.804 134.671 489.074 134.509 489.326 134.365C489.578 134.203 489.749 134.086 489.839 134.014C489.893 133.96 489.974 133.888 490.082 133.798C490.208 133.69 490.325 133.582 490.433 133.474C490.559 133.348 490.667 133.24 490.757 133.15C490.847 133.042 490.901 132.97 490.919 132.934C490.937 132.898 490.937 132.826 490.919 132.718C490.901 132.592 490.874 132.475 490.838 132.367C490.802 132.241 490.766 132.124 490.73 132.016C490.694 131.89 490.676 131.809 490.676 131.773C490.694 131.773 490.739 131.782 490.811 131.8C490.901 131.8 490.982 131.809 491.054 131.827C491.144 131.845 491.225 131.854 491.297 131.854C491.387 131.854 491.441 131.854 491.459 131.854C491.477 131.854 491.54 131.827 491.648 131.773C491.756 131.701 491.873 131.638 491.999 131.584C492.125 131.512 492.233 131.449 492.323 131.395C492.431 131.341 492.503 131.314 492.539 131.314C492.683 131.35 492.881 131.458 493.133 131.638C493.403 131.818 493.664 132.043 493.916 132.313C494.168 132.565 494.384 132.826 494.564 133.096C494.744 133.366 494.834 133.609 494.834 133.825C494.888 133.825 495.032 133.834 495.266 133.852C495.5 133.852 495.761 133.87 496.049 133.906C496.355 133.942 496.661 133.996 496.967 134.068C497.273 134.14 497.525 134.248 497.723 134.392C497.939 134.518 498.074 134.689 498.128 134.905C498.2 135.103 498.137 135.346 497.939 135.634C498.353 135.364 498.641 135.112 498.803 134.878C498.965 134.626 499.1 134.374 499.208 134.122C499.334 133.87 499.487 133.609 499.667 133.339C499.847 133.051 500.171 132.736 500.639 132.394C500.549 132.322 500.396 132.187 500.18 131.989C499.982 131.791 499.766 131.575 499.532 131.341C499.298 131.107 499.082 130.891 498.884 130.693C498.686 130.477 498.551 130.324 498.479 130.234C498.461 130.216 498.425 130.153 498.371 130.045C498.317 129.937 498.263 129.82 498.209 129.694C498.155 129.568 498.101 129.451 498.047 129.343C497.993 129.235 497.957 129.172 497.939 129.154C497.921 129.136 497.867 129.136 497.777 129.154C497.705 129.172 497.624 129.199 497.534 129.235C497.462 129.271 497.381 129.307 497.291 129.343C497.219 129.361 497.174 129.37 497.156 129.37C497.156 129.334 497.174 129.253 497.21 129.127C497.246 129.001 497.282 128.866 497.318 128.722C497.354 128.578 497.381 128.443 497.399 128.317C497.417 128.191 497.417 128.11 497.399 128.074C497.381 128.038 497.318 127.966 497.21 127.858C497.102 127.75 496.985 127.642 496.859 127.534C496.733 127.408 496.616 127.3 496.508 127.21C496.4 127.102 496.337 127.03 496.319 126.994C496.031 126.634 495.788 126.319 495.59 126.049C495.392 125.761 495.212 125.473 495.05 125.185C494.888 124.897 494.735 124.6 494.591 124.294C494.465 123.988 494.321 123.628 494.159 123.214C494.123 123.142 494.078 123.052 494.024 122.944C493.97 122.818 493.916 122.701 493.862 122.593C493.808 122.467 493.754 122.359 493.7 122.269C493.664 122.179 493.637 122.134 493.619 122.134C493.583 122.116 493.511 122.125 493.403 122.161C493.295 122.179 493.187 122.215 493.079 122.269C492.971 122.305 492.863 122.35 492.755 122.404C492.647 122.44 492.575 122.458 492.539 122.458V121.216C492.269 121.216 492.053 121.18 491.891 121.108C491.729 121.036 491.585 120.955 491.459 120.865C491.351 120.757 491.234 120.667 491.108 120.595C491 120.523 490.847 120.487 490.649 120.487C490.613 120.487 490.559 120.496 490.487 120.514C490.433 120.514 490.397 120.514 490.379 120.514C490.343 120.514 490.271 120.55 490.163 120.622C490.073 120.676 489.965 120.739 489.839 120.811C489.713 120.865 489.596 120.919 489.488 120.973C489.38 121.027 489.317 121.054 489.299 121.054C489.209 121.054 489.092 120.991 488.948 120.865C488.822 120.721 488.759 120.604 488.759 120.514C488.687 120.604 488.543 120.757 488.327 120.973C488.129 121.171 487.913 121.387 487.679 121.621C487.463 121.855 487.247 122.071 487.031 122.269C486.833 122.467 486.689 122.602 486.599 122.674C486.563 122.692 486.473 122.692 486.329 122.674C486.185 122.656 486.095 122.656 486.059 122.674C486.005 122.71 485.924 122.782 485.816 122.89C485.708 122.998 485.591 123.106 485.465 123.214C485.357 123.322 485.249 123.43 485.141 123.538C485.051 123.646 484.997 123.718 484.979 123.754C484.943 123.808 484.871 123.97 484.763 124.24C484.673 124.51 484.565 124.798 484.439 125.104C484.331 125.41 484.223 125.698 484.115 125.968C484.007 126.238 483.935 126.4 483.899 126.454C483.881 126.49 483.818 126.535 483.71 126.589C483.62 126.643 483.512 126.697 483.386 126.751C483.26 126.805 483.134 126.859 483.008 126.913C482.9 126.949 482.837 126.976 482.819 126.994C482.621 127.12 482.45 127.309 482.306 127.561C482.18 127.813 482.063 128.083 481.955 128.371C481.865 128.659 481.793 128.956 481.739 129.262C481.703 129.55 481.685 129.802 481.685 130.018ZM494.159 129.694C494.285 129.694 494.384 129.757 494.456 129.883C494.528 129.991 494.564 130.117 494.564 130.261C494.564 130.387 494.528 130.504 494.456 130.612C494.384 130.72 494.285 130.774 494.159 130.774C494.015 130.774 493.907 130.72 493.835 130.612C493.781 130.504 493.754 130.387 493.754 130.261C493.754 130.117 493.781 129.991 493.835 129.883C493.907 129.757 494.015 129.694 494.159 129.694ZM491.459 124.834C491.405 124.978 491.279 125.203 491.081 125.509C490.883 125.815 490.667 126.148 490.433 126.508C490.199 126.85 489.974 127.174 489.758 127.48C489.56 127.768 489.407 127.966 489.299 128.074C489.245 128.128 489.119 128.236 488.921 128.398C488.741 128.542 488.534 128.704 488.3 128.884C488.084 129.046 487.859 129.208 487.625 129.37C487.409 129.514 487.247 129.622 487.139 129.694C487.121 129.694 487.076 129.703 487.004 129.721C486.95 129.721 486.905 129.721 486.869 129.721C486.833 129.721 486.779 129.721 486.707 129.721C486.653 129.703 486.617 129.694 486.599 129.694C486.707 129.514 486.905 129.208 487.193 128.776C487.499 128.326 487.814 127.867 488.138 127.399C488.48 126.913 488.804 126.481 489.11 126.103C489.434 125.707 489.677 125.464 489.839 125.374C489.875 125.356 489.965 125.356 490.109 125.374C490.253 125.392 490.343 125.392 490.379 125.374C490.469 125.338 490.649 125.257 490.919 125.131C491.189 124.987 491.369 124.888 491.459 124.834ZM505.897 135.472V136.255C506.005 136.255 506.23 136.165 506.572 135.985C506.932 135.823 507.292 135.625 507.652 135.391C508.03 135.175 508.363 134.968 508.651 134.77C508.957 134.572 509.119 134.446 509.137 134.392C509.155 134.338 509.155 134.212 509.137 134.014C509.137 133.798 509.128 133.564 509.11 133.312C509.11 133.06 509.101 132.835 509.083 132.637C509.083 132.421 509.101 132.286 509.137 132.232C509.191 132.142 509.317 132.034 509.515 131.908C509.713 131.782 509.92 131.665 510.136 131.557C510.37 131.431 510.595 131.332 510.811 131.26C511.027 131.188 511.189 131.152 511.297 131.152C511.297 131.134 511.297 131.098 511.297 131.044C511.315 130.972 511.324 130.918 511.324 130.882C511.324 130.846 511.315 130.801 511.297 130.747C511.297 130.675 511.297 130.63 511.297 130.612C511.297 130.594 511.261 130.531 511.189 130.423C511.135 130.315 511.072 130.198 511 130.072C510.928 129.946 510.865 129.838 510.811 129.748C510.757 129.64 510.739 129.568 510.757 129.532C510.775 129.496 510.847 129.406 510.973 129.262C511.117 129.118 511.27 128.965 511.432 128.803C511.612 128.623 511.783 128.452 511.945 128.29C512.125 128.128 512.269 128.002 512.377 127.912C512.377 127.912 512.404 127.912 512.458 127.912C512.53 127.894 512.584 127.885 512.62 127.885C512.656 127.885 512.71 127.894 512.782 127.912C512.854 127.912 512.899 127.912 512.917 127.912C513.007 127.948 513.187 128.038 513.457 128.182C513.727 128.308 513.907 128.398 513.997 128.452C513.745 128.758 513.583 129.019 513.511 129.235C513.457 129.451 513.43 129.73 513.43 130.072C513.43 130.612 513.556 131.089 513.808 131.503C514.078 131.899 514.456 132.097 514.942 132.097C514.942 132.277 514.96 132.421 514.996 132.529C515.05 132.619 515.077 132.709 515.077 132.799C515.077 132.871 515.041 132.952 514.969 133.042C514.897 133.114 514.753 133.204 514.537 133.312L515.617 135.472C515.689 135.418 515.824 135.337 516.022 135.229C516.238 135.139 516.463 135.04 516.697 134.932C516.931 134.806 517.147 134.698 517.345 134.608C517.543 134.5 517.687 134.428 517.777 134.392C517.813 134.374 517.903 134.365 518.047 134.365C518.191 134.365 518.281 134.374 518.317 134.392L518.857 131.692C518.875 131.656 518.884 131.566 518.884 131.422C518.902 131.278 518.911 131.188 518.911 131.152H517.777V127.372C517.435 127.156 517.192 126.895 517.048 126.589C516.904 126.265 516.796 125.941 516.724 125.617C516.652 125.275 516.58 124.933 516.508 124.591C516.454 124.231 516.337 123.898 516.157 123.592C516.139 123.574 516.076 123.538 515.968 123.484C515.878 123.43 515.77 123.376 515.644 123.322C515.518 123.268 515.392 123.214 515.266 123.16C515.158 123.106 515.095 123.07 515.077 123.052C515.041 123.034 514.969 122.971 514.861 122.863C514.771 122.737 514.663 122.611 514.537 122.485C514.429 122.359 514.321 122.242 514.213 122.134C514.105 122.026 514.033 121.972 513.997 121.972C513.961 121.972 513.862 121.999 513.7 122.053C513.538 122.107 513.367 122.17 513.187 122.242C513.007 122.314 512.836 122.386 512.674 122.458C512.512 122.512 512.413 122.53 512.377 122.512C512.305 122.494 512.233 122.44 512.161 122.35C512.089 122.26 512.026 122.161 511.972 122.053C511.918 121.927 511.873 121.81 511.837 121.702C511.801 121.594 511.801 121.504 511.837 121.432C511.819 121.576 511.693 121.783 511.459 122.053C511.225 122.323 510.937 122.62 510.595 122.944C510.271 123.268 509.911 123.601 509.515 123.943C509.137 124.267 508.777 124.573 508.435 124.861C508.111 125.131 507.832 125.356 507.598 125.536C507.364 125.716 507.247 125.806 507.247 125.806C507.211 125.806 507.157 125.806 507.085 125.806C507.031 125.788 506.995 125.77 506.977 125.752L504.277 123.052C504.277 123.052 504.241 123.043 504.169 123.025C504.115 123.007 504.07 122.998 504.034 122.998C503.782 122.998 503.512 123.079 503.224 123.241C502.954 123.403 502.675 123.601 502.387 123.835C502.117 124.069 501.856 124.312 501.604 124.564C501.37 124.816 501.181 125.032 501.037 125.212C501.091 125.194 501.172 125.203 501.28 125.239C501.406 125.275 501.523 125.32 501.631 125.374C501.757 125.428 501.865 125.491 501.955 125.563C502.045 125.635 502.099 125.698 502.117 125.752C502.135 125.806 502.144 125.941 502.144 126.157C502.144 126.355 502.135 126.58 502.117 126.832C502.117 127.066 502.108 127.291 502.09 127.507C502.09 127.723 502.099 127.858 502.117 127.912C502.117 127.948 502.162 128.074 502.252 128.29C502.342 128.506 502.441 128.758 502.549 129.046C502.675 129.334 502.792 129.622 502.9 129.91C503.026 130.198 503.125 130.432 503.197 130.612C503.215 130.648 503.251 130.72 503.305 130.828C503.359 130.918 503.413 131.026 503.467 131.152C503.539 131.278 503.602 131.395 503.656 131.503C503.71 131.611 503.737 131.674 503.737 131.692C503.737 131.728 503.71 131.8 503.656 131.908C503.602 131.998 503.539 132.106 503.467 132.232C503.395 132.358 503.332 132.475 503.278 132.583C503.224 132.691 503.197 132.754 503.197 132.772C503.197 132.844 503.215 132.961 503.251 133.123C503.305 133.267 503.359 133.429 503.413 133.609C503.467 133.771 503.521 133.933 503.575 134.095C503.647 134.239 503.701 134.338 503.737 134.392C503.755 134.428 503.818 134.473 503.926 134.527C504.034 134.563 504.151 134.608 504.277 134.662C504.403 134.716 504.52 134.77 504.628 134.824C504.736 134.878 504.799 134.914 504.817 134.932C504.853 134.968 504.898 135.058 504.952 135.202C505.006 135.346 505.033 135.436 505.033 135.472H505.897ZM517.777 132.772C517.939 132.808 518.02 132.898 518.02 133.042C518.02 133.186 517.939 133.276 517.777 133.312C517.687 133.33 517.624 133.312 517.588 133.258C517.552 133.186 517.534 133.114 517.534 133.042C517.534 132.97 517.552 132.907 517.588 132.853C517.624 132.781 517.687 132.754 517.777 132.772ZM506.977 126.832V127.912H506.437L506.977 126.832ZM508.597 127.372C508.759 127.408 508.84 127.498 508.84 127.642C508.84 127.786 508.759 127.876 508.597 127.912C508.507 127.93 508.444 127.912 508.408 127.858C508.372 127.786 508.354 127.714 508.354 127.642C508.354 127.57 508.372 127.507 508.408 127.453C508.444 127.381 508.507 127.354 508.597 127.372ZM511.837 126.832C511.963 126.832 512.062 126.895 512.134 127.021C512.206 127.129 512.242 127.255 512.242 127.399C512.242 127.525 512.206 127.642 512.134 127.75C512.062 127.858 511.963 127.912 511.837 127.912C511.693 127.912 511.585 127.858 511.513 127.75C511.459 127.642 511.432 127.525 511.432 127.399C511.432 127.255 511.459 127.129 511.513 127.021C511.585 126.895 511.693 126.832 511.837 126.832ZM503.197 125.752C503.323 125.752 503.422 125.815 503.494 125.941C503.566 126.049 503.602 126.175 503.602 126.319C503.602 126.445 503.566 126.562 503.494 126.67C503.422 126.778 503.323 126.832 503.197 126.832C503.053 126.832 502.945 126.778 502.873 126.67C502.819 126.562 502.792 126.445 502.792 126.319C502.792 126.175 502.819 126.049 502.873 125.941C502.945 125.815 503.053 125.752 503.197 125.752ZM504.817 124.132C504.943 124.132 505.042 124.195 505.114 124.321C505.186 124.429 505.222 124.555 505.222 124.699C505.222 124.825 505.186 124.942 505.114 125.05C505.042 125.158 504.943 125.212 504.817 125.212C504.673 125.212 504.565 125.158 504.493 125.05C504.439 124.942 504.412 124.825 504.412 124.699C504.412 124.555 504.439 124.429 504.493 124.321C504.565 124.195 504.673 124.132 504.817 124.132ZM519.55 129.532C519.55 129.568 519.55 129.622 519.55 129.694C519.568 129.766 519.577 129.802 519.577 129.802C519.613 129.892 519.694 130.072 519.82 130.342C519.964 130.612 520.063 130.792 520.117 130.882C520.135 130.9 520.171 130.936 520.225 130.99C520.279 131.026 520.333 131.08 520.387 131.152C520.459 131.206 520.522 131.26 520.576 131.314C520.63 131.368 520.657 131.404 520.657 131.422C520.657 131.458 520.657 131.53 520.657 131.638C520.657 131.728 520.657 131.836 520.657 131.962C520.657 132.088 520.657 132.205 520.657 132.313C520.657 132.421 520.657 132.484 520.657 132.502C520.729 132.754 520.864 132.997 521.062 133.231C521.26 133.447 521.458 133.672 521.656 133.906C521.854 134.122 522.025 134.356 522.169 134.608C522.331 134.842 522.412 135.103 522.412 135.391C522.52 135.391 522.691 135.382 522.925 135.364C523.159 135.346 523.411 135.328 523.681 135.31C523.951 135.292 524.203 135.274 524.437 135.256C524.689 135.238 524.869 135.22 524.977 135.202C524.995 135.202 525.058 135.166 525.166 135.094C525.274 135.04 525.391 134.986 525.517 134.932C525.643 134.86 525.751 134.797 525.841 134.743C525.949 134.689 526.021 134.662 526.057 134.662C526.075 134.662 526.111 134.689 526.165 134.743C526.219 134.797 526.273 134.86 526.327 134.932C526.381 135.004 526.435 135.067 526.489 135.121C526.543 135.175 526.579 135.202 526.597 135.202C526.615 135.202 526.678 135.175 526.786 135.121C526.894 135.067 527.011 135.013 527.137 134.959C527.263 134.887 527.371 134.824 527.461 134.77C527.569 134.698 527.641 134.662 527.677 134.662C527.731 134.662 527.866 134.662 528.082 134.662C528.298 134.662 528.523 134.671 528.757 134.689C529.009 134.689 529.234 134.689 529.432 134.689C529.648 134.689 529.783 134.68 529.837 134.662C529.855 134.644 529.891 134.581 529.945 134.473C529.999 134.365 530.053 134.248 530.107 134.122C530.161 133.996 530.215 133.879 530.269 133.771C530.323 133.663 530.359 133.6 530.377 133.582C530.413 133.546 530.503 133.474 530.647 133.366C530.791 133.258 530.944 133.15 531.106 133.042C531.286 132.934 531.457 132.826 531.619 132.718C531.781 132.61 531.907 132.538 531.997 132.502C532.015 132.502 532.051 132.502 532.105 132.502C532.177 132.484 532.231 132.475 532.267 132.475C532.303 132.475 532.357 132.484 532.429 132.502C532.501 132.502 532.537 132.502 532.537 132.502C532.573 132.52 532.663 132.61 532.807 132.772C532.951 132.934 533.041 133.024 533.077 133.042C533.077 133.042 533.104 133.051 533.158 133.069C533.23 133.069 533.284 133.069 533.32 133.069C533.356 133.069 533.41 133.069 533.482 133.069C533.554 133.051 533.599 133.042 533.617 133.042L536.857 132.502C536.857 132.484 536.857 132.448 536.857 132.394C536.875 132.322 536.884 132.268 536.884 132.232C536.884 132.196 536.875 132.151 536.857 132.097C536.857 132.025 536.857 131.98 536.857 131.962C536.839 131.926 536.803 131.827 536.749 131.665C536.695 131.503 536.632 131.332 536.56 131.152C536.506 130.972 536.452 130.801 536.398 130.639C536.344 130.477 536.317 130.378 536.317 130.342C536.317 130.27 536.335 130.162 536.371 130.018C536.425 129.856 536.479 129.694 536.533 129.532C536.587 129.352 536.641 129.19 536.695 129.046C536.767 128.884 536.821 128.776 536.857 128.722L535.777 129.262C535.687 129.136 535.579 128.947 535.453 128.695C535.345 128.443 535.228 128.182 535.102 127.912C534.994 127.642 534.895 127.381 534.805 127.129C534.733 126.877 534.697 126.688 534.697 126.562C534.697 126.508 534.715 126.427 534.751 126.319C534.805 126.211 534.859 126.103 534.913 125.995C534.967 125.887 535.021 125.788 535.075 125.698C535.147 125.59 535.201 125.518 535.237 125.482C535.183 125.482 535.102 125.464 534.994 125.428C534.886 125.374 534.769 125.32 534.643 125.266C534.535 125.212 534.427 125.158 534.319 125.104C534.229 125.032 534.175 124.978 534.157 124.942C534.157 124.942 534.148 124.888 534.13 124.78C534.13 124.654 534.13 124.555 534.13 124.483C534.13 124.051 534.157 123.637 534.211 123.241C534.283 122.827 534.355 122.422 534.427 122.026C534.517 121.612 534.589 121.198 534.643 120.784C534.715 120.37 534.751 119.947 534.751 119.515C534.751 119.371 534.742 119.182 534.724 118.948C534.724 118.714 534.724 118.489 534.724 118.273C534.724 118.039 534.715 117.841 534.697 117.679C534.697 117.499 534.697 117.4 534.697 117.382C534.697 117.346 534.661 117.247 534.589 117.085C534.535 116.923 534.472 116.752 534.4 116.572C534.346 116.392 534.292 116.221 534.238 116.059C534.184 115.897 534.157 115.798 534.157 115.762C534.157 115.744 534.184 115.681 534.238 115.573C534.292 115.465 534.346 115.348 534.4 115.222C534.472 115.096 534.535 114.988 534.589 114.898C534.661 114.79 534.697 114.718 534.697 114.682C534.697 114.664 534.697 114.628 534.697 114.574C534.715 114.502 534.724 114.448 534.724 114.412C534.724 114.16 534.661 113.836 534.535 113.44C534.409 113.026 534.238 112.63 534.022 112.252C533.824 111.874 533.59 111.55 533.32 111.28C533.05 110.992 532.771 110.848 532.483 110.848C532.429 110.848 532.339 110.857 532.213 110.875C532.087 110.875 532.015 110.884 531.997 110.902C531.187 111.442 530.53 112.054 530.026 112.738C529.54 113.404 529.297 114.232 529.297 115.222C529.297 115.24 529.324 115.276 529.378 115.33C529.432 115.384 529.495 115.438 529.567 115.492C529.639 115.546 529.702 115.6 529.756 115.654C529.81 115.708 529.837 115.744 529.837 115.762C529.837 115.798 529.81 115.897 529.756 116.059C529.702 116.221 529.639 116.392 529.567 116.572C529.513 116.752 529.45 116.923 529.378 117.085C529.324 117.247 529.297 117.346 529.297 117.382C529.297 117.418 529.297 117.517 529.297 117.679C529.297 117.841 529.297 118.012 529.297 118.192C529.297 118.372 529.297 118.543 529.297 118.705C529.297 118.867 529.297 118.966 529.297 119.002C529.189 119.506 528.973 119.839 528.649 120.001C528.325 120.145 527.947 120.226 527.515 120.244C527.101 120.262 526.66 120.28 526.192 120.298C525.742 120.298 525.337 120.406 524.977 120.622C524.941 120.64 524.896 120.703 524.842 120.811C524.806 120.919 524.761 121.036 524.707 121.162C524.653 121.288 524.599 121.405 524.545 121.513C524.491 121.621 524.455 121.684 524.437 121.702C524.401 121.756 524.302 121.864 524.14 122.026C523.978 122.17 523.807 122.332 523.627 122.512C523.447 122.692 523.276 122.863 523.114 123.025C522.952 123.169 522.853 123.268 522.817 123.322C522.763 123.394 522.682 123.538 522.574 123.754C522.466 123.952 522.349 124.168 522.223 124.402C522.115 124.618 522.007 124.834 521.899 125.05C521.809 125.248 521.755 125.392 521.737 125.482C521.629 125.32 521.503 125.311 521.359 125.455C521.215 125.581 521.062 125.788 520.9 126.076C520.738 126.364 520.576 126.697 520.414 127.075C520.252 127.453 520.108 127.822 519.982 128.182C519.856 128.524 519.748 128.83 519.658 129.1C519.586 129.352 519.55 129.496 519.55 129.532ZM530.917 130.882C531.043 130.882 531.142 130.945 531.214 131.071C531.286 131.179 531.322 131.305 531.322 131.449C531.322 131.575 531.286 131.692 531.214 131.8C531.142 131.908 531.043 131.962 530.917 131.962C530.773 131.962 530.665 131.908 530.593 131.8C530.539 131.692 530.512 131.575 530.512 131.449C530.512 131.305 530.539 131.179 530.593 131.071C530.665 130.945 530.773 130.882 530.917 130.882ZM524.41 127.885C524.41 127.759 524.41 127.606 524.41 127.426C524.41 127.246 524.428 127.066 524.464 126.886C524.5 126.688 524.554 126.517 524.626 126.373C524.716 126.211 524.833 126.094 524.977 126.022C525.031 125.986 525.13 125.959 525.274 125.941C525.436 125.923 525.607 125.914 525.787 125.914C525.967 125.914 526.129 125.923 526.273 125.941C526.435 125.959 526.543 125.986 526.597 126.022L526.057 125.482C526.111 125.482 526.237 125.482 526.435 125.482C526.651 125.464 526.795 125.455 526.867 125.455C527.245 125.455 527.569 125.482 527.839 125.536C528.127 125.572 528.433 125.734 528.757 126.022C528.595 126.436 528.433 126.895 528.271 127.399C528.127 127.903 527.938 128.38 527.704 128.83C527.47 129.28 527.173 129.658 526.813 129.964C526.453 130.252 525.994 130.396 525.436 130.396C525.148 130.396 524.932 130.306 524.788 130.126C524.644 129.946 524.545 129.73 524.491 129.478C524.437 129.208 524.41 128.929 524.41 128.641C524.41 128.353 524.41 128.101 524.41 127.885ZM528.757 128.722C528.829 128.866 528.793 129.01 528.649 129.154C528.505 129.298 528.361 129.334 528.217 129.262C528.145 129.226 528.127 129.163 528.163 129.073C528.199 128.983 528.253 128.902 528.325 128.83C528.397 128.758 528.478 128.704 528.568 128.668C528.658 128.632 528.721 128.65 528.757 128.722ZM529.837 128.182L530.377 128.722H529.837V128.182ZM522.277 126.022C522.403 126.022 522.502 126.085 522.574 126.211C522.646 126.319 522.682 126.445 522.682 126.589C522.682 126.715 522.646 126.832 522.574 126.94C522.502 127.048 522.403 127.102 522.277 127.102C522.133 127.102 522.025 127.048 521.953 126.94C521.899 126.832 521.872 126.715 521.872 126.589C521.872 126.445 521.899 126.319 521.953 126.211C522.025 126.085 522.133 126.022 522.277 126.022ZM525.517 121.162C525.643 121.162 525.742 121.225 525.814 121.351C525.886 121.459 525.922 121.585 525.922 121.729C525.922 121.855 525.886 121.972 525.814 122.08C525.742 122.188 525.643 122.242 525.517 122.242C525.373 122.242 525.265 122.188 525.193 122.08C525.139 121.972 525.112 121.855 525.112 121.729C525.112 121.585 525.139 121.459 525.193 121.351C525.265 121.225 525.373 121.162 525.517 121.162ZM533.617 119.002H534.157V119.542L533.617 119.002Z" fill="white"/>
</svg>
